%TF.GenerationSoftware,KiCad,Pcbnew,(5.1.6)-1*%
%TF.CreationDate,2020-09-12T21:12:53+02:00*%
%TF.ProjectId,shock absorber control + IMU v3,73686f63-6b20-4616-9273-6f7262657220,rev?*%
%TF.SameCoordinates,Original*%
%TF.FileFunction,Legend,Bot*%
%TF.FilePolarity,Positive*%
%FSLAX46Y46*%
G04 Gerber Fmt 4.6, Leading zero omitted, Abs format (unit mm)*
G04 Created by KiCad (PCBNEW (5.1.6)-1) date 2020-09-12 21:12:53*
%MOMM*%
%LPD*%
G01*
G04 APERTURE LIST*
%ADD10C,0.010000*%
G04 APERTURE END LIST*
D10*
%TO.C,G\u002A\u002A\u002A*%
G36*
X139913998Y-97196489D02*
G01*
X139747242Y-97206596D01*
X139716615Y-97221158D01*
X139748833Y-97227976D01*
X139864684Y-97251815D01*
X139933856Y-97304309D01*
X139968387Y-97422005D01*
X139980313Y-97641451D01*
X139981667Y-97934957D01*
X139981667Y-98606667D01*
X139393997Y-98606667D01*
X139093672Y-98595293D01*
X138864585Y-98565425D01*
X138754980Y-98523447D01*
X138754000Y-98522000D01*
X138645519Y-98440235D01*
X138556944Y-98492042D01*
X138542333Y-98564333D01*
X138565396Y-98615621D01*
X138650981Y-98650450D01*
X138823681Y-98671234D01*
X139108092Y-98680389D01*
X139528809Y-98680329D01*
X139706500Y-98678647D01*
X140104706Y-98671831D01*
X140411548Y-98661674D01*
X140604115Y-98649357D01*
X140659498Y-98636061D01*
X140637833Y-98630690D01*
X140521600Y-98606698D01*
X140452389Y-98553812D01*
X140418011Y-98435315D01*
X140406276Y-98214487D01*
X140405000Y-97929333D01*
X140407232Y-97596476D01*
X140422053Y-97396232D01*
X140461654Y-97291885D01*
X140538224Y-97246716D01*
X140637834Y-97227976D01*
X140669770Y-97212129D01*
X140555931Y-97199971D01*
X140319865Y-97193371D01*
X140193333Y-97192705D01*
X139913998Y-97196489D01*
G37*
X139913998Y-97196489D02*
X139747242Y-97206596D01*
X139716615Y-97221158D01*
X139748833Y-97227976D01*
X139864684Y-97251815D01*
X139933856Y-97304309D01*
X139968387Y-97422005D01*
X139980313Y-97641451D01*
X139981667Y-97934957D01*
X139981667Y-98606667D01*
X139393997Y-98606667D01*
X139093672Y-98595293D01*
X138864585Y-98565425D01*
X138754980Y-98523447D01*
X138754000Y-98522000D01*
X138645519Y-98440235D01*
X138556944Y-98492042D01*
X138542333Y-98564333D01*
X138565396Y-98615621D01*
X138650981Y-98650450D01*
X138823681Y-98671234D01*
X139108092Y-98680389D01*
X139528809Y-98680329D01*
X139706500Y-98678647D01*
X140104706Y-98671831D01*
X140411548Y-98661674D01*
X140604115Y-98649357D01*
X140659498Y-98636061D01*
X140637833Y-98630690D01*
X140521600Y-98606698D01*
X140452389Y-98553812D01*
X140418011Y-98435315D01*
X140406276Y-98214487D01*
X140405000Y-97929333D01*
X140407232Y-97596476D01*
X140422053Y-97396232D01*
X140461654Y-97291885D01*
X140538224Y-97246716D01*
X140637834Y-97227976D01*
X140669770Y-97212129D01*
X140555931Y-97199971D01*
X140319865Y-97193371D01*
X140193333Y-97192705D01*
X139913998Y-97196489D01*
G36*
X137091777Y-97189580D02*
G01*
X136669873Y-97235035D01*
X136389984Y-97314174D01*
X136263004Y-97424789D01*
X136256333Y-97461582D01*
X136335796Y-97627397D01*
X136553369Y-97769710D01*
X136786022Y-97846800D01*
X137060667Y-97912000D01*
X136794880Y-97920667D01*
X136533217Y-97980756D01*
X136329213Y-98093362D01*
X136196560Y-98232738D01*
X136194029Y-98355495D01*
X136222013Y-98408937D01*
X136318016Y-98517635D01*
X136468884Y-98592970D01*
X136702100Y-98640111D01*
X137045147Y-98664227D01*
X137525506Y-98670489D01*
X137611000Y-98670208D01*
X137947050Y-98665547D01*
X138181912Y-98656137D01*
X138291866Y-98643404D01*
X138267167Y-98630690D01*
X138150933Y-98606698D01*
X138081722Y-98553812D01*
X138047344Y-98435315D01*
X138038453Y-98268000D01*
X137611000Y-98268000D01*
X137602558Y-98484781D01*
X137546205Y-98581110D01*
X137395402Y-98605859D01*
X137288516Y-98606667D01*
X137032509Y-98577082D01*
X136828409Y-98504593D01*
X136809093Y-98491910D01*
X136703665Y-98345596D01*
X136739445Y-98192346D01*
X136891137Y-98056048D01*
X137133443Y-97960589D01*
X137404845Y-97929333D01*
X137537816Y-97948734D01*
X137596906Y-98038526D01*
X137610958Y-98246091D01*
X137611000Y-98268000D01*
X138038453Y-98268000D01*
X138035609Y-98214487D01*
X138034333Y-97929333D01*
X138036565Y-97596476D01*
X138040128Y-97548333D01*
X137611000Y-97548333D01*
X137597004Y-97747334D01*
X137524966Y-97828959D01*
X137351434Y-97844667D01*
X137106679Y-97816086D01*
X136928101Y-97757021D01*
X136783802Y-97624366D01*
X136784190Y-97482642D01*
X136908126Y-97357068D01*
X137134473Y-97272860D01*
X137351434Y-97252000D01*
X137525744Y-97267978D01*
X137597242Y-97350220D01*
X137611000Y-97548333D01*
X138040128Y-97548333D01*
X138051387Y-97396232D01*
X138090988Y-97291885D01*
X138167558Y-97246716D01*
X138267167Y-97227976D01*
X138287487Y-97212525D01*
X138162242Y-97198000D01*
X137915198Y-97186232D01*
X137644801Y-97180019D01*
X137091777Y-97189580D01*
G37*
X137091777Y-97189580D02*
X136669873Y-97235035D01*
X136389984Y-97314174D01*
X136263004Y-97424789D01*
X136256333Y-97461582D01*
X136335796Y-97627397D01*
X136553369Y-97769710D01*
X136786022Y-97846800D01*
X137060667Y-97912000D01*
X136794880Y-97920667D01*
X136533217Y-97980756D01*
X136329213Y-98093362D01*
X136196560Y-98232738D01*
X136194029Y-98355495D01*
X136222013Y-98408937D01*
X136318016Y-98517635D01*
X136468884Y-98592970D01*
X136702100Y-98640111D01*
X137045147Y-98664227D01*
X137525506Y-98670489D01*
X137611000Y-98670208D01*
X137947050Y-98665547D01*
X138181912Y-98656137D01*
X138291866Y-98643404D01*
X138267167Y-98630690D01*
X138150933Y-98606698D01*
X138081722Y-98553812D01*
X138047344Y-98435315D01*
X138038453Y-98268000D01*
X137611000Y-98268000D01*
X137602558Y-98484781D01*
X137546205Y-98581110D01*
X137395402Y-98605859D01*
X137288516Y-98606667D01*
X137032509Y-98577082D01*
X136828409Y-98504593D01*
X136809093Y-98491910D01*
X136703665Y-98345596D01*
X136739445Y-98192346D01*
X136891137Y-98056048D01*
X137133443Y-97960589D01*
X137404845Y-97929333D01*
X137537816Y-97948734D01*
X137596906Y-98038526D01*
X137610958Y-98246091D01*
X137611000Y-98268000D01*
X138038453Y-98268000D01*
X138035609Y-98214487D01*
X138034333Y-97929333D01*
X138036565Y-97596476D01*
X138040128Y-97548333D01*
X137611000Y-97548333D01*
X137597004Y-97747334D01*
X137524966Y-97828959D01*
X137351434Y-97844667D01*
X137106679Y-97816086D01*
X136928101Y-97757021D01*
X136783802Y-97624366D01*
X136784190Y-97482642D01*
X136908126Y-97357068D01*
X137134473Y-97272860D01*
X137351434Y-97252000D01*
X137525744Y-97267978D01*
X137597242Y-97350220D01*
X137611000Y-97548333D01*
X138040128Y-97548333D01*
X138051387Y-97396232D01*
X138090988Y-97291885D01*
X138167558Y-97246716D01*
X138267167Y-97227976D01*
X138287487Y-97212525D01*
X138162242Y-97198000D01*
X137915198Y-97186232D01*
X137644801Y-97180019D01*
X137091777Y-97189580D01*
G36*
X134690000Y-97196871D02*
G01*
X134199902Y-97205192D01*
X133846256Y-97220576D01*
X133596207Y-97247091D01*
X133416898Y-97288806D01*
X133275476Y-97349789D01*
X133226015Y-97378147D01*
X132978681Y-97603470D01*
X132883754Y-97866669D01*
X132938897Y-98136857D01*
X133141771Y-98383149D01*
X133310496Y-98494569D01*
X133466489Y-98559818D01*
X133672287Y-98605417D01*
X133960117Y-98635107D01*
X134362206Y-98652633D01*
X134732333Y-98659713D01*
X135126065Y-98662473D01*
X135427830Y-98659754D01*
X135614647Y-98652176D01*
X135663535Y-98640361D01*
X135642500Y-98635114D01*
X135526258Y-98608770D01*
X135457045Y-98554140D01*
X135422670Y-98434267D01*
X135410939Y-98212195D01*
X135409667Y-97929333D01*
X135411947Y-97596403D01*
X135426915Y-97395855D01*
X135466762Y-97290739D01*
X135530655Y-97252000D01*
X134986333Y-97252000D01*
X134986333Y-97872889D01*
X134978208Y-98184200D01*
X134956789Y-98427325D01*
X134926509Y-98554345D01*
X134922833Y-98559165D01*
X134811086Y-98587019D01*
X134583044Y-98594570D01*
X134324337Y-98582558D01*
X133967707Y-98535611D01*
X133726929Y-98451523D01*
X133583504Y-98347190D01*
X133412877Y-98094161D01*
X133390841Y-97826957D01*
X133503915Y-97580460D01*
X133738616Y-97389550D01*
X133986781Y-97303744D01*
X134242699Y-97270267D01*
X134549413Y-97252748D01*
X134615917Y-97252000D01*
X134986333Y-97252000D01*
X135530655Y-97252000D01*
X135543680Y-97244103D01*
X135642500Y-97223661D01*
X135648145Y-97210540D01*
X135507310Y-97201017D01*
X135242823Y-97195732D01*
X134877511Y-97195329D01*
X134690000Y-97196871D01*
G37*
X134690000Y-97196871D02*
X134199902Y-97205192D01*
X133846256Y-97220576D01*
X133596207Y-97247091D01*
X133416898Y-97288806D01*
X133275476Y-97349789D01*
X133226015Y-97378147D01*
X132978681Y-97603470D01*
X132883754Y-97866669D01*
X132938897Y-98136857D01*
X133141771Y-98383149D01*
X133310496Y-98494569D01*
X133466489Y-98559818D01*
X133672287Y-98605417D01*
X133960117Y-98635107D01*
X134362206Y-98652633D01*
X134732333Y-98659713D01*
X135126065Y-98662473D01*
X135427830Y-98659754D01*
X135614647Y-98652176D01*
X135663535Y-98640361D01*
X135642500Y-98635114D01*
X135526258Y-98608770D01*
X135457045Y-98554140D01*
X135422670Y-98434267D01*
X135410939Y-98212195D01*
X135409667Y-97929333D01*
X135411947Y-97596403D01*
X135426915Y-97395855D01*
X135466762Y-97290739D01*
X135530655Y-97252000D01*
X134986333Y-97252000D01*
X134986333Y-97872889D01*
X134978208Y-98184200D01*
X134956789Y-98427325D01*
X134926509Y-98554345D01*
X134922833Y-98559165D01*
X134811086Y-98587019D01*
X134583044Y-98594570D01*
X134324337Y-98582558D01*
X133967707Y-98535611D01*
X133726929Y-98451523D01*
X133583504Y-98347190D01*
X133412877Y-98094161D01*
X133390841Y-97826957D01*
X133503915Y-97580460D01*
X133738616Y-97389550D01*
X133986781Y-97303744D01*
X134242699Y-97270267D01*
X134549413Y-97252748D01*
X134615917Y-97252000D01*
X134986333Y-97252000D01*
X135530655Y-97252000D01*
X135543680Y-97244103D01*
X135642500Y-97223661D01*
X135648145Y-97210540D01*
X135507310Y-97201017D01*
X135242823Y-97195732D01*
X134877511Y-97195329D01*
X134690000Y-97196871D01*
G36*
X130664805Y-97173708D02*
G01*
X130351274Y-97211310D01*
X130115685Y-97274964D01*
X129997612Y-97361393D01*
X129991000Y-97389583D01*
X130041932Y-97493896D01*
X130170654Y-97475144D01*
X130308511Y-97369918D01*
X130503906Y-97276733D01*
X130793917Y-97250560D01*
X131120395Y-97285362D01*
X131425189Y-97375102D01*
X131644825Y-97508654D01*
X131815074Y-97763473D01*
X131825986Y-98035043D01*
X131680253Y-98290915D01*
X131571994Y-98386629D01*
X131418408Y-98478481D01*
X131232107Y-98532832D01*
X130966022Y-98558491D01*
X130622406Y-98564333D01*
X130321252Y-98570400D01*
X130118326Y-98586623D01*
X130042745Y-98610036D01*
X130057412Y-98621882D01*
X130272328Y-98664242D01*
X130595472Y-98680700D01*
X130968035Y-98673146D01*
X131331209Y-98643475D01*
X131626186Y-98593578D01*
X131711105Y-98568667D01*
X131965220Y-98455585D01*
X132172963Y-98326253D01*
X132197938Y-98305261D01*
X132342616Y-98081199D01*
X132343206Y-97831324D01*
X132215080Y-97586792D01*
X131973612Y-97378763D01*
X131677283Y-97249978D01*
X131367385Y-97189765D01*
X131016701Y-97165434D01*
X130664805Y-97173708D01*
G37*
X130664805Y-97173708D02*
X130351274Y-97211310D01*
X130115685Y-97274964D01*
X129997612Y-97361393D01*
X129991000Y-97389583D01*
X130041932Y-97493896D01*
X130170654Y-97475144D01*
X130308511Y-97369918D01*
X130503906Y-97276733D01*
X130793917Y-97250560D01*
X131120395Y-97285362D01*
X131425189Y-97375102D01*
X131644825Y-97508654D01*
X131815074Y-97763473D01*
X131825986Y-98035043D01*
X131680253Y-98290915D01*
X131571994Y-98386629D01*
X131418408Y-98478481D01*
X131232107Y-98532832D01*
X130966022Y-98558491D01*
X130622406Y-98564333D01*
X130321252Y-98570400D01*
X130118326Y-98586623D01*
X130042745Y-98610036D01*
X130057412Y-98621882D01*
X130272328Y-98664242D01*
X130595472Y-98680700D01*
X130968035Y-98673146D01*
X131331209Y-98643475D01*
X131626186Y-98593578D01*
X131711105Y-98568667D01*
X131965220Y-98455585D01*
X132172963Y-98326253D01*
X132197938Y-98305261D01*
X132342616Y-98081199D01*
X132343206Y-97831324D01*
X132215080Y-97586792D01*
X131973612Y-97378763D01*
X131677283Y-97249978D01*
X131367385Y-97189765D01*
X131016701Y-97165434D01*
X130664805Y-97173708D01*
G36*
X137242269Y-93027306D02*
G01*
X137084901Y-93195365D01*
X136936074Y-93387306D01*
X136730006Y-93671747D01*
X136483774Y-94023126D01*
X136214456Y-94415882D01*
X135939126Y-94824455D01*
X135674861Y-95223283D01*
X135438739Y-95586806D01*
X135247834Y-95889463D01*
X135119223Y-96105692D01*
X135069984Y-96209934D01*
X135069907Y-96211535D01*
X135127814Y-96338624D01*
X135256298Y-96486702D01*
X135504934Y-96616940D01*
X135836734Y-96660300D01*
X136189157Y-96616181D01*
X136476871Y-96498405D01*
X136693145Y-96319353D01*
X136898363Y-96077348D01*
X136937037Y-96018880D01*
X137134332Y-95699650D01*
X137224500Y-96065527D01*
X137341756Y-96378098D01*
X137509906Y-96537794D01*
X137744250Y-96557290D01*
X137803037Y-96544825D01*
X138152544Y-96377114D01*
X138463005Y-96082258D01*
X138705120Y-95702164D01*
X138849590Y-95278740D01*
X138877281Y-95008333D01*
X138824354Y-94624090D01*
X138683213Y-94259171D01*
X138480320Y-93968038D01*
X138305721Y-93831991D01*
X138124772Y-93755538D01*
X138017824Y-93741966D01*
X138013602Y-93744953D01*
X137970745Y-93697160D01*
X137909159Y-93528175D01*
X137875000Y-93404305D01*
X137791445Y-93151359D01*
X137682463Y-93018167D01*
X137551852Y-92964548D01*
X137386087Y-92950836D01*
X137242269Y-93027306D01*
G37*
X137242269Y-93027306D02*
X137084901Y-93195365D01*
X136936074Y-93387306D01*
X136730006Y-93671747D01*
X136483774Y-94023126D01*
X136214456Y-94415882D01*
X135939126Y-94824455D01*
X135674861Y-95223283D01*
X135438739Y-95586806D01*
X135247834Y-95889463D01*
X135119223Y-96105692D01*
X135069984Y-96209934D01*
X135069907Y-96211535D01*
X135127814Y-96338624D01*
X135256298Y-96486702D01*
X135504934Y-96616940D01*
X135836734Y-96660300D01*
X136189157Y-96616181D01*
X136476871Y-96498405D01*
X136693145Y-96319353D01*
X136898363Y-96077348D01*
X136937037Y-96018880D01*
X137134332Y-95699650D01*
X137224500Y-96065527D01*
X137341756Y-96378098D01*
X137509906Y-96537794D01*
X137744250Y-96557290D01*
X137803037Y-96544825D01*
X138152544Y-96377114D01*
X138463005Y-96082258D01*
X138705120Y-95702164D01*
X138849590Y-95278740D01*
X138877281Y-95008333D01*
X138824354Y-94624090D01*
X138683213Y-94259171D01*
X138480320Y-93968038D01*
X138305721Y-93831991D01*
X138124772Y-93755538D01*
X138017824Y-93741966D01*
X138013602Y-93744953D01*
X137970745Y-93697160D01*
X137909159Y-93528175D01*
X137875000Y-93404305D01*
X137791445Y-93151359D01*
X137682463Y-93018167D01*
X137551852Y-92964548D01*
X137386087Y-92950836D01*
X137242269Y-93027306D01*
G36*
X133255338Y-93036106D02*
G01*
X133050985Y-93137612D01*
X132908480Y-93378660D01*
X132826028Y-93765283D01*
X132801836Y-94303513D01*
X132807306Y-94542667D01*
X132856459Y-95168998D01*
X132957704Y-95657721D01*
X133120386Y-96035073D01*
X133353849Y-96327295D01*
X133481430Y-96435683D01*
X133800752Y-96599452D01*
X134158121Y-96661186D01*
X134486987Y-96612905D01*
X134584167Y-96567885D01*
X134673331Y-96485756D01*
X134715280Y-96356168D01*
X134706289Y-96159439D01*
X134642636Y-95875885D01*
X134520596Y-95485824D01*
X134336447Y-94969571D01*
X134225792Y-94673529D01*
X134006193Y-94103761D01*
X133828794Y-93676705D01*
X133682849Y-93374231D01*
X133557613Y-93178207D01*
X133442339Y-93070503D01*
X133326283Y-93032988D01*
X133255338Y-93036106D01*
G37*
X133255338Y-93036106D02*
X133050985Y-93137612D01*
X132908480Y-93378660D01*
X132826028Y-93765283D01*
X132801836Y-94303513D01*
X132807306Y-94542667D01*
X132856459Y-95168998D01*
X132957704Y-95657721D01*
X133120386Y-96035073D01*
X133353849Y-96327295D01*
X133481430Y-96435683D01*
X133800752Y-96599452D01*
X134158121Y-96661186D01*
X134486987Y-96612905D01*
X134584167Y-96567885D01*
X134673331Y-96485756D01*
X134715280Y-96356168D01*
X134706289Y-96159439D01*
X134642636Y-95875885D01*
X134520596Y-95485824D01*
X134336447Y-94969571D01*
X134225792Y-94673529D01*
X134006193Y-94103761D01*
X133828794Y-93676705D01*
X133682849Y-93374231D01*
X133557613Y-93178207D01*
X133442339Y-93070503D01*
X133326283Y-93032988D01*
X133255338Y-93036106D01*
G36*
X136519833Y-91168617D02*
G01*
X136381952Y-91252516D01*
X136312308Y-91331551D01*
X136198444Y-91439963D01*
X136133177Y-91416218D01*
X136015579Y-91350457D01*
X135829955Y-91325333D01*
X135577739Y-91402531D01*
X135394554Y-91631223D01*
X135283203Y-92007057D01*
X135258138Y-92212451D01*
X135247499Y-92499025D01*
X135284517Y-92681695D01*
X135383227Y-92822517D01*
X135399985Y-92839652D01*
X135632696Y-92975780D01*
X135922531Y-93021130D01*
X136199864Y-92973966D01*
X136370211Y-92863833D01*
X136470099Y-92659003D01*
X136510274Y-92367580D01*
X136510333Y-92355833D01*
X136531062Y-92111272D01*
X136598440Y-92009018D01*
X136632533Y-92002667D01*
X136775148Y-91932532D01*
X136916617Y-91766075D01*
X137007306Y-91569216D01*
X137018333Y-91490272D01*
X136948474Y-91380207D01*
X136827833Y-91360944D01*
X136685256Y-91327525D01*
X136658500Y-91261833D01*
X136629506Y-91168200D01*
X136519833Y-91168617D01*
G37*
X136519833Y-91168617D02*
X136381952Y-91252516D01*
X136312308Y-91331551D01*
X136198444Y-91439963D01*
X136133177Y-91416218D01*
X136015579Y-91350457D01*
X135829955Y-91325333D01*
X135577739Y-91402531D01*
X135394554Y-91631223D01*
X135283203Y-92007057D01*
X135258138Y-92212451D01*
X135247499Y-92499025D01*
X135284517Y-92681695D01*
X135383227Y-92822517D01*
X135399985Y-92839652D01*
X135632696Y-92975780D01*
X135922531Y-93021130D01*
X136199864Y-92973966D01*
X136370211Y-92863833D01*
X136470099Y-92659003D01*
X136510274Y-92367580D01*
X136510333Y-92355833D01*
X136531062Y-92111272D01*
X136598440Y-92009018D01*
X136632533Y-92002667D01*
X136775148Y-91932532D01*
X136916617Y-91766075D01*
X137007306Y-91569216D01*
X137018333Y-91490272D01*
X136948474Y-91380207D01*
X136827833Y-91360944D01*
X136685256Y-91327525D01*
X136658500Y-91261833D01*
X136629506Y-91168200D01*
X136519833Y-91168617D01*
G36*
X132540717Y-88758469D02*
G01*
X132386132Y-88859021D01*
X132219375Y-88986200D01*
X131968491Y-89128839D01*
X131834758Y-89191928D01*
X131527495Y-89377733D01*
X131289317Y-89619408D01*
X131137864Y-89883224D01*
X131090776Y-90135451D01*
X131165691Y-90342359D01*
X131209926Y-90386746D01*
X131288858Y-90541721D01*
X131284884Y-90650477D01*
X131268519Y-90878592D01*
X131298188Y-91178090D01*
X131361295Y-91471672D01*
X131445247Y-91682040D01*
X131455423Y-91697070D01*
X131582476Y-91782179D01*
X131828246Y-91882960D01*
X132145612Y-91980872D01*
X132235117Y-92003835D01*
X132646629Y-92100512D01*
X132925390Y-92153249D01*
X133101250Y-92165375D01*
X133204061Y-92140221D01*
X133236556Y-92115555D01*
X133269092Y-92004750D01*
X133289893Y-91784091D01*
X133293827Y-91628722D01*
X133366297Y-91134989D01*
X133562981Y-90634073D01*
X133855487Y-90192175D01*
X133957454Y-90081239D01*
X134168440Y-89792476D01*
X134212291Y-89510039D01*
X134091739Y-89226372D01*
X133859956Y-89003036D01*
X133542291Y-88834526D01*
X133185415Y-88730894D01*
X132835999Y-88702191D01*
X132540717Y-88758469D01*
G37*
X132540717Y-88758469D02*
X132386132Y-88859021D01*
X132219375Y-88986200D01*
X131968491Y-89128839D01*
X131834758Y-89191928D01*
X131527495Y-89377733D01*
X131289317Y-89619408D01*
X131137864Y-89883224D01*
X131090776Y-90135451D01*
X131165691Y-90342359D01*
X131209926Y-90386746D01*
X131288858Y-90541721D01*
X131284884Y-90650477D01*
X131268519Y-90878592D01*
X131298188Y-91178090D01*
X131361295Y-91471672D01*
X131445247Y-91682040D01*
X131455423Y-91697070D01*
X131582476Y-91782179D01*
X131828246Y-91882960D01*
X132145612Y-91980872D01*
X132235117Y-92003835D01*
X132646629Y-92100512D01*
X132925390Y-92153249D01*
X133101250Y-92165375D01*
X133204061Y-92140221D01*
X133236556Y-92115555D01*
X133269092Y-92004750D01*
X133289893Y-91784091D01*
X133293827Y-91628722D01*
X133366297Y-91134989D01*
X133562981Y-90634073D01*
X133855487Y-90192175D01*
X133957454Y-90081239D01*
X134168440Y-89792476D01*
X134212291Y-89510039D01*
X134091739Y-89226372D01*
X133859956Y-89003036D01*
X133542291Y-88834526D01*
X133185415Y-88730894D01*
X132835999Y-88702191D01*
X132540717Y-88758469D01*
G36*
X137091746Y-88753397D02*
G01*
X136755316Y-88846426D01*
X136531014Y-88954467D01*
X136334477Y-89122765D01*
X136212334Y-89316231D01*
X136205937Y-89337650D01*
X136194874Y-89480361D01*
X136256517Y-89622392D01*
X136414759Y-89806162D01*
X136538156Y-89927518D01*
X136948821Y-90416045D01*
X137246654Y-90970615D01*
X137407265Y-91543967D01*
X137418496Y-91633292D01*
X137452355Y-91895837D01*
X137500102Y-92030765D01*
X137586309Y-92079453D01*
X137686345Y-92084333D01*
X137931295Y-92038696D01*
X138119000Y-91960333D01*
X138340123Y-91867961D01*
X138508045Y-91836333D01*
X138744719Y-91757916D01*
X138898178Y-91537286D01*
X138963575Y-91182336D01*
X138965667Y-91090830D01*
X138980969Y-90833935D01*
X139020074Y-90653105D01*
X139050333Y-90605667D01*
X139102458Y-90495657D01*
X139132279Y-90281992D01*
X139135000Y-90188754D01*
X139066300Y-89799361D01*
X138855123Y-89492388D01*
X138493852Y-89257131D01*
X138461981Y-89242735D01*
X138247144Y-89119284D01*
X138110738Y-88987448D01*
X138093289Y-88950157D01*
X137977830Y-88815405D01*
X137744653Y-88737771D01*
X137435408Y-88717140D01*
X137091746Y-88753397D01*
G37*
X137091746Y-88753397D02*
X136755316Y-88846426D01*
X136531014Y-88954467D01*
X136334477Y-89122765D01*
X136212334Y-89316231D01*
X136205937Y-89337650D01*
X136194874Y-89480361D01*
X136256517Y-89622392D01*
X136414759Y-89806162D01*
X136538156Y-89927518D01*
X136948821Y-90416045D01*
X137246654Y-90970615D01*
X137407265Y-91543967D01*
X137418496Y-91633292D01*
X137452355Y-91895837D01*
X137500102Y-92030765D01*
X137586309Y-92079453D01*
X137686345Y-92084333D01*
X137931295Y-92038696D01*
X138119000Y-91960333D01*
X138340123Y-91867961D01*
X138508045Y-91836333D01*
X138744719Y-91757916D01*
X138898178Y-91537286D01*
X138963575Y-91182336D01*
X138965667Y-91090830D01*
X138980969Y-90833935D01*
X139020074Y-90653105D01*
X139050333Y-90605667D01*
X139102458Y-90495657D01*
X139132279Y-90281992D01*
X139135000Y-90188754D01*
X139066300Y-89799361D01*
X138855123Y-89492388D01*
X138493852Y-89257131D01*
X138461981Y-89242735D01*
X138247144Y-89119284D01*
X138110738Y-88987448D01*
X138093289Y-88950157D01*
X137977830Y-88815405D01*
X137744653Y-88737771D01*
X137435408Y-88717140D01*
X137091746Y-88753397D01*
G36*
X134382619Y-91213454D02*
G01*
X134325933Y-91257600D01*
X134232153Y-91457305D01*
X134262264Y-91691794D01*
X134379167Y-91862544D01*
X134554662Y-91982644D01*
X134719877Y-91971149D01*
X134838167Y-91911218D01*
X134953481Y-91760184D01*
X134986333Y-91584533D01*
X134956042Y-91405297D01*
X134851583Y-91355184D01*
X134838167Y-91355907D01*
X134724022Y-91317972D01*
X134711167Y-91261833D01*
X134668154Y-91177572D01*
X134536402Y-91161201D01*
X134382619Y-91213454D01*
G37*
X134382619Y-91213454D02*
X134325933Y-91257600D01*
X134232153Y-91457305D01*
X134262264Y-91691794D01*
X134379167Y-91862544D01*
X134554662Y-91982644D01*
X134719877Y-91971149D01*
X134838167Y-91911218D01*
X134953481Y-91760184D01*
X134986333Y-91584533D01*
X134956042Y-91405297D01*
X134851583Y-91355184D01*
X134838167Y-91355907D01*
X134724022Y-91317972D01*
X134711167Y-91261833D01*
X134668154Y-91177572D01*
X134536402Y-91161201D01*
X134382619Y-91213454D01*
%TD*%
M02*
