%TF.GenerationSoftware,KiCad,Pcbnew,(5.1.6)-1*%
%TF.CreationDate,2020-09-12T21:12:53+02:00*%
%TF.ProjectId,shock absorber control + IMU v3,73686f63-6b20-4616-9273-6f7262657220,rev?*%
%TF.SameCoordinates,Original*%
%TF.FileFunction,Paste,Top*%
%TF.FilePolarity,Positive*%
%FSLAX46Y46*%
G04 Gerber Fmt 4.6, Leading zero omitted, Abs format (unit mm)*
G04 Created by KiCad (PCBNEW (5.1.6)-1) date 2020-09-12 21:12:53*
%MOMM*%
%LPD*%
G01*
G04 APERTURE LIST*
%ADD10R,1.300000X1.600000*%
%ADD11R,2.000000X3.800000*%
%ADD12R,2.000000X1.500000*%
G04 APERTURE END LIST*
%TO.C,R7*%
G36*
G01*
X143225000Y-111493750D02*
X143225000Y-112006250D01*
G75*
G02*
X143006250Y-112225000I-218750J0D01*
G01*
X142568750Y-112225000D01*
G75*
G02*
X142350000Y-112006250I0J218750D01*
G01*
X142350000Y-111493750D01*
G75*
G02*
X142568750Y-111275000I218750J0D01*
G01*
X143006250Y-111275000D01*
G75*
G02*
X143225000Y-111493750I0J-218750D01*
G01*
G37*
G36*
G01*
X144800000Y-111493750D02*
X144800000Y-112006250D01*
G75*
G02*
X144581250Y-112225000I-218750J0D01*
G01*
X144143750Y-112225000D01*
G75*
G02*
X143925000Y-112006250I0J218750D01*
G01*
X143925000Y-111493750D01*
G75*
G02*
X144143750Y-111275000I218750J0D01*
G01*
X144581250Y-111275000D01*
G75*
G02*
X144800000Y-111493750I0J-218750D01*
G01*
G37*
%TD*%
%TO.C,R3*%
G36*
G01*
X150025000Y-89353750D02*
X150025000Y-89866250D01*
G75*
G02*
X149806250Y-90085000I-218750J0D01*
G01*
X149368750Y-90085000D01*
G75*
G02*
X149150000Y-89866250I0J218750D01*
G01*
X149150000Y-89353750D01*
G75*
G02*
X149368750Y-89135000I218750J0D01*
G01*
X149806250Y-89135000D01*
G75*
G02*
X150025000Y-89353750I0J-218750D01*
G01*
G37*
G36*
G01*
X148450000Y-89353750D02*
X148450000Y-89866250D01*
G75*
G02*
X148231250Y-90085000I-218750J0D01*
G01*
X147793750Y-90085000D01*
G75*
G02*
X147575000Y-89866250I0J218750D01*
G01*
X147575000Y-89353750D01*
G75*
G02*
X147793750Y-89135000I218750J0D01*
G01*
X148231250Y-89135000D01*
G75*
G02*
X148450000Y-89353750I0J-218750D01*
G01*
G37*
%TD*%
%TO.C,C11*%
G36*
G01*
X150545000Y-85665000D02*
X148395000Y-85665000D01*
G75*
G02*
X148145000Y-85415000I0J250000D01*
G01*
X148145000Y-84665000D01*
G75*
G02*
X148395000Y-84415000I250000J0D01*
G01*
X150545000Y-84415000D01*
G75*
G02*
X150795000Y-84665000I0J-250000D01*
G01*
X150795000Y-85415000D01*
G75*
G02*
X150545000Y-85665000I-250000J0D01*
G01*
G37*
G36*
G01*
X150545000Y-88465000D02*
X148395000Y-88465000D01*
G75*
G02*
X148145000Y-88215000I0J250000D01*
G01*
X148145000Y-87465000D01*
G75*
G02*
X148395000Y-87215000I250000J0D01*
G01*
X150545000Y-87215000D01*
G75*
G02*
X150795000Y-87465000I0J-250000D01*
G01*
X150795000Y-88215000D01*
G75*
G02*
X150545000Y-88465000I-250000J0D01*
G01*
G37*
%TD*%
%TO.C,C17*%
G36*
G01*
X131843750Y-103600000D02*
X132356250Y-103600000D01*
G75*
G02*
X132575000Y-103818750I0J-218750D01*
G01*
X132575000Y-104256250D01*
G75*
G02*
X132356250Y-104475000I-218750J0D01*
G01*
X131843750Y-104475000D01*
G75*
G02*
X131625000Y-104256250I0J218750D01*
G01*
X131625000Y-103818750D01*
G75*
G02*
X131843750Y-103600000I218750J0D01*
G01*
G37*
G36*
G01*
X131843750Y-102025000D02*
X132356250Y-102025000D01*
G75*
G02*
X132575000Y-102243750I0J-218750D01*
G01*
X132575000Y-102681250D01*
G75*
G02*
X132356250Y-102900000I-218750J0D01*
G01*
X131843750Y-102900000D01*
G75*
G02*
X131625000Y-102681250I0J218750D01*
G01*
X131625000Y-102243750D01*
G75*
G02*
X131843750Y-102025000I218750J0D01*
G01*
G37*
%TD*%
D10*
%TO.C,Y1*%
X136350000Y-101200000D03*
X136350000Y-105000000D03*
X134050000Y-105000000D03*
X134050000Y-101200000D03*
%TD*%
%TO.C,SW1*%
G36*
G01*
X159850000Y-91050000D02*
X161450000Y-91050000D01*
G75*
G02*
X161650000Y-91250000I0J-200000D01*
G01*
X161650000Y-91650000D01*
G75*
G02*
X161450000Y-91850000I-200000J0D01*
G01*
X159850000Y-91850000D01*
G75*
G02*
X159650000Y-91650000I0J200000D01*
G01*
X159650000Y-91250000D01*
G75*
G02*
X159850000Y-91050000I200000J0D01*
G01*
G37*
G36*
G01*
X159850000Y-95250000D02*
X161450000Y-95250000D01*
G75*
G02*
X161650000Y-95450000I0J-200000D01*
G01*
X161650000Y-95850000D01*
G75*
G02*
X161450000Y-96050000I-200000J0D01*
G01*
X159850000Y-96050000D01*
G75*
G02*
X159650000Y-95850000I0J200000D01*
G01*
X159650000Y-95450000D01*
G75*
G02*
X159850000Y-95250000I200000J0D01*
G01*
G37*
%TD*%
%TO.C,R6*%
G36*
G01*
X154626861Y-84239469D02*
X154264469Y-84601862D01*
G75*
G02*
X153955109Y-84601862I-154680J154680D01*
G01*
X153645750Y-84292503D01*
G75*
G02*
X153645750Y-83983143I154680J154680D01*
G01*
X154008143Y-83620750D01*
G75*
G02*
X154317503Y-83620750I154680J-154680D01*
G01*
X154626862Y-83930109D01*
G75*
G02*
X154626862Y-84239469I-154680J-154680D01*
G01*
G37*
G36*
G01*
X155740555Y-85353163D02*
X155378163Y-85715556D01*
G75*
G02*
X155068803Y-85715556I-154680J154680D01*
G01*
X154759444Y-85406197D01*
G75*
G02*
X154759444Y-85096837I154680J154680D01*
G01*
X155121837Y-84734444D01*
G75*
G02*
X155431197Y-84734444I154680J-154680D01*
G01*
X155740556Y-85043803D01*
G75*
G02*
X155740556Y-85353163I-154680J-154680D01*
G01*
G37*
%TD*%
%TO.C,U5*%
G36*
G01*
X157530000Y-93741000D02*
X157830000Y-93741000D01*
G75*
G02*
X157980000Y-93891000I0J-150000D01*
G01*
X157980000Y-95541000D01*
G75*
G02*
X157830000Y-95691000I-150000J0D01*
G01*
X157530000Y-95691000D01*
G75*
G02*
X157380000Y-95541000I0J150000D01*
G01*
X157380000Y-93891000D01*
G75*
G02*
X157530000Y-93741000I150000J0D01*
G01*
G37*
G36*
G01*
X156260000Y-93741000D02*
X156560000Y-93741000D01*
G75*
G02*
X156710000Y-93891000I0J-150000D01*
G01*
X156710000Y-95541000D01*
G75*
G02*
X156560000Y-95691000I-150000J0D01*
G01*
X156260000Y-95691000D01*
G75*
G02*
X156110000Y-95541000I0J150000D01*
G01*
X156110000Y-93891000D01*
G75*
G02*
X156260000Y-93741000I150000J0D01*
G01*
G37*
G36*
G01*
X154990000Y-93741000D02*
X155290000Y-93741000D01*
G75*
G02*
X155440000Y-93891000I0J-150000D01*
G01*
X155440000Y-95541000D01*
G75*
G02*
X155290000Y-95691000I-150000J0D01*
G01*
X154990000Y-95691000D01*
G75*
G02*
X154840000Y-95541000I0J150000D01*
G01*
X154840000Y-93891000D01*
G75*
G02*
X154990000Y-93741000I150000J0D01*
G01*
G37*
G36*
G01*
X153720000Y-93741000D02*
X154020000Y-93741000D01*
G75*
G02*
X154170000Y-93891000I0J-150000D01*
G01*
X154170000Y-95541000D01*
G75*
G02*
X154020000Y-95691000I-150000J0D01*
G01*
X153720000Y-95691000D01*
G75*
G02*
X153570000Y-95541000I0J150000D01*
G01*
X153570000Y-93891000D01*
G75*
G02*
X153720000Y-93741000I150000J0D01*
G01*
G37*
G36*
G01*
X153720000Y-88791000D02*
X154020000Y-88791000D01*
G75*
G02*
X154170000Y-88941000I0J-150000D01*
G01*
X154170000Y-90591000D01*
G75*
G02*
X154020000Y-90741000I-150000J0D01*
G01*
X153720000Y-90741000D01*
G75*
G02*
X153570000Y-90591000I0J150000D01*
G01*
X153570000Y-88941000D01*
G75*
G02*
X153720000Y-88791000I150000J0D01*
G01*
G37*
G36*
G01*
X154990000Y-88791000D02*
X155290000Y-88791000D01*
G75*
G02*
X155440000Y-88941000I0J-150000D01*
G01*
X155440000Y-90591000D01*
G75*
G02*
X155290000Y-90741000I-150000J0D01*
G01*
X154990000Y-90741000D01*
G75*
G02*
X154840000Y-90591000I0J150000D01*
G01*
X154840000Y-88941000D01*
G75*
G02*
X154990000Y-88791000I150000J0D01*
G01*
G37*
G36*
G01*
X156260000Y-88791000D02*
X156560000Y-88791000D01*
G75*
G02*
X156710000Y-88941000I0J-150000D01*
G01*
X156710000Y-90591000D01*
G75*
G02*
X156560000Y-90741000I-150000J0D01*
G01*
X156260000Y-90741000D01*
G75*
G02*
X156110000Y-90591000I0J150000D01*
G01*
X156110000Y-88941000D01*
G75*
G02*
X156260000Y-88791000I150000J0D01*
G01*
G37*
G36*
G01*
X157530000Y-88791000D02*
X157830000Y-88791000D01*
G75*
G02*
X157980000Y-88941000I0J-150000D01*
G01*
X157980000Y-90591000D01*
G75*
G02*
X157830000Y-90741000I-150000J0D01*
G01*
X157530000Y-90741000D01*
G75*
G02*
X157380000Y-90591000I0J150000D01*
G01*
X157380000Y-88941000D01*
G75*
G02*
X157530000Y-88791000I150000J0D01*
G01*
G37*
%TD*%
%TO.C,U4*%
G36*
G01*
X146382500Y-84460000D02*
X145617500Y-84460000D01*
G75*
G02*
X145375000Y-84217500I0J242500D01*
G01*
X145375000Y-83732500D01*
G75*
G02*
X145617500Y-83490000I242500J0D01*
G01*
X146382500Y-83490000D01*
G75*
G02*
X146625000Y-83732500I0J-242500D01*
G01*
X146625000Y-84217500D01*
G75*
G02*
X146382500Y-84460000I-242500J0D01*
G01*
G37*
G36*
G01*
X144832500Y-84460000D02*
X144067500Y-84460000D01*
G75*
G02*
X143825000Y-84217500I0J242500D01*
G01*
X143825000Y-83732500D01*
G75*
G02*
X144067500Y-83490000I242500J0D01*
G01*
X144832500Y-83490000D01*
G75*
G02*
X145075000Y-83732500I0J-242500D01*
G01*
X145075000Y-84217500D01*
G75*
G02*
X144832500Y-84460000I-242500J0D01*
G01*
G37*
G36*
G01*
X146382500Y-85660000D02*
X145617500Y-85660000D01*
G75*
G02*
X145375000Y-85417500I0J242500D01*
G01*
X145375000Y-84932500D01*
G75*
G02*
X145617500Y-84690000I242500J0D01*
G01*
X146382500Y-84690000D01*
G75*
G02*
X146625000Y-84932500I0J-242500D01*
G01*
X146625000Y-85417500D01*
G75*
G02*
X146382500Y-85660000I-242500J0D01*
G01*
G37*
G36*
G01*
X144832500Y-85660000D02*
X144067500Y-85660000D01*
G75*
G02*
X143825000Y-85417500I0J242500D01*
G01*
X143825000Y-84932500D01*
G75*
G02*
X144067500Y-84690000I242500J0D01*
G01*
X144832500Y-84690000D01*
G75*
G02*
X145075000Y-84932500I0J-242500D01*
G01*
X145075000Y-85417500D01*
G75*
G02*
X144832500Y-85660000I-242500J0D01*
G01*
G37*
G36*
G01*
X143470000Y-82725000D02*
X143170000Y-82725000D01*
G75*
G02*
X143020000Y-82575000I0J150000D01*
G01*
X143020000Y-81275000D01*
G75*
G02*
X143170000Y-81125000I150000J0D01*
G01*
X143470000Y-81125000D01*
G75*
G02*
X143620000Y-81275000I0J-150000D01*
G01*
X143620000Y-82575000D01*
G75*
G02*
X143470000Y-82725000I-150000J0D01*
G01*
G37*
G36*
G01*
X144740000Y-82725000D02*
X144440000Y-82725000D01*
G75*
G02*
X144290000Y-82575000I0J150000D01*
G01*
X144290000Y-81275000D01*
G75*
G02*
X144440000Y-81125000I150000J0D01*
G01*
X144740000Y-81125000D01*
G75*
G02*
X144890000Y-81275000I0J-150000D01*
G01*
X144890000Y-82575000D01*
G75*
G02*
X144740000Y-82725000I-150000J0D01*
G01*
G37*
G36*
G01*
X146010000Y-82725000D02*
X145710000Y-82725000D01*
G75*
G02*
X145560000Y-82575000I0J150000D01*
G01*
X145560000Y-81275000D01*
G75*
G02*
X145710000Y-81125000I150000J0D01*
G01*
X146010000Y-81125000D01*
G75*
G02*
X146160000Y-81275000I0J-150000D01*
G01*
X146160000Y-82575000D01*
G75*
G02*
X146010000Y-82725000I-150000J0D01*
G01*
G37*
G36*
G01*
X147280000Y-82725000D02*
X146980000Y-82725000D01*
G75*
G02*
X146830000Y-82575000I0J150000D01*
G01*
X146830000Y-81275000D01*
G75*
G02*
X146980000Y-81125000I150000J0D01*
G01*
X147280000Y-81125000D01*
G75*
G02*
X147430000Y-81275000I0J-150000D01*
G01*
X147430000Y-82575000D01*
G75*
G02*
X147280000Y-82725000I-150000J0D01*
G01*
G37*
G36*
G01*
X147280000Y-88025000D02*
X146980000Y-88025000D01*
G75*
G02*
X146830000Y-87875000I0J150000D01*
G01*
X146830000Y-86575000D01*
G75*
G02*
X146980000Y-86425000I150000J0D01*
G01*
X147280000Y-86425000D01*
G75*
G02*
X147430000Y-86575000I0J-150000D01*
G01*
X147430000Y-87875000D01*
G75*
G02*
X147280000Y-88025000I-150000J0D01*
G01*
G37*
G36*
G01*
X146010000Y-88025000D02*
X145710000Y-88025000D01*
G75*
G02*
X145560000Y-87875000I0J150000D01*
G01*
X145560000Y-86575000D01*
G75*
G02*
X145710000Y-86425000I150000J0D01*
G01*
X146010000Y-86425000D01*
G75*
G02*
X146160000Y-86575000I0J-150000D01*
G01*
X146160000Y-87875000D01*
G75*
G02*
X146010000Y-88025000I-150000J0D01*
G01*
G37*
G36*
G01*
X144740000Y-88025000D02*
X144440000Y-88025000D01*
G75*
G02*
X144290000Y-87875000I0J150000D01*
G01*
X144290000Y-86575000D01*
G75*
G02*
X144440000Y-86425000I150000J0D01*
G01*
X144740000Y-86425000D01*
G75*
G02*
X144890000Y-86575000I0J-150000D01*
G01*
X144890000Y-87875000D01*
G75*
G02*
X144740000Y-88025000I-150000J0D01*
G01*
G37*
G36*
G01*
X143470000Y-88025000D02*
X143170000Y-88025000D01*
G75*
G02*
X143020000Y-87875000I0J150000D01*
G01*
X143020000Y-86575000D01*
G75*
G02*
X143170000Y-86425000I150000J0D01*
G01*
X143470000Y-86425000D01*
G75*
G02*
X143620000Y-86575000I0J-150000D01*
G01*
X143620000Y-87875000D01*
G75*
G02*
X143470000Y-88025000I-150000J0D01*
G01*
G37*
%TD*%
%TO.C,C13*%
G36*
G01*
X143887500Y-98656250D02*
X143887500Y-98143750D01*
G75*
G02*
X144106250Y-97925000I218750J0D01*
G01*
X144543750Y-97925000D01*
G75*
G02*
X144762500Y-98143750I0J-218750D01*
G01*
X144762500Y-98656250D01*
G75*
G02*
X144543750Y-98875000I-218750J0D01*
G01*
X144106250Y-98875000D01*
G75*
G02*
X143887500Y-98656250I0J218750D01*
G01*
G37*
G36*
G01*
X142312500Y-98656250D02*
X142312500Y-98143750D01*
G75*
G02*
X142531250Y-97925000I218750J0D01*
G01*
X142968750Y-97925000D01*
G75*
G02*
X143187500Y-98143750I0J-218750D01*
G01*
X143187500Y-98656250D01*
G75*
G02*
X142968750Y-98875000I-218750J0D01*
G01*
X142531250Y-98875000D01*
G75*
G02*
X142312500Y-98656250I0J218750D01*
G01*
G37*
%TD*%
%TO.C,C1*%
G36*
G01*
X150468750Y-103425000D02*
X150981250Y-103425000D01*
G75*
G02*
X151200000Y-103643750I0J-218750D01*
G01*
X151200000Y-104081250D01*
G75*
G02*
X150981250Y-104300000I-218750J0D01*
G01*
X150468750Y-104300000D01*
G75*
G02*
X150250000Y-104081250I0J218750D01*
G01*
X150250000Y-103643750D01*
G75*
G02*
X150468750Y-103425000I218750J0D01*
G01*
G37*
G36*
G01*
X150468750Y-101850000D02*
X150981250Y-101850000D01*
G75*
G02*
X151200000Y-102068750I0J-218750D01*
G01*
X151200000Y-102506250D01*
G75*
G02*
X150981250Y-102725000I-218750J0D01*
G01*
X150468750Y-102725000D01*
G75*
G02*
X150250000Y-102506250I0J218750D01*
G01*
X150250000Y-102068750D01*
G75*
G02*
X150468750Y-101850000I218750J0D01*
G01*
G37*
%TD*%
%TO.C,C2*%
G36*
G01*
X141075000Y-100231250D02*
X141075000Y-99718750D01*
G75*
G02*
X141293750Y-99500000I218750J0D01*
G01*
X141731250Y-99500000D01*
G75*
G02*
X141950000Y-99718750I0J-218750D01*
G01*
X141950000Y-100231250D01*
G75*
G02*
X141731250Y-100450000I-218750J0D01*
G01*
X141293750Y-100450000D01*
G75*
G02*
X141075000Y-100231250I0J218750D01*
G01*
G37*
G36*
G01*
X142650000Y-100231250D02*
X142650000Y-99718750D01*
G75*
G02*
X142868750Y-99500000I218750J0D01*
G01*
X143306250Y-99500000D01*
G75*
G02*
X143525000Y-99718750I0J-218750D01*
G01*
X143525000Y-100231250D01*
G75*
G02*
X143306250Y-100450000I-218750J0D01*
G01*
X142868750Y-100450000D01*
G75*
G02*
X142650000Y-100231250I0J218750D01*
G01*
G37*
%TD*%
%TO.C,C3*%
G36*
G01*
X139556250Y-102062500D02*
X139043750Y-102062500D01*
G75*
G02*
X138825000Y-101843750I0J218750D01*
G01*
X138825000Y-101406250D01*
G75*
G02*
X139043750Y-101187500I218750J0D01*
G01*
X139556250Y-101187500D01*
G75*
G02*
X139775000Y-101406250I0J-218750D01*
G01*
X139775000Y-101843750D01*
G75*
G02*
X139556250Y-102062500I-218750J0D01*
G01*
G37*
G36*
G01*
X139556250Y-103637500D02*
X139043750Y-103637500D01*
G75*
G02*
X138825000Y-103418750I0J218750D01*
G01*
X138825000Y-102981250D01*
G75*
G02*
X139043750Y-102762500I218750J0D01*
G01*
X139556250Y-102762500D01*
G75*
G02*
X139775000Y-102981250I0J-218750D01*
G01*
X139775000Y-103418750D01*
G75*
G02*
X139556250Y-103637500I-218750J0D01*
G01*
G37*
%TD*%
%TO.C,C4*%
G36*
G01*
X139381250Y-108550000D02*
X138868750Y-108550000D01*
G75*
G02*
X138650000Y-108331250I0J218750D01*
G01*
X138650000Y-107893750D01*
G75*
G02*
X138868750Y-107675000I218750J0D01*
G01*
X139381250Y-107675000D01*
G75*
G02*
X139600000Y-107893750I0J-218750D01*
G01*
X139600000Y-108331250D01*
G75*
G02*
X139381250Y-108550000I-218750J0D01*
G01*
G37*
G36*
G01*
X139381250Y-106975000D02*
X138868750Y-106975000D01*
G75*
G02*
X138650000Y-106756250I0J218750D01*
G01*
X138650000Y-106318750D01*
G75*
G02*
X138868750Y-106100000I218750J0D01*
G01*
X139381250Y-106100000D01*
G75*
G02*
X139600000Y-106318750I0J-218750D01*
G01*
X139600000Y-106756250D01*
G75*
G02*
X139381250Y-106975000I-218750J0D01*
G01*
G37*
%TD*%
%TO.C,C5*%
G36*
G01*
X147687500Y-111493750D02*
X147687500Y-112006250D01*
G75*
G02*
X147468750Y-112225000I-218750J0D01*
G01*
X147031250Y-112225000D01*
G75*
G02*
X146812500Y-112006250I0J218750D01*
G01*
X146812500Y-111493750D01*
G75*
G02*
X147031250Y-111275000I218750J0D01*
G01*
X147468750Y-111275000D01*
G75*
G02*
X147687500Y-111493750I0J-218750D01*
G01*
G37*
G36*
G01*
X149262500Y-111493750D02*
X149262500Y-112006250D01*
G75*
G02*
X149043750Y-112225000I-218750J0D01*
G01*
X148606250Y-112225000D01*
G75*
G02*
X148387500Y-112006250I0J218750D01*
G01*
X148387500Y-111493750D01*
G75*
G02*
X148606250Y-111275000I218750J0D01*
G01*
X149043750Y-111275000D01*
G75*
G02*
X149262500Y-111493750I0J-218750D01*
G01*
G37*
%TD*%
%TO.C,C6*%
G36*
G01*
X139637500Y-86543750D02*
X139637500Y-87056250D01*
G75*
G02*
X139418750Y-87275000I-218750J0D01*
G01*
X138981250Y-87275000D01*
G75*
G02*
X138762500Y-87056250I0J218750D01*
G01*
X138762500Y-86543750D01*
G75*
G02*
X138981250Y-86325000I218750J0D01*
G01*
X139418750Y-86325000D01*
G75*
G02*
X139637500Y-86543750I0J-218750D01*
G01*
G37*
G36*
G01*
X138062500Y-86543750D02*
X138062500Y-87056250D01*
G75*
G02*
X137843750Y-87275000I-218750J0D01*
G01*
X137406250Y-87275000D01*
G75*
G02*
X137187500Y-87056250I0J218750D01*
G01*
X137187500Y-86543750D01*
G75*
G02*
X137406250Y-86325000I218750J0D01*
G01*
X137843750Y-86325000D01*
G75*
G02*
X138062500Y-86543750I0J-218750D01*
G01*
G37*
%TD*%
%TO.C,C7*%
G36*
G01*
X139712500Y-84368750D02*
X139712500Y-85281250D01*
G75*
G02*
X139468750Y-85525000I-243750J0D01*
G01*
X138981250Y-85525000D01*
G75*
G02*
X138737500Y-85281250I0J243750D01*
G01*
X138737500Y-84368750D01*
G75*
G02*
X138981250Y-84125000I243750J0D01*
G01*
X139468750Y-84125000D01*
G75*
G02*
X139712500Y-84368750I0J-243750D01*
G01*
G37*
G36*
G01*
X137837500Y-84368750D02*
X137837500Y-85281250D01*
G75*
G02*
X137593750Y-85525000I-243750J0D01*
G01*
X137106250Y-85525000D01*
G75*
G02*
X136862500Y-85281250I0J243750D01*
G01*
X136862500Y-84368750D01*
G75*
G02*
X137106250Y-84125000I243750J0D01*
G01*
X137593750Y-84125000D01*
G75*
G02*
X137837500Y-84368750I0J-243750D01*
G01*
G37*
%TD*%
%TO.C,C8*%
G36*
G01*
X131837500Y-99106250D02*
X131837500Y-98193750D01*
G75*
G02*
X132081250Y-97950000I243750J0D01*
G01*
X132568750Y-97950000D01*
G75*
G02*
X132812500Y-98193750I0J-243750D01*
G01*
X132812500Y-99106250D01*
G75*
G02*
X132568750Y-99350000I-243750J0D01*
G01*
X132081250Y-99350000D01*
G75*
G02*
X131837500Y-99106250I0J243750D01*
G01*
G37*
G36*
G01*
X129962500Y-99106250D02*
X129962500Y-98193750D01*
G75*
G02*
X130206250Y-97950000I243750J0D01*
G01*
X130693750Y-97950000D01*
G75*
G02*
X130937500Y-98193750I0J-243750D01*
G01*
X130937500Y-99106250D01*
G75*
G02*
X130693750Y-99350000I-243750J0D01*
G01*
X130206250Y-99350000D01*
G75*
G02*
X129962500Y-99106250I0J243750D01*
G01*
G37*
%TD*%
%TO.C,C9*%
G36*
G01*
X131575000Y-96731250D02*
X131575000Y-96218750D01*
G75*
G02*
X131793750Y-96000000I218750J0D01*
G01*
X132231250Y-96000000D01*
G75*
G02*
X132450000Y-96218750I0J-218750D01*
G01*
X132450000Y-96731250D01*
G75*
G02*
X132231250Y-96950000I-218750J0D01*
G01*
X131793750Y-96950000D01*
G75*
G02*
X131575000Y-96731250I0J218750D01*
G01*
G37*
G36*
G01*
X130000000Y-96731250D02*
X130000000Y-96218750D01*
G75*
G02*
X130218750Y-96000000I218750J0D01*
G01*
X130656250Y-96000000D01*
G75*
G02*
X130875000Y-96218750I0J-218750D01*
G01*
X130875000Y-96731250D01*
G75*
G02*
X130656250Y-96950000I-218750J0D01*
G01*
X130218750Y-96950000D01*
G75*
G02*
X130000000Y-96731250I0J218750D01*
G01*
G37*
%TD*%
%TO.C,C10*%
G36*
G01*
X161812500Y-96818750D02*
X161812500Y-97331250D01*
G75*
G02*
X161593750Y-97550000I-218750J0D01*
G01*
X161156250Y-97550000D01*
G75*
G02*
X160937500Y-97331250I0J218750D01*
G01*
X160937500Y-96818750D01*
G75*
G02*
X161156250Y-96600000I218750J0D01*
G01*
X161593750Y-96600000D01*
G75*
G02*
X161812500Y-96818750I0J-218750D01*
G01*
G37*
G36*
G01*
X160237500Y-96818750D02*
X160237500Y-97331250D01*
G75*
G02*
X160018750Y-97550000I-218750J0D01*
G01*
X159581250Y-97550000D01*
G75*
G02*
X159362500Y-97331250I0J218750D01*
G01*
X159362500Y-96818750D01*
G75*
G02*
X159581250Y-96600000I218750J0D01*
G01*
X160018750Y-96600000D01*
G75*
G02*
X160237500Y-96818750I0J-218750D01*
G01*
G37*
%TD*%
%TO.C,C12*%
G36*
G01*
X148293750Y-81500000D02*
X148806250Y-81500000D01*
G75*
G02*
X149025000Y-81718750I0J-218750D01*
G01*
X149025000Y-82156250D01*
G75*
G02*
X148806250Y-82375000I-218750J0D01*
G01*
X148293750Y-82375000D01*
G75*
G02*
X148075000Y-82156250I0J218750D01*
G01*
X148075000Y-81718750D01*
G75*
G02*
X148293750Y-81500000I218750J0D01*
G01*
G37*
G36*
G01*
X148293750Y-83075000D02*
X148806250Y-83075000D01*
G75*
G02*
X149025000Y-83293750I0J-218750D01*
G01*
X149025000Y-83731250D01*
G75*
G02*
X148806250Y-83950000I-218750J0D01*
G01*
X148293750Y-83950000D01*
G75*
G02*
X148075000Y-83731250I0J218750D01*
G01*
X148075000Y-83293750D01*
G75*
G02*
X148293750Y-83075000I218750J0D01*
G01*
G37*
%TD*%
%TO.C,C14*%
G36*
G01*
X148556250Y-95112500D02*
X148043750Y-95112500D01*
G75*
G02*
X147825000Y-94893750I0J218750D01*
G01*
X147825000Y-94456250D01*
G75*
G02*
X148043750Y-94237500I218750J0D01*
G01*
X148556250Y-94237500D01*
G75*
G02*
X148775000Y-94456250I0J-218750D01*
G01*
X148775000Y-94893750D01*
G75*
G02*
X148556250Y-95112500I-218750J0D01*
G01*
G37*
G36*
G01*
X148556250Y-96687500D02*
X148043750Y-96687500D01*
G75*
G02*
X147825000Y-96468750I0J218750D01*
G01*
X147825000Y-96031250D01*
G75*
G02*
X148043750Y-95812500I218750J0D01*
G01*
X148556250Y-95812500D01*
G75*
G02*
X148775000Y-96031250I0J-218750D01*
G01*
X148775000Y-96468750D01*
G75*
G02*
X148556250Y-96687500I-218750J0D01*
G01*
G37*
%TD*%
%TO.C,C15*%
G36*
G01*
X145225000Y-98681250D02*
X145225000Y-98168750D01*
G75*
G02*
X145443750Y-97950000I218750J0D01*
G01*
X145881250Y-97950000D01*
G75*
G02*
X146100000Y-98168750I0J-218750D01*
G01*
X146100000Y-98681250D01*
G75*
G02*
X145881250Y-98900000I-218750J0D01*
G01*
X145443750Y-98900000D01*
G75*
G02*
X145225000Y-98681250I0J218750D01*
G01*
G37*
G36*
G01*
X146800000Y-98681250D02*
X146800000Y-98168750D01*
G75*
G02*
X147018750Y-97950000I218750J0D01*
G01*
X147456250Y-97950000D01*
G75*
G02*
X147675000Y-98168750I0J-218750D01*
G01*
X147675000Y-98681250D01*
G75*
G02*
X147456250Y-98900000I-218750J0D01*
G01*
X147018750Y-98900000D01*
G75*
G02*
X146800000Y-98681250I0J218750D01*
G01*
G37*
%TD*%
%TO.C,C16*%
G36*
G01*
X146887500Y-91956250D02*
X146887500Y-91443750D01*
G75*
G02*
X147106250Y-91225000I218750J0D01*
G01*
X147543750Y-91225000D01*
G75*
G02*
X147762500Y-91443750I0J-218750D01*
G01*
X147762500Y-91956250D01*
G75*
G02*
X147543750Y-92175000I-218750J0D01*
G01*
X147106250Y-92175000D01*
G75*
G02*
X146887500Y-91956250I0J218750D01*
G01*
G37*
G36*
G01*
X145312500Y-91956250D02*
X145312500Y-91443750D01*
G75*
G02*
X145531250Y-91225000I218750J0D01*
G01*
X145968750Y-91225000D01*
G75*
G02*
X146187500Y-91443750I0J-218750D01*
G01*
X146187500Y-91956250D01*
G75*
G02*
X145968750Y-92175000I-218750J0D01*
G01*
X145531250Y-92175000D01*
G75*
G02*
X145312500Y-91956250I0J218750D01*
G01*
G37*
%TD*%
%TO.C,C18*%
G36*
G01*
X154575000Y-87981250D02*
X154575000Y-87468750D01*
G75*
G02*
X154793750Y-87250000I218750J0D01*
G01*
X155231250Y-87250000D01*
G75*
G02*
X155450000Y-87468750I0J-218750D01*
G01*
X155450000Y-87981250D01*
G75*
G02*
X155231250Y-88200000I-218750J0D01*
G01*
X154793750Y-88200000D01*
G75*
G02*
X154575000Y-87981250I0J218750D01*
G01*
G37*
G36*
G01*
X156150000Y-87981250D02*
X156150000Y-87468750D01*
G75*
G02*
X156368750Y-87250000I218750J0D01*
G01*
X156806250Y-87250000D01*
G75*
G02*
X157025000Y-87468750I0J-218750D01*
G01*
X157025000Y-87981250D01*
G75*
G02*
X156806250Y-88200000I-218750J0D01*
G01*
X156368750Y-88200000D01*
G75*
G02*
X156150000Y-87981250I0J218750D01*
G01*
G37*
%TD*%
%TO.C,C19*%
G36*
G01*
X136437500Y-106693750D02*
X136437500Y-107206250D01*
G75*
G02*
X136218750Y-107425000I-218750J0D01*
G01*
X135781250Y-107425000D01*
G75*
G02*
X135562500Y-107206250I0J218750D01*
G01*
X135562500Y-106693750D01*
G75*
G02*
X135781250Y-106475000I218750J0D01*
G01*
X136218750Y-106475000D01*
G75*
G02*
X136437500Y-106693750I0J-218750D01*
G01*
G37*
G36*
G01*
X134862500Y-106693750D02*
X134862500Y-107206250D01*
G75*
G02*
X134643750Y-107425000I-218750J0D01*
G01*
X134206250Y-107425000D01*
G75*
G02*
X133987500Y-107206250I0J218750D01*
G01*
X133987500Y-106693750D01*
G75*
G02*
X134206250Y-106475000I218750J0D01*
G01*
X134643750Y-106475000D01*
G75*
G02*
X134862500Y-106693750I0J-218750D01*
G01*
G37*
%TD*%
%TO.C,R1*%
G36*
G01*
X143037500Y-90406250D02*
X143037500Y-89893750D01*
G75*
G02*
X143256250Y-89675000I218750J0D01*
G01*
X143693750Y-89675000D01*
G75*
G02*
X143912500Y-89893750I0J-218750D01*
G01*
X143912500Y-90406250D01*
G75*
G02*
X143693750Y-90625000I-218750J0D01*
G01*
X143256250Y-90625000D01*
G75*
G02*
X143037500Y-90406250I0J218750D01*
G01*
G37*
G36*
G01*
X141462500Y-90406250D02*
X141462500Y-89893750D01*
G75*
G02*
X141681250Y-89675000I218750J0D01*
G01*
X142118750Y-89675000D01*
G75*
G02*
X142337500Y-89893750I0J-218750D01*
G01*
X142337500Y-90406250D01*
G75*
G02*
X142118750Y-90625000I-218750J0D01*
G01*
X141681250Y-90625000D01*
G75*
G02*
X141462500Y-90406250I0J218750D01*
G01*
G37*
%TD*%
%TO.C,R2*%
G36*
G01*
X142237500Y-91831250D02*
X142237500Y-91318750D01*
G75*
G02*
X142456250Y-91100000I218750J0D01*
G01*
X142893750Y-91100000D01*
G75*
G02*
X143112500Y-91318750I0J-218750D01*
G01*
X143112500Y-91831250D01*
G75*
G02*
X142893750Y-92050000I-218750J0D01*
G01*
X142456250Y-92050000D01*
G75*
G02*
X142237500Y-91831250I0J218750D01*
G01*
G37*
G36*
G01*
X143812500Y-91831250D02*
X143812500Y-91318750D01*
G75*
G02*
X144031250Y-91100000I218750J0D01*
G01*
X144468750Y-91100000D01*
G75*
G02*
X144687500Y-91318750I0J-218750D01*
G01*
X144687500Y-91831250D01*
G75*
G02*
X144468750Y-92050000I-218750J0D01*
G01*
X144031250Y-92050000D01*
G75*
G02*
X143812500Y-91831250I0J218750D01*
G01*
G37*
%TD*%
%TO.C,R4*%
G36*
G01*
X142975000Y-80043750D02*
X142975000Y-80556250D01*
G75*
G02*
X142756250Y-80775000I-218750J0D01*
G01*
X142318750Y-80775000D01*
G75*
G02*
X142100000Y-80556250I0J218750D01*
G01*
X142100000Y-80043750D01*
G75*
G02*
X142318750Y-79825000I218750J0D01*
G01*
X142756250Y-79825000D01*
G75*
G02*
X142975000Y-80043750I0J-218750D01*
G01*
G37*
G36*
G01*
X144550000Y-80043750D02*
X144550000Y-80556250D01*
G75*
G02*
X144331250Y-80775000I-218750J0D01*
G01*
X143893750Y-80775000D01*
G75*
G02*
X143675000Y-80556250I0J218750D01*
G01*
X143675000Y-80043750D01*
G75*
G02*
X143893750Y-79825000I218750J0D01*
G01*
X144331250Y-79825000D01*
G75*
G02*
X144550000Y-80043750I0J-218750D01*
G01*
G37*
%TD*%
%TO.C,R5*%
G36*
G01*
X152206250Y-101275000D02*
X151693750Y-101275000D01*
G75*
G02*
X151475000Y-101056250I0J218750D01*
G01*
X151475000Y-100618750D01*
G75*
G02*
X151693750Y-100400000I218750J0D01*
G01*
X152206250Y-100400000D01*
G75*
G02*
X152425000Y-100618750I0J-218750D01*
G01*
X152425000Y-101056250D01*
G75*
G02*
X152206250Y-101275000I-218750J0D01*
G01*
G37*
G36*
G01*
X152206250Y-99700000D02*
X151693750Y-99700000D01*
G75*
G02*
X151475000Y-99481250I0J218750D01*
G01*
X151475000Y-99043750D01*
G75*
G02*
X151693750Y-98825000I218750J0D01*
G01*
X152206250Y-98825000D01*
G75*
G02*
X152425000Y-99043750I0J-218750D01*
G01*
X152425000Y-99481250D01*
G75*
G02*
X152206250Y-99700000I-218750J0D01*
G01*
G37*
%TD*%
D11*
%TO.C,U1*%
X130925000Y-91875000D03*
D12*
X137225000Y-91875000D03*
X137225000Y-89575000D03*
X137225000Y-94175000D03*
%TD*%
%TO.C,U2*%
G36*
G01*
X140100000Y-103275000D02*
X140100000Y-103125000D01*
G75*
G02*
X140175000Y-103050000I75000J0D01*
G01*
X141500000Y-103050000D01*
G75*
G02*
X141575000Y-103125000I0J-75000D01*
G01*
X141575000Y-103275000D01*
G75*
G02*
X141500000Y-103350000I-75000J0D01*
G01*
X140175000Y-103350000D01*
G75*
G02*
X140100000Y-103275000I0J75000D01*
G01*
G37*
G36*
G01*
X140100000Y-103775000D02*
X140100000Y-103625000D01*
G75*
G02*
X140175000Y-103550000I75000J0D01*
G01*
X141500000Y-103550000D01*
G75*
G02*
X141575000Y-103625000I0J-75000D01*
G01*
X141575000Y-103775000D01*
G75*
G02*
X141500000Y-103850000I-75000J0D01*
G01*
X140175000Y-103850000D01*
G75*
G02*
X140100000Y-103775000I0J75000D01*
G01*
G37*
G36*
G01*
X140100000Y-104275000D02*
X140100000Y-104125000D01*
G75*
G02*
X140175000Y-104050000I75000J0D01*
G01*
X141500000Y-104050000D01*
G75*
G02*
X141575000Y-104125000I0J-75000D01*
G01*
X141575000Y-104275000D01*
G75*
G02*
X141500000Y-104350000I-75000J0D01*
G01*
X140175000Y-104350000D01*
G75*
G02*
X140100000Y-104275000I0J75000D01*
G01*
G37*
G36*
G01*
X140100000Y-104775000D02*
X140100000Y-104625000D01*
G75*
G02*
X140175000Y-104550000I75000J0D01*
G01*
X141500000Y-104550000D01*
G75*
G02*
X141575000Y-104625000I0J-75000D01*
G01*
X141575000Y-104775000D01*
G75*
G02*
X141500000Y-104850000I-75000J0D01*
G01*
X140175000Y-104850000D01*
G75*
G02*
X140100000Y-104775000I0J75000D01*
G01*
G37*
G36*
G01*
X140100000Y-105275000D02*
X140100000Y-105125000D01*
G75*
G02*
X140175000Y-105050000I75000J0D01*
G01*
X141500000Y-105050000D01*
G75*
G02*
X141575000Y-105125000I0J-75000D01*
G01*
X141575000Y-105275000D01*
G75*
G02*
X141500000Y-105350000I-75000J0D01*
G01*
X140175000Y-105350000D01*
G75*
G02*
X140100000Y-105275000I0J75000D01*
G01*
G37*
G36*
G01*
X140100000Y-105775000D02*
X140100000Y-105625000D01*
G75*
G02*
X140175000Y-105550000I75000J0D01*
G01*
X141500000Y-105550000D01*
G75*
G02*
X141575000Y-105625000I0J-75000D01*
G01*
X141575000Y-105775000D01*
G75*
G02*
X141500000Y-105850000I-75000J0D01*
G01*
X140175000Y-105850000D01*
G75*
G02*
X140100000Y-105775000I0J75000D01*
G01*
G37*
G36*
G01*
X140100000Y-106275000D02*
X140100000Y-106125000D01*
G75*
G02*
X140175000Y-106050000I75000J0D01*
G01*
X141500000Y-106050000D01*
G75*
G02*
X141575000Y-106125000I0J-75000D01*
G01*
X141575000Y-106275000D01*
G75*
G02*
X141500000Y-106350000I-75000J0D01*
G01*
X140175000Y-106350000D01*
G75*
G02*
X140100000Y-106275000I0J75000D01*
G01*
G37*
G36*
G01*
X140100000Y-106775000D02*
X140100000Y-106625000D01*
G75*
G02*
X140175000Y-106550000I75000J0D01*
G01*
X141500000Y-106550000D01*
G75*
G02*
X141575000Y-106625000I0J-75000D01*
G01*
X141575000Y-106775000D01*
G75*
G02*
X141500000Y-106850000I-75000J0D01*
G01*
X140175000Y-106850000D01*
G75*
G02*
X140100000Y-106775000I0J75000D01*
G01*
G37*
G36*
G01*
X140100000Y-107275000D02*
X140100000Y-107125000D01*
G75*
G02*
X140175000Y-107050000I75000J0D01*
G01*
X141500000Y-107050000D01*
G75*
G02*
X141575000Y-107125000I0J-75000D01*
G01*
X141575000Y-107275000D01*
G75*
G02*
X141500000Y-107350000I-75000J0D01*
G01*
X140175000Y-107350000D01*
G75*
G02*
X140100000Y-107275000I0J75000D01*
G01*
G37*
G36*
G01*
X140100000Y-107775000D02*
X140100000Y-107625000D01*
G75*
G02*
X140175000Y-107550000I75000J0D01*
G01*
X141500000Y-107550000D01*
G75*
G02*
X141575000Y-107625000I0J-75000D01*
G01*
X141575000Y-107775000D01*
G75*
G02*
X141500000Y-107850000I-75000J0D01*
G01*
X140175000Y-107850000D01*
G75*
G02*
X140100000Y-107775000I0J75000D01*
G01*
G37*
G36*
G01*
X140100000Y-108275000D02*
X140100000Y-108125000D01*
G75*
G02*
X140175000Y-108050000I75000J0D01*
G01*
X141500000Y-108050000D01*
G75*
G02*
X141575000Y-108125000I0J-75000D01*
G01*
X141575000Y-108275000D01*
G75*
G02*
X141500000Y-108350000I-75000J0D01*
G01*
X140175000Y-108350000D01*
G75*
G02*
X140100000Y-108275000I0J75000D01*
G01*
G37*
G36*
G01*
X140100000Y-108775000D02*
X140100000Y-108625000D01*
G75*
G02*
X140175000Y-108550000I75000J0D01*
G01*
X141500000Y-108550000D01*
G75*
G02*
X141575000Y-108625000I0J-75000D01*
G01*
X141575000Y-108775000D01*
G75*
G02*
X141500000Y-108850000I-75000J0D01*
G01*
X140175000Y-108850000D01*
G75*
G02*
X140100000Y-108775000I0J75000D01*
G01*
G37*
G36*
G01*
X142100000Y-110775000D02*
X142100000Y-109450000D01*
G75*
G02*
X142175000Y-109375000I75000J0D01*
G01*
X142325000Y-109375000D01*
G75*
G02*
X142400000Y-109450000I0J-75000D01*
G01*
X142400000Y-110775000D01*
G75*
G02*
X142325000Y-110850000I-75000J0D01*
G01*
X142175000Y-110850000D01*
G75*
G02*
X142100000Y-110775000I0J75000D01*
G01*
G37*
G36*
G01*
X142600000Y-110775000D02*
X142600000Y-109450000D01*
G75*
G02*
X142675000Y-109375000I75000J0D01*
G01*
X142825000Y-109375000D01*
G75*
G02*
X142900000Y-109450000I0J-75000D01*
G01*
X142900000Y-110775000D01*
G75*
G02*
X142825000Y-110850000I-75000J0D01*
G01*
X142675000Y-110850000D01*
G75*
G02*
X142600000Y-110775000I0J75000D01*
G01*
G37*
G36*
G01*
X143100000Y-110775000D02*
X143100000Y-109450000D01*
G75*
G02*
X143175000Y-109375000I75000J0D01*
G01*
X143325000Y-109375000D01*
G75*
G02*
X143400000Y-109450000I0J-75000D01*
G01*
X143400000Y-110775000D01*
G75*
G02*
X143325000Y-110850000I-75000J0D01*
G01*
X143175000Y-110850000D01*
G75*
G02*
X143100000Y-110775000I0J75000D01*
G01*
G37*
G36*
G01*
X143600000Y-110775000D02*
X143600000Y-109450000D01*
G75*
G02*
X143675000Y-109375000I75000J0D01*
G01*
X143825000Y-109375000D01*
G75*
G02*
X143900000Y-109450000I0J-75000D01*
G01*
X143900000Y-110775000D01*
G75*
G02*
X143825000Y-110850000I-75000J0D01*
G01*
X143675000Y-110850000D01*
G75*
G02*
X143600000Y-110775000I0J75000D01*
G01*
G37*
G36*
G01*
X144100000Y-110775000D02*
X144100000Y-109450000D01*
G75*
G02*
X144175000Y-109375000I75000J0D01*
G01*
X144325000Y-109375000D01*
G75*
G02*
X144400000Y-109450000I0J-75000D01*
G01*
X144400000Y-110775000D01*
G75*
G02*
X144325000Y-110850000I-75000J0D01*
G01*
X144175000Y-110850000D01*
G75*
G02*
X144100000Y-110775000I0J75000D01*
G01*
G37*
G36*
G01*
X144600000Y-110775000D02*
X144600000Y-109450000D01*
G75*
G02*
X144675000Y-109375000I75000J0D01*
G01*
X144825000Y-109375000D01*
G75*
G02*
X144900000Y-109450000I0J-75000D01*
G01*
X144900000Y-110775000D01*
G75*
G02*
X144825000Y-110850000I-75000J0D01*
G01*
X144675000Y-110850000D01*
G75*
G02*
X144600000Y-110775000I0J75000D01*
G01*
G37*
G36*
G01*
X145100000Y-110775000D02*
X145100000Y-109450000D01*
G75*
G02*
X145175000Y-109375000I75000J0D01*
G01*
X145325000Y-109375000D01*
G75*
G02*
X145400000Y-109450000I0J-75000D01*
G01*
X145400000Y-110775000D01*
G75*
G02*
X145325000Y-110850000I-75000J0D01*
G01*
X145175000Y-110850000D01*
G75*
G02*
X145100000Y-110775000I0J75000D01*
G01*
G37*
G36*
G01*
X145600000Y-110775000D02*
X145600000Y-109450000D01*
G75*
G02*
X145675000Y-109375000I75000J0D01*
G01*
X145825000Y-109375000D01*
G75*
G02*
X145900000Y-109450000I0J-75000D01*
G01*
X145900000Y-110775000D01*
G75*
G02*
X145825000Y-110850000I-75000J0D01*
G01*
X145675000Y-110850000D01*
G75*
G02*
X145600000Y-110775000I0J75000D01*
G01*
G37*
G36*
G01*
X146100000Y-110775000D02*
X146100000Y-109450000D01*
G75*
G02*
X146175000Y-109375000I75000J0D01*
G01*
X146325000Y-109375000D01*
G75*
G02*
X146400000Y-109450000I0J-75000D01*
G01*
X146400000Y-110775000D01*
G75*
G02*
X146325000Y-110850000I-75000J0D01*
G01*
X146175000Y-110850000D01*
G75*
G02*
X146100000Y-110775000I0J75000D01*
G01*
G37*
G36*
G01*
X146600000Y-110775000D02*
X146600000Y-109450000D01*
G75*
G02*
X146675000Y-109375000I75000J0D01*
G01*
X146825000Y-109375000D01*
G75*
G02*
X146900000Y-109450000I0J-75000D01*
G01*
X146900000Y-110775000D01*
G75*
G02*
X146825000Y-110850000I-75000J0D01*
G01*
X146675000Y-110850000D01*
G75*
G02*
X146600000Y-110775000I0J75000D01*
G01*
G37*
G36*
G01*
X147100000Y-110775000D02*
X147100000Y-109450000D01*
G75*
G02*
X147175000Y-109375000I75000J0D01*
G01*
X147325000Y-109375000D01*
G75*
G02*
X147400000Y-109450000I0J-75000D01*
G01*
X147400000Y-110775000D01*
G75*
G02*
X147325000Y-110850000I-75000J0D01*
G01*
X147175000Y-110850000D01*
G75*
G02*
X147100000Y-110775000I0J75000D01*
G01*
G37*
G36*
G01*
X147600000Y-110775000D02*
X147600000Y-109450000D01*
G75*
G02*
X147675000Y-109375000I75000J0D01*
G01*
X147825000Y-109375000D01*
G75*
G02*
X147900000Y-109450000I0J-75000D01*
G01*
X147900000Y-110775000D01*
G75*
G02*
X147825000Y-110850000I-75000J0D01*
G01*
X147675000Y-110850000D01*
G75*
G02*
X147600000Y-110775000I0J75000D01*
G01*
G37*
G36*
G01*
X148425000Y-108775000D02*
X148425000Y-108625000D01*
G75*
G02*
X148500000Y-108550000I75000J0D01*
G01*
X149825000Y-108550000D01*
G75*
G02*
X149900000Y-108625000I0J-75000D01*
G01*
X149900000Y-108775000D01*
G75*
G02*
X149825000Y-108850000I-75000J0D01*
G01*
X148500000Y-108850000D01*
G75*
G02*
X148425000Y-108775000I0J75000D01*
G01*
G37*
G36*
G01*
X148425000Y-108275000D02*
X148425000Y-108125000D01*
G75*
G02*
X148500000Y-108050000I75000J0D01*
G01*
X149825000Y-108050000D01*
G75*
G02*
X149900000Y-108125000I0J-75000D01*
G01*
X149900000Y-108275000D01*
G75*
G02*
X149825000Y-108350000I-75000J0D01*
G01*
X148500000Y-108350000D01*
G75*
G02*
X148425000Y-108275000I0J75000D01*
G01*
G37*
G36*
G01*
X148425000Y-107775000D02*
X148425000Y-107625000D01*
G75*
G02*
X148500000Y-107550000I75000J0D01*
G01*
X149825000Y-107550000D01*
G75*
G02*
X149900000Y-107625000I0J-75000D01*
G01*
X149900000Y-107775000D01*
G75*
G02*
X149825000Y-107850000I-75000J0D01*
G01*
X148500000Y-107850000D01*
G75*
G02*
X148425000Y-107775000I0J75000D01*
G01*
G37*
G36*
G01*
X148425000Y-107275000D02*
X148425000Y-107125000D01*
G75*
G02*
X148500000Y-107050000I75000J0D01*
G01*
X149825000Y-107050000D01*
G75*
G02*
X149900000Y-107125000I0J-75000D01*
G01*
X149900000Y-107275000D01*
G75*
G02*
X149825000Y-107350000I-75000J0D01*
G01*
X148500000Y-107350000D01*
G75*
G02*
X148425000Y-107275000I0J75000D01*
G01*
G37*
G36*
G01*
X148425000Y-106775000D02*
X148425000Y-106625000D01*
G75*
G02*
X148500000Y-106550000I75000J0D01*
G01*
X149825000Y-106550000D01*
G75*
G02*
X149900000Y-106625000I0J-75000D01*
G01*
X149900000Y-106775000D01*
G75*
G02*
X149825000Y-106850000I-75000J0D01*
G01*
X148500000Y-106850000D01*
G75*
G02*
X148425000Y-106775000I0J75000D01*
G01*
G37*
G36*
G01*
X148425000Y-106275000D02*
X148425000Y-106125000D01*
G75*
G02*
X148500000Y-106050000I75000J0D01*
G01*
X149825000Y-106050000D01*
G75*
G02*
X149900000Y-106125000I0J-75000D01*
G01*
X149900000Y-106275000D01*
G75*
G02*
X149825000Y-106350000I-75000J0D01*
G01*
X148500000Y-106350000D01*
G75*
G02*
X148425000Y-106275000I0J75000D01*
G01*
G37*
G36*
G01*
X148425000Y-105775000D02*
X148425000Y-105625000D01*
G75*
G02*
X148500000Y-105550000I75000J0D01*
G01*
X149825000Y-105550000D01*
G75*
G02*
X149900000Y-105625000I0J-75000D01*
G01*
X149900000Y-105775000D01*
G75*
G02*
X149825000Y-105850000I-75000J0D01*
G01*
X148500000Y-105850000D01*
G75*
G02*
X148425000Y-105775000I0J75000D01*
G01*
G37*
G36*
G01*
X148425000Y-105275000D02*
X148425000Y-105125000D01*
G75*
G02*
X148500000Y-105050000I75000J0D01*
G01*
X149825000Y-105050000D01*
G75*
G02*
X149900000Y-105125000I0J-75000D01*
G01*
X149900000Y-105275000D01*
G75*
G02*
X149825000Y-105350000I-75000J0D01*
G01*
X148500000Y-105350000D01*
G75*
G02*
X148425000Y-105275000I0J75000D01*
G01*
G37*
G36*
G01*
X148425000Y-104775000D02*
X148425000Y-104625000D01*
G75*
G02*
X148500000Y-104550000I75000J0D01*
G01*
X149825000Y-104550000D01*
G75*
G02*
X149900000Y-104625000I0J-75000D01*
G01*
X149900000Y-104775000D01*
G75*
G02*
X149825000Y-104850000I-75000J0D01*
G01*
X148500000Y-104850000D01*
G75*
G02*
X148425000Y-104775000I0J75000D01*
G01*
G37*
G36*
G01*
X148425000Y-104275000D02*
X148425000Y-104125000D01*
G75*
G02*
X148500000Y-104050000I75000J0D01*
G01*
X149825000Y-104050000D01*
G75*
G02*
X149900000Y-104125000I0J-75000D01*
G01*
X149900000Y-104275000D01*
G75*
G02*
X149825000Y-104350000I-75000J0D01*
G01*
X148500000Y-104350000D01*
G75*
G02*
X148425000Y-104275000I0J75000D01*
G01*
G37*
G36*
G01*
X148425000Y-103775000D02*
X148425000Y-103625000D01*
G75*
G02*
X148500000Y-103550000I75000J0D01*
G01*
X149825000Y-103550000D01*
G75*
G02*
X149900000Y-103625000I0J-75000D01*
G01*
X149900000Y-103775000D01*
G75*
G02*
X149825000Y-103850000I-75000J0D01*
G01*
X148500000Y-103850000D01*
G75*
G02*
X148425000Y-103775000I0J75000D01*
G01*
G37*
G36*
G01*
X148425000Y-103275000D02*
X148425000Y-103125000D01*
G75*
G02*
X148500000Y-103050000I75000J0D01*
G01*
X149825000Y-103050000D01*
G75*
G02*
X149900000Y-103125000I0J-75000D01*
G01*
X149900000Y-103275000D01*
G75*
G02*
X149825000Y-103350000I-75000J0D01*
G01*
X148500000Y-103350000D01*
G75*
G02*
X148425000Y-103275000I0J75000D01*
G01*
G37*
G36*
G01*
X147600000Y-102450000D02*
X147600000Y-101125000D01*
G75*
G02*
X147675000Y-101050000I75000J0D01*
G01*
X147825000Y-101050000D01*
G75*
G02*
X147900000Y-101125000I0J-75000D01*
G01*
X147900000Y-102450000D01*
G75*
G02*
X147825000Y-102525000I-75000J0D01*
G01*
X147675000Y-102525000D01*
G75*
G02*
X147600000Y-102450000I0J75000D01*
G01*
G37*
G36*
G01*
X147100000Y-102450000D02*
X147100000Y-101125000D01*
G75*
G02*
X147175000Y-101050000I75000J0D01*
G01*
X147325000Y-101050000D01*
G75*
G02*
X147400000Y-101125000I0J-75000D01*
G01*
X147400000Y-102450000D01*
G75*
G02*
X147325000Y-102525000I-75000J0D01*
G01*
X147175000Y-102525000D01*
G75*
G02*
X147100000Y-102450000I0J75000D01*
G01*
G37*
G36*
G01*
X146600000Y-102450000D02*
X146600000Y-101125000D01*
G75*
G02*
X146675000Y-101050000I75000J0D01*
G01*
X146825000Y-101050000D01*
G75*
G02*
X146900000Y-101125000I0J-75000D01*
G01*
X146900000Y-102450000D01*
G75*
G02*
X146825000Y-102525000I-75000J0D01*
G01*
X146675000Y-102525000D01*
G75*
G02*
X146600000Y-102450000I0J75000D01*
G01*
G37*
G36*
G01*
X146100000Y-102450000D02*
X146100000Y-101125000D01*
G75*
G02*
X146175000Y-101050000I75000J0D01*
G01*
X146325000Y-101050000D01*
G75*
G02*
X146400000Y-101125000I0J-75000D01*
G01*
X146400000Y-102450000D01*
G75*
G02*
X146325000Y-102525000I-75000J0D01*
G01*
X146175000Y-102525000D01*
G75*
G02*
X146100000Y-102450000I0J75000D01*
G01*
G37*
G36*
G01*
X145600000Y-102450000D02*
X145600000Y-101125000D01*
G75*
G02*
X145675000Y-101050000I75000J0D01*
G01*
X145825000Y-101050000D01*
G75*
G02*
X145900000Y-101125000I0J-75000D01*
G01*
X145900000Y-102450000D01*
G75*
G02*
X145825000Y-102525000I-75000J0D01*
G01*
X145675000Y-102525000D01*
G75*
G02*
X145600000Y-102450000I0J75000D01*
G01*
G37*
G36*
G01*
X145100000Y-102450000D02*
X145100000Y-101125000D01*
G75*
G02*
X145175000Y-101050000I75000J0D01*
G01*
X145325000Y-101050000D01*
G75*
G02*
X145400000Y-101125000I0J-75000D01*
G01*
X145400000Y-102450000D01*
G75*
G02*
X145325000Y-102525000I-75000J0D01*
G01*
X145175000Y-102525000D01*
G75*
G02*
X145100000Y-102450000I0J75000D01*
G01*
G37*
G36*
G01*
X144600000Y-102450000D02*
X144600000Y-101125000D01*
G75*
G02*
X144675000Y-101050000I75000J0D01*
G01*
X144825000Y-101050000D01*
G75*
G02*
X144900000Y-101125000I0J-75000D01*
G01*
X144900000Y-102450000D01*
G75*
G02*
X144825000Y-102525000I-75000J0D01*
G01*
X144675000Y-102525000D01*
G75*
G02*
X144600000Y-102450000I0J75000D01*
G01*
G37*
G36*
G01*
X144100000Y-102450000D02*
X144100000Y-101125000D01*
G75*
G02*
X144175000Y-101050000I75000J0D01*
G01*
X144325000Y-101050000D01*
G75*
G02*
X144400000Y-101125000I0J-75000D01*
G01*
X144400000Y-102450000D01*
G75*
G02*
X144325000Y-102525000I-75000J0D01*
G01*
X144175000Y-102525000D01*
G75*
G02*
X144100000Y-102450000I0J75000D01*
G01*
G37*
G36*
G01*
X143600000Y-102450000D02*
X143600000Y-101125000D01*
G75*
G02*
X143675000Y-101050000I75000J0D01*
G01*
X143825000Y-101050000D01*
G75*
G02*
X143900000Y-101125000I0J-75000D01*
G01*
X143900000Y-102450000D01*
G75*
G02*
X143825000Y-102525000I-75000J0D01*
G01*
X143675000Y-102525000D01*
G75*
G02*
X143600000Y-102450000I0J75000D01*
G01*
G37*
G36*
G01*
X143100000Y-102450000D02*
X143100000Y-101125000D01*
G75*
G02*
X143175000Y-101050000I75000J0D01*
G01*
X143325000Y-101050000D01*
G75*
G02*
X143400000Y-101125000I0J-75000D01*
G01*
X143400000Y-102450000D01*
G75*
G02*
X143325000Y-102525000I-75000J0D01*
G01*
X143175000Y-102525000D01*
G75*
G02*
X143100000Y-102450000I0J75000D01*
G01*
G37*
G36*
G01*
X142600000Y-102450000D02*
X142600000Y-101125000D01*
G75*
G02*
X142675000Y-101050000I75000J0D01*
G01*
X142825000Y-101050000D01*
G75*
G02*
X142900000Y-101125000I0J-75000D01*
G01*
X142900000Y-102450000D01*
G75*
G02*
X142825000Y-102525000I-75000J0D01*
G01*
X142675000Y-102525000D01*
G75*
G02*
X142600000Y-102450000I0J75000D01*
G01*
G37*
G36*
G01*
X142100000Y-102450000D02*
X142100000Y-101125000D01*
G75*
G02*
X142175000Y-101050000I75000J0D01*
G01*
X142325000Y-101050000D01*
G75*
G02*
X142400000Y-101125000I0J-75000D01*
G01*
X142400000Y-102450000D01*
G75*
G02*
X142325000Y-102525000I-75000J0D01*
G01*
X142175000Y-102525000D01*
G75*
G02*
X142100000Y-102450000I0J75000D01*
G01*
G37*
%TD*%
%TO.C,U3*%
G36*
G01*
X142625000Y-93825000D02*
X142625000Y-93675000D01*
G75*
G02*
X142700000Y-93600000I75000J0D01*
G01*
X143400000Y-93600000D01*
G75*
G02*
X143475000Y-93675000I0J-75000D01*
G01*
X143475000Y-93825000D01*
G75*
G02*
X143400000Y-93900000I-75000J0D01*
G01*
X142700000Y-93900000D01*
G75*
G02*
X142625000Y-93825000I0J75000D01*
G01*
G37*
G36*
G01*
X142625000Y-94325000D02*
X142625000Y-94175000D01*
G75*
G02*
X142700000Y-94100000I75000J0D01*
G01*
X143400000Y-94100000D01*
G75*
G02*
X143475000Y-94175000I0J-75000D01*
G01*
X143475000Y-94325000D01*
G75*
G02*
X143400000Y-94400000I-75000J0D01*
G01*
X142700000Y-94400000D01*
G75*
G02*
X142625000Y-94325000I0J75000D01*
G01*
G37*
G36*
G01*
X142625000Y-94825000D02*
X142625000Y-94675000D01*
G75*
G02*
X142700000Y-94600000I75000J0D01*
G01*
X143400000Y-94600000D01*
G75*
G02*
X143475000Y-94675000I0J-75000D01*
G01*
X143475000Y-94825000D01*
G75*
G02*
X143400000Y-94900000I-75000J0D01*
G01*
X142700000Y-94900000D01*
G75*
G02*
X142625000Y-94825000I0J75000D01*
G01*
G37*
G36*
G01*
X142625000Y-95325000D02*
X142625000Y-95175000D01*
G75*
G02*
X142700000Y-95100000I75000J0D01*
G01*
X143400000Y-95100000D01*
G75*
G02*
X143475000Y-95175000I0J-75000D01*
G01*
X143475000Y-95325000D01*
G75*
G02*
X143400000Y-95400000I-75000J0D01*
G01*
X142700000Y-95400000D01*
G75*
G02*
X142625000Y-95325000I0J75000D01*
G01*
G37*
G36*
G01*
X142625000Y-95825000D02*
X142625000Y-95675000D01*
G75*
G02*
X142700000Y-95600000I75000J0D01*
G01*
X143400000Y-95600000D01*
G75*
G02*
X143475000Y-95675000I0J-75000D01*
G01*
X143475000Y-95825000D01*
G75*
G02*
X143400000Y-95900000I-75000J0D01*
G01*
X142700000Y-95900000D01*
G75*
G02*
X142625000Y-95825000I0J75000D01*
G01*
G37*
G36*
G01*
X142625000Y-96325000D02*
X142625000Y-96175000D01*
G75*
G02*
X142700000Y-96100000I75000J0D01*
G01*
X143400000Y-96100000D01*
G75*
G02*
X143475000Y-96175000I0J-75000D01*
G01*
X143475000Y-96325000D01*
G75*
G02*
X143400000Y-96400000I-75000J0D01*
G01*
X142700000Y-96400000D01*
G75*
G02*
X142625000Y-96325000I0J75000D01*
G01*
G37*
G36*
G01*
X143825000Y-97375000D02*
X143675000Y-97375000D01*
G75*
G02*
X143600000Y-97300000I0J75000D01*
G01*
X143600000Y-96600000D01*
G75*
G02*
X143675000Y-96525000I75000J0D01*
G01*
X143825000Y-96525000D01*
G75*
G02*
X143900000Y-96600000I0J-75000D01*
G01*
X143900000Y-97300000D01*
G75*
G02*
X143825000Y-97375000I-75000J0D01*
G01*
G37*
G36*
G01*
X144325000Y-97375000D02*
X144175000Y-97375000D01*
G75*
G02*
X144100000Y-97300000I0J75000D01*
G01*
X144100000Y-96600000D01*
G75*
G02*
X144175000Y-96525000I75000J0D01*
G01*
X144325000Y-96525000D01*
G75*
G02*
X144400000Y-96600000I0J-75000D01*
G01*
X144400000Y-97300000D01*
G75*
G02*
X144325000Y-97375000I-75000J0D01*
G01*
G37*
G36*
G01*
X144825000Y-97375000D02*
X144675000Y-97375000D01*
G75*
G02*
X144600000Y-97300000I0J75000D01*
G01*
X144600000Y-96600000D01*
G75*
G02*
X144675000Y-96525000I75000J0D01*
G01*
X144825000Y-96525000D01*
G75*
G02*
X144900000Y-96600000I0J-75000D01*
G01*
X144900000Y-97300000D01*
G75*
G02*
X144825000Y-97375000I-75000J0D01*
G01*
G37*
G36*
G01*
X145325000Y-97375000D02*
X145175000Y-97375000D01*
G75*
G02*
X145100000Y-97300000I0J75000D01*
G01*
X145100000Y-96600000D01*
G75*
G02*
X145175000Y-96525000I75000J0D01*
G01*
X145325000Y-96525000D01*
G75*
G02*
X145400000Y-96600000I0J-75000D01*
G01*
X145400000Y-97300000D01*
G75*
G02*
X145325000Y-97375000I-75000J0D01*
G01*
G37*
G36*
G01*
X145825000Y-97375000D02*
X145675000Y-97375000D01*
G75*
G02*
X145600000Y-97300000I0J75000D01*
G01*
X145600000Y-96600000D01*
G75*
G02*
X145675000Y-96525000I75000J0D01*
G01*
X145825000Y-96525000D01*
G75*
G02*
X145900000Y-96600000I0J-75000D01*
G01*
X145900000Y-97300000D01*
G75*
G02*
X145825000Y-97375000I-75000J0D01*
G01*
G37*
G36*
G01*
X146325000Y-97375000D02*
X146175000Y-97375000D01*
G75*
G02*
X146100000Y-97300000I0J75000D01*
G01*
X146100000Y-96600000D01*
G75*
G02*
X146175000Y-96525000I75000J0D01*
G01*
X146325000Y-96525000D01*
G75*
G02*
X146400000Y-96600000I0J-75000D01*
G01*
X146400000Y-97300000D01*
G75*
G02*
X146325000Y-97375000I-75000J0D01*
G01*
G37*
G36*
G01*
X146525000Y-96325000D02*
X146525000Y-96175000D01*
G75*
G02*
X146600000Y-96100000I75000J0D01*
G01*
X147300000Y-96100000D01*
G75*
G02*
X147375000Y-96175000I0J-75000D01*
G01*
X147375000Y-96325000D01*
G75*
G02*
X147300000Y-96400000I-75000J0D01*
G01*
X146600000Y-96400000D01*
G75*
G02*
X146525000Y-96325000I0J75000D01*
G01*
G37*
G36*
G01*
X146525000Y-95825000D02*
X146525000Y-95675000D01*
G75*
G02*
X146600000Y-95600000I75000J0D01*
G01*
X147300000Y-95600000D01*
G75*
G02*
X147375000Y-95675000I0J-75000D01*
G01*
X147375000Y-95825000D01*
G75*
G02*
X147300000Y-95900000I-75000J0D01*
G01*
X146600000Y-95900000D01*
G75*
G02*
X146525000Y-95825000I0J75000D01*
G01*
G37*
G36*
G01*
X146525000Y-95325000D02*
X146525000Y-95175000D01*
G75*
G02*
X146600000Y-95100000I75000J0D01*
G01*
X147300000Y-95100000D01*
G75*
G02*
X147375000Y-95175000I0J-75000D01*
G01*
X147375000Y-95325000D01*
G75*
G02*
X147300000Y-95400000I-75000J0D01*
G01*
X146600000Y-95400000D01*
G75*
G02*
X146525000Y-95325000I0J75000D01*
G01*
G37*
G36*
G01*
X146525000Y-94825000D02*
X146525000Y-94675000D01*
G75*
G02*
X146600000Y-94600000I75000J0D01*
G01*
X147300000Y-94600000D01*
G75*
G02*
X147375000Y-94675000I0J-75000D01*
G01*
X147375000Y-94825000D01*
G75*
G02*
X147300000Y-94900000I-75000J0D01*
G01*
X146600000Y-94900000D01*
G75*
G02*
X146525000Y-94825000I0J75000D01*
G01*
G37*
G36*
G01*
X146525000Y-94325000D02*
X146525000Y-94175000D01*
G75*
G02*
X146600000Y-94100000I75000J0D01*
G01*
X147300000Y-94100000D01*
G75*
G02*
X147375000Y-94175000I0J-75000D01*
G01*
X147375000Y-94325000D01*
G75*
G02*
X147300000Y-94400000I-75000J0D01*
G01*
X146600000Y-94400000D01*
G75*
G02*
X146525000Y-94325000I0J75000D01*
G01*
G37*
G36*
G01*
X146525000Y-93825000D02*
X146525000Y-93675000D01*
G75*
G02*
X146600000Y-93600000I75000J0D01*
G01*
X147300000Y-93600000D01*
G75*
G02*
X147375000Y-93675000I0J-75000D01*
G01*
X147375000Y-93825000D01*
G75*
G02*
X147300000Y-93900000I-75000J0D01*
G01*
X146600000Y-93900000D01*
G75*
G02*
X146525000Y-93825000I0J75000D01*
G01*
G37*
G36*
G01*
X146325000Y-93475000D02*
X146175000Y-93475000D01*
G75*
G02*
X146100000Y-93400000I0J75000D01*
G01*
X146100000Y-92700000D01*
G75*
G02*
X146175000Y-92625000I75000J0D01*
G01*
X146325000Y-92625000D01*
G75*
G02*
X146400000Y-92700000I0J-75000D01*
G01*
X146400000Y-93400000D01*
G75*
G02*
X146325000Y-93475000I-75000J0D01*
G01*
G37*
G36*
G01*
X145825000Y-93475000D02*
X145675000Y-93475000D01*
G75*
G02*
X145600000Y-93400000I0J75000D01*
G01*
X145600000Y-92700000D01*
G75*
G02*
X145675000Y-92625000I75000J0D01*
G01*
X145825000Y-92625000D01*
G75*
G02*
X145900000Y-92700000I0J-75000D01*
G01*
X145900000Y-93400000D01*
G75*
G02*
X145825000Y-93475000I-75000J0D01*
G01*
G37*
G36*
G01*
X145325000Y-93475000D02*
X145175000Y-93475000D01*
G75*
G02*
X145100000Y-93400000I0J75000D01*
G01*
X145100000Y-92700000D01*
G75*
G02*
X145175000Y-92625000I75000J0D01*
G01*
X145325000Y-92625000D01*
G75*
G02*
X145400000Y-92700000I0J-75000D01*
G01*
X145400000Y-93400000D01*
G75*
G02*
X145325000Y-93475000I-75000J0D01*
G01*
G37*
G36*
G01*
X144825000Y-93475000D02*
X144675000Y-93475000D01*
G75*
G02*
X144600000Y-93400000I0J75000D01*
G01*
X144600000Y-92700000D01*
G75*
G02*
X144675000Y-92625000I75000J0D01*
G01*
X144825000Y-92625000D01*
G75*
G02*
X144900000Y-92700000I0J-75000D01*
G01*
X144900000Y-93400000D01*
G75*
G02*
X144825000Y-93475000I-75000J0D01*
G01*
G37*
G36*
G01*
X144325000Y-93475000D02*
X144175000Y-93475000D01*
G75*
G02*
X144100000Y-93400000I0J75000D01*
G01*
X144100000Y-92700000D01*
G75*
G02*
X144175000Y-92625000I75000J0D01*
G01*
X144325000Y-92625000D01*
G75*
G02*
X144400000Y-92700000I0J-75000D01*
G01*
X144400000Y-93400000D01*
G75*
G02*
X144325000Y-93475000I-75000J0D01*
G01*
G37*
G36*
G01*
X143825000Y-93475000D02*
X143675000Y-93475000D01*
G75*
G02*
X143600000Y-93400000I0J75000D01*
G01*
X143600000Y-92700000D01*
G75*
G02*
X143675000Y-92625000I75000J0D01*
G01*
X143825000Y-92625000D01*
G75*
G02*
X143900000Y-92700000I0J-75000D01*
G01*
X143900000Y-93400000D01*
G75*
G02*
X143825000Y-93475000I-75000J0D01*
G01*
G37*
%TD*%
M02*
