M48
INCH,TZ
T1C0.0079
T2C0.0157
T3C0.0197
T4C0.0236
T5C0.0394
%
G90
G05
T1
X56663Y-32921
X56663Y-33673
X57175Y-32921
X57175Y-33673
X57687Y-32921
X57687Y-33673
T2
X52008Y-41417
X52510Y-37982
X52559Y-38839
X52923Y-42569
X53632Y-33396
X53711Y-34173
X54222Y-39843
X54291Y-42096
X54646Y-37077
X54843Y-39439
X54843Y-41063
X54843Y-43012
X55354Y-40010
X55650Y-31614
X55738Y-43888
X55886Y-36909
X56486Y-35069
X56722Y-39154
X56919Y-39449
X57028Y-35610
X57264Y-39281
X57539Y-43996
X57904Y-38199
X58091Y-41024
X58179Y-41919
X58179Y-42303
X58376Y-36437
X58386Y-36831
X58484Y-39961
X58622Y-43415
X59886Y-40146
X59911Y-40925
X60362Y-33472
X60758Y-37933
X60791Y-33878
X61079Y-36657
X61579Y-36654
X62079Y-38041
X62116Y-34537
X62913Y-38740
X63248Y-35541
T3
X59203Y-39646
X59409Y-38622
T4
X55817Y-32736
X58396Y-38337
X58563Y-31368
X58846Y-34047
X59577Y-35797
X62744Y-36886
T5
X56608Y-30778
X57608Y-30778
X61024Y-40197
X61024Y-41197
X62024Y-40197
X62024Y-41197
X61506Y-32795
X62213Y-33502
X51921Y-33502
X52628Y-32795
T0
M30
