%TF.GenerationSoftware,KiCad,Pcbnew,(5.1.6)-1*%
%TF.CreationDate,2020-09-12T21:12:53+02:00*%
%TF.ProjectId,shock absorber control + IMU v3,73686f63-6b20-4616-9273-6f7262657220,rev?*%
%TF.SameCoordinates,Original*%
%TF.FileFunction,Legend,Top*%
%TF.FilePolarity,Positive*%
%FSLAX46Y46*%
G04 Gerber Fmt 4.6, Leading zero omitted, Abs format (unit mm)*
G04 Created by KiCad (PCBNEW (5.1.6)-1) date 2020-09-12 21:12:53*
%MOMM*%
%LPD*%
G01*
G04 APERTURE LIST*
%ADD10C,0.150000*%
%ADD11C,0.120000*%
G04 APERTURE END LIST*
D10*
X151286904Y-97636904D02*
X151363095Y-97636904D01*
X151439285Y-97675000D01*
X151477380Y-97713095D01*
X151515476Y-97789285D01*
X151553571Y-97941666D01*
X151553571Y-98132142D01*
X151515476Y-98284523D01*
X151477380Y-98360714D01*
X151439285Y-98398809D01*
X151363095Y-98436904D01*
X151286904Y-98436904D01*
X151210714Y-98398809D01*
X151172619Y-98360714D01*
X151134523Y-98284523D01*
X151096428Y-98132142D01*
X151096428Y-97941666D01*
X151134523Y-97789285D01*
X151172619Y-97713095D01*
X151210714Y-97675000D01*
X151286904Y-97636904D01*
X151553571Y-92711904D02*
X151096428Y-92711904D01*
X151325000Y-92711904D02*
X151325000Y-91911904D01*
X151248809Y-92026190D01*
X151172619Y-92102380D01*
X151096428Y-92140476D01*
D11*
%TO.C,J3*%
X153670000Y-105970000D02*
X158870000Y-105970000D01*
X153670000Y-103370000D02*
X153670000Y-105970000D01*
X158870000Y-100770000D02*
X158870000Y-105970000D01*
X153670000Y-103370000D02*
X156270000Y-103370000D01*
X156270000Y-103370000D02*
X156270000Y-100770000D01*
X156270000Y-100770000D02*
X158870000Y-100770000D01*
X153670000Y-102100000D02*
X153670000Y-100770000D01*
X153670000Y-100770000D02*
X155000000Y-100770000D01*
%TO.C,R7*%
X143737779Y-112260000D02*
X143412221Y-112260000D01*
X143737779Y-111240000D02*
X143412221Y-111240000D01*
%TO.C,IN1*%
X147200000Y-89025000D02*
G75*
G03*
X147200000Y-89025000I-700000J0D01*
G01*
%TO.C,IN2*%
X145425000Y-89000000D02*
G75*
G03*
X145425000Y-89000000I-700000J0D01*
G01*
%TO.C,R3*%
X148962779Y-89100000D02*
X148637221Y-89100000D01*
X148962779Y-90120000D02*
X148637221Y-90120000D01*
%TO.C,C11*%
X150830000Y-87042064D02*
X150830000Y-85837936D01*
X148110000Y-87042064D02*
X148110000Y-85837936D01*
%TO.C,J4*%
X156182574Y-85138478D02*
X158063478Y-83257574D01*
X156182574Y-85138478D02*
X158021051Y-86976955D01*
X158021051Y-86976955D02*
X159901955Y-85096051D01*
X158063478Y-83257574D02*
X159901955Y-85096051D01*
X156225000Y-81419096D02*
X157165452Y-82359548D01*
X155284548Y-82359548D02*
X156225000Y-81419096D01*
%TO.C,J1*%
X133717427Y-85138477D02*
X131836523Y-83257573D01*
X133717427Y-85138477D02*
X135555904Y-83300000D01*
X135555904Y-83300000D02*
X133675000Y-81419096D01*
X131836523Y-83257573D02*
X133675000Y-81419096D01*
X129998045Y-85096051D02*
X130938497Y-84155599D01*
X130938497Y-86036503D02*
X129998045Y-85096051D01*
%TO.C,J2*%
X145055000Y-76845000D02*
X145055000Y-79505000D01*
X145055000Y-76845000D02*
X142455000Y-76845000D01*
X142455000Y-76845000D02*
X142455000Y-79505000D01*
X145055000Y-79505000D02*
X142455000Y-79505000D01*
X147655000Y-79505000D02*
X146325000Y-79505000D01*
X147655000Y-78175000D02*
X147655000Y-79505000D01*
%TO.C,C17*%
X132610000Y-103087221D02*
X132610000Y-103412779D01*
X131590000Y-103087221D02*
X131590000Y-103412779D01*
%TO.C,Y1*%
X137200000Y-100200000D02*
X133200000Y-100200000D01*
X133200000Y-100200000D02*
X133200000Y-106000000D01*
%TO.C,SW1*%
X162220000Y-91480000D02*
X162220000Y-95620000D01*
X159380000Y-95620000D02*
X159080000Y-95620000D01*
X159080000Y-95620000D02*
X159080000Y-91480000D01*
X161920000Y-91480000D02*
X162220000Y-91480000D01*
X159080000Y-91480000D02*
X159380000Y-91480000D01*
X162220000Y-95620000D02*
X161920000Y-95620000D01*
%TO.C,R6*%
X154447631Y-85143880D02*
X154217426Y-84913675D01*
X155168880Y-84422631D02*
X154938675Y-84192426D01*
%TO.C,JP2*%
X154897817Y-80687918D02*
X155322082Y-81112183D01*
X152917918Y-81677868D02*
X153907868Y-80687918D01*
X153342183Y-83092082D02*
X152917918Y-82667817D01*
X155322082Y-82102132D02*
X154332132Y-83092082D01*
X155322082Y-81112182D02*
G75*
G02*
X155322082Y-82102132I-494975J-494975D01*
G01*
X153907868Y-80687919D02*
G75*
G02*
X154897817Y-80687918I494975J-494974D01*
G01*
X152917918Y-82667818D02*
G75*
G02*
X152917918Y-81677868I494975J494975D01*
G01*
X154332132Y-83092081D02*
G75*
G02*
X153342183Y-83092082I-494975J494974D01*
G01*
%TO.C,U5*%
X153215000Y-92241000D02*
X153215000Y-94191000D01*
X153215000Y-92241000D02*
X153215000Y-90291000D01*
X158335000Y-92241000D02*
X158335000Y-94191000D01*
X158335000Y-92241000D02*
X158335000Y-88791000D01*
%TO.C,U4*%
X147785000Y-84575000D02*
X147785000Y-82625000D01*
X147785000Y-84575000D02*
X147785000Y-86525000D01*
X142665000Y-84575000D02*
X142665000Y-82625000D01*
X142665000Y-84575000D02*
X142665000Y-88025000D01*
%TO.C,C13*%
X143374721Y-97890000D02*
X143700279Y-97890000D01*
X143374721Y-98910000D02*
X143700279Y-98910000D01*
%TO.C,C1*%
X151235000Y-102912221D02*
X151235000Y-103237779D01*
X150215000Y-102912221D02*
X150215000Y-103237779D01*
%TO.C,C2*%
X142137221Y-100485000D02*
X142462779Y-100485000D01*
X142137221Y-99465000D02*
X142462779Y-99465000D01*
%TO.C,C3*%
X138790000Y-102575279D02*
X138790000Y-102249721D01*
X139810000Y-102575279D02*
X139810000Y-102249721D01*
%TO.C,C4*%
X139635000Y-107487779D02*
X139635000Y-107162221D01*
X138615000Y-107487779D02*
X138615000Y-107162221D01*
%TO.C,C5*%
X148200279Y-112260000D02*
X147874721Y-112260000D01*
X148200279Y-111240000D02*
X147874721Y-111240000D01*
%TO.C,C6*%
X138575279Y-86290000D02*
X138249721Y-86290000D01*
X138575279Y-87310000D02*
X138249721Y-87310000D01*
%TO.C,C7*%
X138546078Y-84115000D02*
X138028922Y-84115000D01*
X138546078Y-85535000D02*
X138028922Y-85535000D01*
%TO.C,C8*%
X131128922Y-97940000D02*
X131646078Y-97940000D01*
X131128922Y-99360000D02*
X131646078Y-99360000D01*
%TO.C,C9*%
X131062221Y-95965000D02*
X131387779Y-95965000D01*
X131062221Y-96985000D02*
X131387779Y-96985000D01*
%TO.C,C10*%
X160750279Y-96565000D02*
X160424721Y-96565000D01*
X160750279Y-97585000D02*
X160424721Y-97585000D01*
%TO.C,C12*%
X148040000Y-82562221D02*
X148040000Y-82887779D01*
X149060000Y-82562221D02*
X149060000Y-82887779D01*
%TO.C,C14*%
X147790000Y-95625279D02*
X147790000Y-95299721D01*
X148810000Y-95625279D02*
X148810000Y-95299721D01*
%TO.C,C15*%
X146287221Y-98935000D02*
X146612779Y-98935000D01*
X146287221Y-97915000D02*
X146612779Y-97915000D01*
%TO.C,C16*%
X146374721Y-91190000D02*
X146700279Y-91190000D01*
X146374721Y-92210000D02*
X146700279Y-92210000D01*
%TO.C,C18*%
X155637221Y-88235000D02*
X155962779Y-88235000D01*
X155637221Y-87215000D02*
X155962779Y-87215000D01*
%TO.C,C19*%
X135375279Y-106440000D02*
X135049721Y-106440000D01*
X135375279Y-107460000D02*
X135049721Y-107460000D01*
%TO.C,JP1*%
X150325000Y-97175000D02*
X150325000Y-93075000D01*
X150325000Y-93075000D02*
X152325000Y-93075000D01*
X152325000Y-93075000D02*
X152325000Y-97175000D01*
X152325000Y-97175000D02*
X150325000Y-97175000D01*
X152525000Y-96425000D02*
X152825000Y-96725000D01*
X152825000Y-96725000D02*
X152825000Y-96125000D01*
X152525000Y-96425000D02*
X152825000Y-96125000D01*
%TO.C,R1*%
X142524721Y-89640000D02*
X142850279Y-89640000D01*
X142524721Y-90660000D02*
X142850279Y-90660000D01*
%TO.C,R2*%
X143299721Y-92085000D02*
X143625279Y-92085000D01*
X143299721Y-91065000D02*
X143625279Y-91065000D01*
%TO.C,R4*%
X143487779Y-80810000D02*
X143162221Y-80810000D01*
X143487779Y-79790000D02*
X143162221Y-79790000D01*
%TO.C,R5*%
X152460000Y-100212779D02*
X152460000Y-99887221D01*
X151440000Y-100212779D02*
X151440000Y-99887221D01*
%TO.C,U1*%
X138175000Y-95285000D02*
X132165000Y-95285000D01*
X135925000Y-88465000D02*
X132165000Y-88465000D01*
X132165000Y-95285000D02*
X132165000Y-94025000D01*
X132165000Y-88465000D02*
X132165000Y-89725000D01*
%TO.C,U2*%
X141390000Y-102790000D02*
X140100000Y-102790000D01*
X141390000Y-102340000D02*
X141390000Y-102790000D01*
X141840000Y-102340000D02*
X141390000Y-102340000D01*
X148610000Y-102340000D02*
X148610000Y-102790000D01*
X148160000Y-102340000D02*
X148610000Y-102340000D01*
X141390000Y-109560000D02*
X141390000Y-109110000D01*
X141840000Y-109560000D02*
X141390000Y-109560000D01*
X148610000Y-109560000D02*
X148610000Y-109110000D01*
X148160000Y-109560000D02*
X148610000Y-109560000D01*
D10*
%TO.C,U3*%
X147150000Y-92850000D02*
X146625000Y-92850000D01*
X147150000Y-97150000D02*
X146625000Y-97150000D01*
X142850000Y-97150000D02*
X143375000Y-97150000D01*
X142850000Y-92850000D02*
X143375000Y-92850000D01*
X147150000Y-97150000D02*
X147150000Y-96625000D01*
X142850000Y-97150000D02*
X142850000Y-96625000D01*
X147150000Y-92850000D02*
X147150000Y-93375000D01*
%TO.C,J3*%
X155936666Y-99222380D02*
X155936666Y-99936666D01*
X155889047Y-100079523D01*
X155793809Y-100174761D01*
X155650952Y-100222380D01*
X155555714Y-100222380D01*
X156317619Y-99222380D02*
X156936666Y-99222380D01*
X156603333Y-99603333D01*
X156746190Y-99603333D01*
X156841428Y-99650952D01*
X156889047Y-99698571D01*
X156936666Y-99793809D01*
X156936666Y-100031904D01*
X156889047Y-100127142D01*
X156841428Y-100174761D01*
X156746190Y-100222380D01*
X156460476Y-100222380D01*
X156365238Y-100174761D01*
X156317619Y-100127142D01*
%TO.C,R7*%
X140983333Y-112202380D02*
X140650000Y-111726190D01*
X140411904Y-112202380D02*
X140411904Y-111202380D01*
X140792857Y-111202380D01*
X140888095Y-111250000D01*
X140935714Y-111297619D01*
X140983333Y-111392857D01*
X140983333Y-111535714D01*
X140935714Y-111630952D01*
X140888095Y-111678571D01*
X140792857Y-111726190D01*
X140411904Y-111726190D01*
X141316666Y-111202380D02*
X141983333Y-111202380D01*
X141554761Y-112202380D01*
%TO.C,R3*%
X151045833Y-90037380D02*
X150712500Y-89561190D01*
X150474404Y-90037380D02*
X150474404Y-89037380D01*
X150855357Y-89037380D01*
X150950595Y-89085000D01*
X150998214Y-89132619D01*
X151045833Y-89227857D01*
X151045833Y-89370714D01*
X150998214Y-89465952D01*
X150950595Y-89513571D01*
X150855357Y-89561190D01*
X150474404Y-89561190D01*
X151379166Y-89037380D02*
X151998214Y-89037380D01*
X151664880Y-89418333D01*
X151807738Y-89418333D01*
X151902976Y-89465952D01*
X151950595Y-89513571D01*
X151998214Y-89608809D01*
X151998214Y-89846904D01*
X151950595Y-89942142D01*
X151902976Y-89989761D01*
X151807738Y-90037380D01*
X151522023Y-90037380D01*
X151426785Y-89989761D01*
X151379166Y-89942142D01*
%TO.C,C11*%
X152057142Y-86992857D02*
X152104761Y-87040476D01*
X152152380Y-87183333D01*
X152152380Y-87278571D01*
X152104761Y-87421428D01*
X152009523Y-87516666D01*
X151914285Y-87564285D01*
X151723809Y-87611904D01*
X151580952Y-87611904D01*
X151390476Y-87564285D01*
X151295238Y-87516666D01*
X151200000Y-87421428D01*
X151152380Y-87278571D01*
X151152380Y-87183333D01*
X151200000Y-87040476D01*
X151247619Y-86992857D01*
X152152380Y-86040476D02*
X152152380Y-86611904D01*
X152152380Y-86326190D02*
X151152380Y-86326190D01*
X151295238Y-86421428D01*
X151390476Y-86516666D01*
X151438095Y-86611904D01*
X152152380Y-85088095D02*
X152152380Y-85659523D01*
X152152380Y-85373809D02*
X151152380Y-85373809D01*
X151295238Y-85469047D01*
X151390476Y-85564285D01*
X151438095Y-85659523D01*
%TO.C,C17*%
X131082142Y-103892857D02*
X131129761Y-103940476D01*
X131177380Y-104083333D01*
X131177380Y-104178571D01*
X131129761Y-104321428D01*
X131034523Y-104416666D01*
X130939285Y-104464285D01*
X130748809Y-104511904D01*
X130605952Y-104511904D01*
X130415476Y-104464285D01*
X130320238Y-104416666D01*
X130225000Y-104321428D01*
X130177380Y-104178571D01*
X130177380Y-104083333D01*
X130225000Y-103940476D01*
X130272619Y-103892857D01*
X131177380Y-102940476D02*
X131177380Y-103511904D01*
X131177380Y-103226190D02*
X130177380Y-103226190D01*
X130320238Y-103321428D01*
X130415476Y-103416666D01*
X130463095Y-103511904D01*
X130177380Y-102607142D02*
X130177380Y-101940476D01*
X131177380Y-102369047D01*
%TO.C,Y1*%
X135148809Y-99351190D02*
X135148809Y-99827380D01*
X134815476Y-98827380D02*
X135148809Y-99351190D01*
X135482142Y-98827380D01*
X136339285Y-99827380D02*
X135767857Y-99827380D01*
X136053571Y-99827380D02*
X136053571Y-98827380D01*
X135958333Y-98970238D01*
X135863095Y-99065476D01*
X135767857Y-99113095D01*
%TO.C,R6*%
X153280420Y-85845183D02*
X153381435Y-85272763D01*
X152876359Y-85441122D02*
X153583465Y-84734015D01*
X153852840Y-85003389D01*
X153886511Y-85104404D01*
X153886511Y-85171748D01*
X153852840Y-85272763D01*
X153751824Y-85373778D01*
X153650809Y-85407450D01*
X153583465Y-85407450D01*
X153482450Y-85373778D01*
X153213076Y-85104404D01*
X154593618Y-85744168D02*
X154458931Y-85609481D01*
X154357916Y-85575809D01*
X154290572Y-85575809D01*
X154122214Y-85609481D01*
X153953855Y-85710496D01*
X153684481Y-85979870D01*
X153650809Y-86080885D01*
X153650809Y-86148229D01*
X153684481Y-86249244D01*
X153819168Y-86383931D01*
X153920183Y-86417603D01*
X153987527Y-86417603D01*
X154088542Y-86383931D01*
X154256901Y-86215572D01*
X154290572Y-86114557D01*
X154290572Y-86047214D01*
X154256901Y-85946198D01*
X154122214Y-85811511D01*
X154021198Y-85777840D01*
X153953855Y-85777840D01*
X153852840Y-85811511D01*
%TO.C,U5*%
X158813095Y-89118380D02*
X158813095Y-89927904D01*
X158860714Y-90023142D01*
X158908333Y-90070761D01*
X159003571Y-90118380D01*
X159194047Y-90118380D01*
X159289285Y-90070761D01*
X159336904Y-90023142D01*
X159384523Y-89927904D01*
X159384523Y-89118380D01*
X160336904Y-89118380D02*
X159860714Y-89118380D01*
X159813095Y-89594571D01*
X159860714Y-89546952D01*
X159955952Y-89499333D01*
X160194047Y-89499333D01*
X160289285Y-89546952D01*
X160336904Y-89594571D01*
X160384523Y-89689809D01*
X160384523Y-89927904D01*
X160336904Y-90023142D01*
X160289285Y-90070761D01*
X160194047Y-90118380D01*
X159955952Y-90118380D01*
X159860714Y-90070761D01*
X159813095Y-90023142D01*
%TO.C,U4*%
X141277380Y-85336904D02*
X142086904Y-85336904D01*
X142182142Y-85289285D01*
X142229761Y-85241666D01*
X142277380Y-85146428D01*
X142277380Y-84955952D01*
X142229761Y-84860714D01*
X142182142Y-84813095D01*
X142086904Y-84765476D01*
X141277380Y-84765476D01*
X141610714Y-83860714D02*
X142277380Y-83860714D01*
X141229761Y-84098809D02*
X141944047Y-84336904D01*
X141944047Y-83717857D01*
%TO.C,C13*%
X139732142Y-98757142D02*
X139684523Y-98804761D01*
X139541666Y-98852380D01*
X139446428Y-98852380D01*
X139303571Y-98804761D01*
X139208333Y-98709523D01*
X139160714Y-98614285D01*
X139113095Y-98423809D01*
X139113095Y-98280952D01*
X139160714Y-98090476D01*
X139208333Y-97995238D01*
X139303571Y-97900000D01*
X139446428Y-97852380D01*
X139541666Y-97852380D01*
X139684523Y-97900000D01*
X139732142Y-97947619D01*
X140684523Y-98852380D02*
X140113095Y-98852380D01*
X140398809Y-98852380D02*
X140398809Y-97852380D01*
X140303571Y-97995238D01*
X140208333Y-98090476D01*
X140113095Y-98138095D01*
X141017857Y-97852380D02*
X141636904Y-97852380D01*
X141303571Y-98233333D01*
X141446428Y-98233333D01*
X141541666Y-98280952D01*
X141589285Y-98328571D01*
X141636904Y-98423809D01*
X141636904Y-98661904D01*
X141589285Y-98757142D01*
X141541666Y-98804761D01*
X141446428Y-98852380D01*
X141160714Y-98852380D01*
X141065476Y-98804761D01*
X141017857Y-98757142D01*
%TO.C,C1*%
X152233333Y-103432142D02*
X152185714Y-103479761D01*
X152042857Y-103527380D01*
X151947619Y-103527380D01*
X151804761Y-103479761D01*
X151709523Y-103384523D01*
X151661904Y-103289285D01*
X151614285Y-103098809D01*
X151614285Y-102955952D01*
X151661904Y-102765476D01*
X151709523Y-102670238D01*
X151804761Y-102575000D01*
X151947619Y-102527380D01*
X152042857Y-102527380D01*
X152185714Y-102575000D01*
X152233333Y-102622619D01*
X153185714Y-103527380D02*
X152614285Y-103527380D01*
X152900000Y-103527380D02*
X152900000Y-102527380D01*
X152804761Y-102670238D01*
X152709523Y-102765476D01*
X152614285Y-102813095D01*
%TO.C,C2*%
X139708333Y-100307142D02*
X139660714Y-100354761D01*
X139517857Y-100402380D01*
X139422619Y-100402380D01*
X139279761Y-100354761D01*
X139184523Y-100259523D01*
X139136904Y-100164285D01*
X139089285Y-99973809D01*
X139089285Y-99830952D01*
X139136904Y-99640476D01*
X139184523Y-99545238D01*
X139279761Y-99450000D01*
X139422619Y-99402380D01*
X139517857Y-99402380D01*
X139660714Y-99450000D01*
X139708333Y-99497619D01*
X140089285Y-99497619D02*
X140136904Y-99450000D01*
X140232142Y-99402380D01*
X140470238Y-99402380D01*
X140565476Y-99450000D01*
X140613095Y-99497619D01*
X140660714Y-99592857D01*
X140660714Y-99688095D01*
X140613095Y-99830952D01*
X140041666Y-100402380D01*
X140660714Y-100402380D01*
%TO.C,C3*%
X138482142Y-102591666D02*
X138529761Y-102639285D01*
X138577380Y-102782142D01*
X138577380Y-102877380D01*
X138529761Y-103020238D01*
X138434523Y-103115476D01*
X138339285Y-103163095D01*
X138148809Y-103210714D01*
X138005952Y-103210714D01*
X137815476Y-103163095D01*
X137720238Y-103115476D01*
X137625000Y-103020238D01*
X137577380Y-102877380D01*
X137577380Y-102782142D01*
X137625000Y-102639285D01*
X137672619Y-102591666D01*
X137577380Y-102258333D02*
X137577380Y-101639285D01*
X137958333Y-101972619D01*
X137958333Y-101829761D01*
X138005952Y-101734523D01*
X138053571Y-101686904D01*
X138148809Y-101639285D01*
X138386904Y-101639285D01*
X138482142Y-101686904D01*
X138529761Y-101734523D01*
X138577380Y-101829761D01*
X138577380Y-102115476D01*
X138529761Y-102210714D01*
X138482142Y-102258333D01*
%TO.C,C4*%
X138307142Y-107491666D02*
X138354761Y-107539285D01*
X138402380Y-107682142D01*
X138402380Y-107777380D01*
X138354761Y-107920238D01*
X138259523Y-108015476D01*
X138164285Y-108063095D01*
X137973809Y-108110714D01*
X137830952Y-108110714D01*
X137640476Y-108063095D01*
X137545238Y-108015476D01*
X137450000Y-107920238D01*
X137402380Y-107777380D01*
X137402380Y-107682142D01*
X137450000Y-107539285D01*
X137497619Y-107491666D01*
X137735714Y-106634523D02*
X138402380Y-106634523D01*
X137354761Y-106872619D02*
X138069047Y-107110714D01*
X138069047Y-106491666D01*
%TO.C,C5*%
X150158333Y-111407142D02*
X150110714Y-111454761D01*
X149967857Y-111502380D01*
X149872619Y-111502380D01*
X149729761Y-111454761D01*
X149634523Y-111359523D01*
X149586904Y-111264285D01*
X149539285Y-111073809D01*
X149539285Y-110930952D01*
X149586904Y-110740476D01*
X149634523Y-110645238D01*
X149729761Y-110550000D01*
X149872619Y-110502380D01*
X149967857Y-110502380D01*
X150110714Y-110550000D01*
X150158333Y-110597619D01*
X151063095Y-110502380D02*
X150586904Y-110502380D01*
X150539285Y-110978571D01*
X150586904Y-110930952D01*
X150682142Y-110883333D01*
X150920238Y-110883333D01*
X151015476Y-110930952D01*
X151063095Y-110978571D01*
X151110714Y-111073809D01*
X151110714Y-111311904D01*
X151063095Y-111407142D01*
X151015476Y-111454761D01*
X150920238Y-111502380D01*
X150682142Y-111502380D01*
X150586904Y-111454761D01*
X150539285Y-111407142D01*
%TO.C,C6*%
X135433333Y-87157142D02*
X135385714Y-87204761D01*
X135242857Y-87252380D01*
X135147619Y-87252380D01*
X135004761Y-87204761D01*
X134909523Y-87109523D01*
X134861904Y-87014285D01*
X134814285Y-86823809D01*
X134814285Y-86680952D01*
X134861904Y-86490476D01*
X134909523Y-86395238D01*
X135004761Y-86300000D01*
X135147619Y-86252380D01*
X135242857Y-86252380D01*
X135385714Y-86300000D01*
X135433333Y-86347619D01*
X136290476Y-86252380D02*
X136100000Y-86252380D01*
X136004761Y-86300000D01*
X135957142Y-86347619D01*
X135861904Y-86490476D01*
X135814285Y-86680952D01*
X135814285Y-87061904D01*
X135861904Y-87157142D01*
X135909523Y-87204761D01*
X136004761Y-87252380D01*
X136195238Y-87252380D01*
X136290476Y-87204761D01*
X136338095Y-87157142D01*
X136385714Y-87061904D01*
X136385714Y-86823809D01*
X136338095Y-86728571D01*
X136290476Y-86680952D01*
X136195238Y-86633333D01*
X136004761Y-86633333D01*
X135909523Y-86680952D01*
X135861904Y-86728571D01*
X135814285Y-86823809D01*
%TO.C,C7*%
X135433333Y-85182142D02*
X135385714Y-85229761D01*
X135242857Y-85277380D01*
X135147619Y-85277380D01*
X135004761Y-85229761D01*
X134909523Y-85134523D01*
X134861904Y-85039285D01*
X134814285Y-84848809D01*
X134814285Y-84705952D01*
X134861904Y-84515476D01*
X134909523Y-84420238D01*
X135004761Y-84325000D01*
X135147619Y-84277380D01*
X135242857Y-84277380D01*
X135385714Y-84325000D01*
X135433333Y-84372619D01*
X135766666Y-84277380D02*
X136433333Y-84277380D01*
X136004761Y-85277380D01*
%TO.C,C8*%
X131208333Y-100657142D02*
X131160714Y-100704761D01*
X131017857Y-100752380D01*
X130922619Y-100752380D01*
X130779761Y-100704761D01*
X130684523Y-100609523D01*
X130636904Y-100514285D01*
X130589285Y-100323809D01*
X130589285Y-100180952D01*
X130636904Y-99990476D01*
X130684523Y-99895238D01*
X130779761Y-99800000D01*
X130922619Y-99752380D01*
X131017857Y-99752380D01*
X131160714Y-99800000D01*
X131208333Y-99847619D01*
X131779761Y-100180952D02*
X131684523Y-100133333D01*
X131636904Y-100085714D01*
X131589285Y-99990476D01*
X131589285Y-99942857D01*
X131636904Y-99847619D01*
X131684523Y-99800000D01*
X131779761Y-99752380D01*
X131970238Y-99752380D01*
X132065476Y-99800000D01*
X132113095Y-99847619D01*
X132160714Y-99942857D01*
X132160714Y-99990476D01*
X132113095Y-100085714D01*
X132065476Y-100133333D01*
X131970238Y-100180952D01*
X131779761Y-100180952D01*
X131684523Y-100228571D01*
X131636904Y-100276190D01*
X131589285Y-100371428D01*
X131589285Y-100561904D01*
X131636904Y-100657142D01*
X131684523Y-100704761D01*
X131779761Y-100752380D01*
X131970238Y-100752380D01*
X132065476Y-100704761D01*
X132113095Y-100657142D01*
X132160714Y-100561904D01*
X132160714Y-100371428D01*
X132113095Y-100276190D01*
X132065476Y-100228571D01*
X131970238Y-100180952D01*
%TO.C,C9*%
X128508333Y-96832142D02*
X128460714Y-96879761D01*
X128317857Y-96927380D01*
X128222619Y-96927380D01*
X128079761Y-96879761D01*
X127984523Y-96784523D01*
X127936904Y-96689285D01*
X127889285Y-96498809D01*
X127889285Y-96355952D01*
X127936904Y-96165476D01*
X127984523Y-96070238D01*
X128079761Y-95975000D01*
X128222619Y-95927380D01*
X128317857Y-95927380D01*
X128460714Y-95975000D01*
X128508333Y-96022619D01*
X128984523Y-96927380D02*
X129175000Y-96927380D01*
X129270238Y-96879761D01*
X129317857Y-96832142D01*
X129413095Y-96689285D01*
X129460714Y-96498809D01*
X129460714Y-96117857D01*
X129413095Y-96022619D01*
X129365476Y-95975000D01*
X129270238Y-95927380D01*
X129079761Y-95927380D01*
X128984523Y-95975000D01*
X128936904Y-96022619D01*
X128889285Y-96117857D01*
X128889285Y-96355952D01*
X128936904Y-96451190D01*
X128984523Y-96498809D01*
X129079761Y-96546428D01*
X129270238Y-96546428D01*
X129365476Y-96498809D01*
X129413095Y-96451190D01*
X129460714Y-96355952D01*
%TO.C,C10*%
X159932142Y-98807142D02*
X159884523Y-98854761D01*
X159741666Y-98902380D01*
X159646428Y-98902380D01*
X159503571Y-98854761D01*
X159408333Y-98759523D01*
X159360714Y-98664285D01*
X159313095Y-98473809D01*
X159313095Y-98330952D01*
X159360714Y-98140476D01*
X159408333Y-98045238D01*
X159503571Y-97950000D01*
X159646428Y-97902380D01*
X159741666Y-97902380D01*
X159884523Y-97950000D01*
X159932142Y-97997619D01*
X160884523Y-98902380D02*
X160313095Y-98902380D01*
X160598809Y-98902380D02*
X160598809Y-97902380D01*
X160503571Y-98045238D01*
X160408333Y-98140476D01*
X160313095Y-98188095D01*
X161503571Y-97902380D02*
X161598809Y-97902380D01*
X161694047Y-97950000D01*
X161741666Y-97997619D01*
X161789285Y-98092857D01*
X161836904Y-98283333D01*
X161836904Y-98521428D01*
X161789285Y-98711904D01*
X161741666Y-98807142D01*
X161694047Y-98854761D01*
X161598809Y-98902380D01*
X161503571Y-98902380D01*
X161408333Y-98854761D01*
X161360714Y-98807142D01*
X161313095Y-98711904D01*
X161265476Y-98521428D01*
X161265476Y-98283333D01*
X161313095Y-98092857D01*
X161360714Y-97997619D01*
X161408333Y-97950000D01*
X161503571Y-97902380D01*
%TO.C,C12*%
X150382142Y-83367857D02*
X150429761Y-83415476D01*
X150477380Y-83558333D01*
X150477380Y-83653571D01*
X150429761Y-83796428D01*
X150334523Y-83891666D01*
X150239285Y-83939285D01*
X150048809Y-83986904D01*
X149905952Y-83986904D01*
X149715476Y-83939285D01*
X149620238Y-83891666D01*
X149525000Y-83796428D01*
X149477380Y-83653571D01*
X149477380Y-83558333D01*
X149525000Y-83415476D01*
X149572619Y-83367857D01*
X150477380Y-82415476D02*
X150477380Y-82986904D01*
X150477380Y-82701190D02*
X149477380Y-82701190D01*
X149620238Y-82796428D01*
X149715476Y-82891666D01*
X149763095Y-82986904D01*
X149572619Y-82034523D02*
X149525000Y-81986904D01*
X149477380Y-81891666D01*
X149477380Y-81653571D01*
X149525000Y-81558333D01*
X149572619Y-81510714D01*
X149667857Y-81463095D01*
X149763095Y-81463095D01*
X149905952Y-81510714D01*
X150477380Y-82082142D01*
X150477380Y-81463095D01*
%TO.C,C14*%
X149957142Y-96092857D02*
X150004761Y-96140476D01*
X150052380Y-96283333D01*
X150052380Y-96378571D01*
X150004761Y-96521428D01*
X149909523Y-96616666D01*
X149814285Y-96664285D01*
X149623809Y-96711904D01*
X149480952Y-96711904D01*
X149290476Y-96664285D01*
X149195238Y-96616666D01*
X149100000Y-96521428D01*
X149052380Y-96378571D01*
X149052380Y-96283333D01*
X149100000Y-96140476D01*
X149147619Y-96092857D01*
X150052380Y-95140476D02*
X150052380Y-95711904D01*
X150052380Y-95426190D02*
X149052380Y-95426190D01*
X149195238Y-95521428D01*
X149290476Y-95616666D01*
X149338095Y-95711904D01*
X149385714Y-94283333D02*
X150052380Y-94283333D01*
X149004761Y-94521428D02*
X149719047Y-94759523D01*
X149719047Y-94140476D01*
%TO.C,C15*%
X145807142Y-100057142D02*
X145759523Y-100104761D01*
X145616666Y-100152380D01*
X145521428Y-100152380D01*
X145378571Y-100104761D01*
X145283333Y-100009523D01*
X145235714Y-99914285D01*
X145188095Y-99723809D01*
X145188095Y-99580952D01*
X145235714Y-99390476D01*
X145283333Y-99295238D01*
X145378571Y-99200000D01*
X145521428Y-99152380D01*
X145616666Y-99152380D01*
X145759523Y-99200000D01*
X145807142Y-99247619D01*
X146759523Y-100152380D02*
X146188095Y-100152380D01*
X146473809Y-100152380D02*
X146473809Y-99152380D01*
X146378571Y-99295238D01*
X146283333Y-99390476D01*
X146188095Y-99438095D01*
X147664285Y-99152380D02*
X147188095Y-99152380D01*
X147140476Y-99628571D01*
X147188095Y-99580952D01*
X147283333Y-99533333D01*
X147521428Y-99533333D01*
X147616666Y-99580952D01*
X147664285Y-99628571D01*
X147711904Y-99723809D01*
X147711904Y-99961904D01*
X147664285Y-100057142D01*
X147616666Y-100104761D01*
X147521428Y-100152380D01*
X147283333Y-100152380D01*
X147188095Y-100104761D01*
X147140476Y-100057142D01*
%TO.C,C16*%
X148682142Y-92057142D02*
X148634523Y-92104761D01*
X148491666Y-92152380D01*
X148396428Y-92152380D01*
X148253571Y-92104761D01*
X148158333Y-92009523D01*
X148110714Y-91914285D01*
X148063095Y-91723809D01*
X148063095Y-91580952D01*
X148110714Y-91390476D01*
X148158333Y-91295238D01*
X148253571Y-91200000D01*
X148396428Y-91152380D01*
X148491666Y-91152380D01*
X148634523Y-91200000D01*
X148682142Y-91247619D01*
X149634523Y-92152380D02*
X149063095Y-92152380D01*
X149348809Y-92152380D02*
X149348809Y-91152380D01*
X149253571Y-91295238D01*
X149158333Y-91390476D01*
X149063095Y-91438095D01*
X150491666Y-91152380D02*
X150301190Y-91152380D01*
X150205952Y-91200000D01*
X150158333Y-91247619D01*
X150063095Y-91390476D01*
X150015476Y-91580952D01*
X150015476Y-91961904D01*
X150063095Y-92057142D01*
X150110714Y-92104761D01*
X150205952Y-92152380D01*
X150396428Y-92152380D01*
X150491666Y-92104761D01*
X150539285Y-92057142D01*
X150586904Y-91961904D01*
X150586904Y-91723809D01*
X150539285Y-91628571D01*
X150491666Y-91580952D01*
X150396428Y-91533333D01*
X150205952Y-91533333D01*
X150110714Y-91580952D01*
X150063095Y-91628571D01*
X150015476Y-91723809D01*
%TO.C,C18*%
X157957142Y-88082142D02*
X157909523Y-88129761D01*
X157766666Y-88177380D01*
X157671428Y-88177380D01*
X157528571Y-88129761D01*
X157433333Y-88034523D01*
X157385714Y-87939285D01*
X157338095Y-87748809D01*
X157338095Y-87605952D01*
X157385714Y-87415476D01*
X157433333Y-87320238D01*
X157528571Y-87225000D01*
X157671428Y-87177380D01*
X157766666Y-87177380D01*
X157909523Y-87225000D01*
X157957142Y-87272619D01*
X158909523Y-88177380D02*
X158338095Y-88177380D01*
X158623809Y-88177380D02*
X158623809Y-87177380D01*
X158528571Y-87320238D01*
X158433333Y-87415476D01*
X158338095Y-87463095D01*
X159480952Y-87605952D02*
X159385714Y-87558333D01*
X159338095Y-87510714D01*
X159290476Y-87415476D01*
X159290476Y-87367857D01*
X159338095Y-87272619D01*
X159385714Y-87225000D01*
X159480952Y-87177380D01*
X159671428Y-87177380D01*
X159766666Y-87225000D01*
X159814285Y-87272619D01*
X159861904Y-87367857D01*
X159861904Y-87415476D01*
X159814285Y-87510714D01*
X159766666Y-87558333D01*
X159671428Y-87605952D01*
X159480952Y-87605952D01*
X159385714Y-87653571D01*
X159338095Y-87701190D01*
X159290476Y-87796428D01*
X159290476Y-87986904D01*
X159338095Y-88082142D01*
X159385714Y-88129761D01*
X159480952Y-88177380D01*
X159671428Y-88177380D01*
X159766666Y-88129761D01*
X159814285Y-88082142D01*
X159861904Y-87986904D01*
X159861904Y-87796428D01*
X159814285Y-87701190D01*
X159766666Y-87653571D01*
X159671428Y-87605952D01*
%TO.C,C19*%
X134569642Y-108737142D02*
X134522023Y-108784761D01*
X134379166Y-108832380D01*
X134283928Y-108832380D01*
X134141071Y-108784761D01*
X134045833Y-108689523D01*
X133998214Y-108594285D01*
X133950595Y-108403809D01*
X133950595Y-108260952D01*
X133998214Y-108070476D01*
X134045833Y-107975238D01*
X134141071Y-107880000D01*
X134283928Y-107832380D01*
X134379166Y-107832380D01*
X134522023Y-107880000D01*
X134569642Y-107927619D01*
X135522023Y-108832380D02*
X134950595Y-108832380D01*
X135236309Y-108832380D02*
X135236309Y-107832380D01*
X135141071Y-107975238D01*
X135045833Y-108070476D01*
X134950595Y-108118095D01*
X135998214Y-108832380D02*
X136188690Y-108832380D01*
X136283928Y-108784761D01*
X136331547Y-108737142D01*
X136426785Y-108594285D01*
X136474404Y-108403809D01*
X136474404Y-108022857D01*
X136426785Y-107927619D01*
X136379166Y-107880000D01*
X136283928Y-107832380D01*
X136093452Y-107832380D01*
X135998214Y-107880000D01*
X135950595Y-107927619D01*
X135902976Y-108022857D01*
X135902976Y-108260952D01*
X135950595Y-108356190D01*
X135998214Y-108403809D01*
X136093452Y-108451428D01*
X136283928Y-108451428D01*
X136379166Y-108403809D01*
X136426785Y-108356190D01*
X136474404Y-108260952D01*
%TO.C,R1*%
X140208333Y-90602380D02*
X139875000Y-90126190D01*
X139636904Y-90602380D02*
X139636904Y-89602380D01*
X140017857Y-89602380D01*
X140113095Y-89650000D01*
X140160714Y-89697619D01*
X140208333Y-89792857D01*
X140208333Y-89935714D01*
X140160714Y-90030952D01*
X140113095Y-90078571D01*
X140017857Y-90126190D01*
X139636904Y-90126190D01*
X141160714Y-90602380D02*
X140589285Y-90602380D01*
X140875000Y-90602380D02*
X140875000Y-89602380D01*
X140779761Y-89745238D01*
X140684523Y-89840476D01*
X140589285Y-89888095D01*
%TO.C,R2*%
X140970833Y-92027380D02*
X140637500Y-91551190D01*
X140399404Y-92027380D02*
X140399404Y-91027380D01*
X140780357Y-91027380D01*
X140875595Y-91075000D01*
X140923214Y-91122619D01*
X140970833Y-91217857D01*
X140970833Y-91360714D01*
X140923214Y-91455952D01*
X140875595Y-91503571D01*
X140780357Y-91551190D01*
X140399404Y-91551190D01*
X141351785Y-91122619D02*
X141399404Y-91075000D01*
X141494642Y-91027380D01*
X141732738Y-91027380D01*
X141827976Y-91075000D01*
X141875595Y-91122619D01*
X141923214Y-91217857D01*
X141923214Y-91313095D01*
X141875595Y-91455952D01*
X141304166Y-92027380D01*
X141923214Y-92027380D01*
%TO.C,R4*%
X145433333Y-80752380D02*
X145100000Y-80276190D01*
X144861904Y-80752380D02*
X144861904Y-79752380D01*
X145242857Y-79752380D01*
X145338095Y-79800000D01*
X145385714Y-79847619D01*
X145433333Y-79942857D01*
X145433333Y-80085714D01*
X145385714Y-80180952D01*
X145338095Y-80228571D01*
X145242857Y-80276190D01*
X144861904Y-80276190D01*
X146290476Y-80085714D02*
X146290476Y-80752380D01*
X146052380Y-79704761D02*
X145814285Y-80419047D01*
X146433333Y-80419047D01*
%TO.C,R5*%
X150108333Y-100502380D02*
X149775000Y-100026190D01*
X149536904Y-100502380D02*
X149536904Y-99502380D01*
X149917857Y-99502380D01*
X150013095Y-99550000D01*
X150060714Y-99597619D01*
X150108333Y-99692857D01*
X150108333Y-99835714D01*
X150060714Y-99930952D01*
X150013095Y-99978571D01*
X149917857Y-100026190D01*
X149536904Y-100026190D01*
X151013095Y-99502380D02*
X150536904Y-99502380D01*
X150489285Y-99978571D01*
X150536904Y-99930952D01*
X150632142Y-99883333D01*
X150870238Y-99883333D01*
X150965476Y-99930952D01*
X151013095Y-99978571D01*
X151060714Y-100073809D01*
X151060714Y-100311904D01*
X151013095Y-100407142D01*
X150965476Y-100454761D01*
X150870238Y-100502380D01*
X150632142Y-100502380D01*
X150536904Y-100454761D01*
X150489285Y-100407142D01*
%TO.C,U1*%
X128427380Y-92636904D02*
X129236904Y-92636904D01*
X129332142Y-92589285D01*
X129379761Y-92541666D01*
X129427380Y-92446428D01*
X129427380Y-92255952D01*
X129379761Y-92160714D01*
X129332142Y-92113095D01*
X129236904Y-92065476D01*
X128427380Y-92065476D01*
X129427380Y-91065476D02*
X129427380Y-91636904D01*
X129427380Y-91351190D02*
X128427380Y-91351190D01*
X128570238Y-91446428D01*
X128665476Y-91541666D01*
X128713095Y-91636904D01*
%TO.C,U2*%
X139813095Y-109577380D02*
X139813095Y-110386904D01*
X139860714Y-110482142D01*
X139908333Y-110529761D01*
X140003571Y-110577380D01*
X140194047Y-110577380D01*
X140289285Y-110529761D01*
X140336904Y-110482142D01*
X140384523Y-110386904D01*
X140384523Y-109577380D01*
X140813095Y-109672619D02*
X140860714Y-109625000D01*
X140955952Y-109577380D01*
X141194047Y-109577380D01*
X141289285Y-109625000D01*
X141336904Y-109672619D01*
X141384523Y-109767857D01*
X141384523Y-109863095D01*
X141336904Y-110005952D01*
X140765476Y-110577380D01*
X141384523Y-110577380D01*
%TO.C,U3*%
X140538095Y-94477380D02*
X140538095Y-95286904D01*
X140585714Y-95382142D01*
X140633333Y-95429761D01*
X140728571Y-95477380D01*
X140919047Y-95477380D01*
X141014285Y-95429761D01*
X141061904Y-95382142D01*
X141109523Y-95286904D01*
X141109523Y-94477380D01*
X141490476Y-94477380D02*
X142109523Y-94477380D01*
X141776190Y-94858333D01*
X141919047Y-94858333D01*
X142014285Y-94905952D01*
X142061904Y-94953571D01*
X142109523Y-95048809D01*
X142109523Y-95286904D01*
X142061904Y-95382142D01*
X142014285Y-95429761D01*
X141919047Y-95477380D01*
X141633333Y-95477380D01*
X141538095Y-95429761D01*
X141490476Y-95382142D01*
%TD*%
M02*
