%TF.GenerationSoftware,KiCad,Pcbnew,(5.1.6)-1*%
%TF.CreationDate,2020-09-12T21:12:53+02:00*%
%TF.ProjectId,shock absorber control + IMU v3,73686f63-6b20-4616-9273-6f7262657220,rev?*%
%TF.SameCoordinates,Original*%
%TF.FileFunction,Copper,L2,Bot*%
%TF.FilePolarity,Positive*%
%FSLAX46Y46*%
G04 Gerber Fmt 4.6, Leading zero omitted, Abs format (unit mm)*
G04 Created by KiCad (PCBNEW (5.1.6)-1) date 2020-09-12 21:12:53*
%MOMM*%
%LPD*%
G01*
G04 APERTURE LIST*
%TA.AperFunction,ComponentPad*%
%ADD10O,1.700000X1.700000*%
%TD*%
%TA.AperFunction,ComponentPad*%
%ADD11R,1.700000X1.700000*%
%TD*%
%TA.AperFunction,ComponentPad*%
%ADD12C,0.100000*%
%TD*%
%TA.AperFunction,Conductor*%
%ADD13R,3.100000X2.410000*%
%TD*%
%TA.AperFunction,ViaPad*%
%ADD14C,0.500000*%
%TD*%
%TA.AperFunction,ViaPad*%
%ADD15C,1.000000*%
%TD*%
%TA.AperFunction,ViaPad*%
%ADD16C,0.800000*%
%TD*%
%TA.AperFunction,Conductor*%
%ADD17C,0.500000*%
%TD*%
%TA.AperFunction,Conductor*%
%ADD18C,0.250000*%
%TD*%
%TA.AperFunction,Conductor*%
%ADD19C,0.600000*%
%TD*%
%TA.AperFunction,Conductor*%
%ADD20C,0.254000*%
%TD*%
G04 APERTURE END LIST*
D10*
%TO.P,J3,4*%
%TO.N,/SWDIO*%
X157540000Y-104640000D03*
%TO.P,J3,3*%
%TO.N,/SWDCLK*%
X155000000Y-104640000D03*
%TO.P,J3,2*%
%TO.N,/UART_TX*%
X157540000Y-102100000D03*
D11*
%TO.P,J3,1*%
%TO.N,/UART_RX*%
X155000000Y-102100000D03*
%TD*%
%TO.P,J4,2*%
%TO.N,Net-(J4-Pad2)*%
%TA.AperFunction,ComponentPad*%
G36*
G01*
X157420010Y-85697092D02*
X157420010Y-85697092D01*
G75*
G02*
X157420010Y-84495010I601041J601041D01*
G01*
X157420010Y-84495010D01*
G75*
G02*
X158622092Y-84495010I601041J-601041D01*
G01*
X158622092Y-84495010D01*
G75*
G02*
X158622092Y-85697092I-601041J-601041D01*
G01*
X158622092Y-85697092D01*
G75*
G02*
X157420010Y-85697092I-601041J601041D01*
G01*
G37*
%TD.AperFunction*%
%TA.AperFunction,ComponentPad*%
D12*
%TO.P,J4,1*%
%TO.N,Net-(J4-Pad1)*%
G36*
X156225000Y-84502082D02*
G01*
X155022918Y-83300000D01*
X156225000Y-82097918D01*
X157427082Y-83300000D01*
X156225000Y-84502082D01*
G37*
%TD.AperFunction*%
%TD*%
%TO.P,J1,2*%
%TO.N,VCC*%
%TA.AperFunction,ComponentPad*%
G36*
G01*
X134276041Y-83901041D02*
X134276041Y-83901041D01*
G75*
G02*
X133073959Y-83901041I-601041J601041D01*
G01*
X133073959Y-83901041D01*
G75*
G02*
X133073959Y-82698959I601041J601041D01*
G01*
X133073959Y-82698959D01*
G75*
G02*
X134276041Y-82698959I601041J-601041D01*
G01*
X134276041Y-82698959D01*
G75*
G02*
X134276041Y-83901041I-601041J-601041D01*
G01*
G37*
%TD.AperFunction*%
%TA.AperFunction,ComponentPad*%
%TO.P,J1,1*%
%TO.N,GND*%
G36*
X133081031Y-85096051D02*
G01*
X131878949Y-86298133D01*
X130676867Y-85096051D01*
X131878949Y-83893969D01*
X133081031Y-85096051D01*
G37*
%TD.AperFunction*%
%TD*%
D10*
%TO.P,J2,2*%
%TO.N,Net-(J2-Pad2)*%
X143785000Y-78175000D03*
D11*
%TO.P,J2,1*%
%TO.N,Net-(J2-Pad1)*%
X146325000Y-78175000D03*
%TD*%
D13*
%TO.N,GND*%
%TO.C,U4*%
X145225000Y-84575000D03*
D14*
X146525000Y-83620000D03*
X146525000Y-85530000D03*
X145225000Y-83620000D03*
X145225000Y-85530000D03*
X143925000Y-83620000D03*
X143925000Y-85530000D03*
%TD*%
D15*
%TO.N,GND*%
X150900000Y-98100000D03*
%TO.N,+3V3*%
X148325000Y-97375000D03*
D16*
%TO.N,GND*%
X134425000Y-108125000D03*
X141350000Y-80300000D03*
X160650000Y-90275000D03*
X136225000Y-84825000D03*
X148300000Y-93550000D03*
X148275000Y-92550000D03*
X144075000Y-99450000D03*
X141950000Y-93750000D03*
X136425000Y-86800000D03*
X133375000Y-96475000D03*
X133500000Y-98650000D03*
X147075000Y-97025000D03*
X140600000Y-101625000D03*
X137900000Y-106925000D03*
X159800000Y-98400000D03*
X132100000Y-105200000D03*
X137725000Y-101200000D03*
X138800000Y-94175000D03*
X152174990Y-103950000D03*
X157775000Y-87725000D03*
X146150000Y-111750000D03*
X141575000Y-111475000D03*
D15*
X150375000Y-100700000D03*
D16*
%TO.N,+3V3*%
X139300000Y-104300000D03*
X152110000Y-101970000D03*
D15*
X151325000Y-90925000D03*
D16*
X139300000Y-100175000D03*
X139300000Y-109250000D03*
X148900000Y-110275000D03*
D15*
X148750000Y-79675000D03*
X141775000Y-83150000D03*
X159370000Y-93690000D03*
%TO.N,VCC*%
X149470000Y-86480000D03*
D16*
%TO.N,/I2C_SDA*%
X144575000Y-100200000D03*
X143475000Y-89075000D03*
%TO.N,/I2C_SCL*%
X145450000Y-99775000D03*
X144850000Y-90450000D03*
%TO.N,/SHDN*%
X147775000Y-107450000D03*
X154325000Y-96350000D03*
%TO.N,/MODE*%
X147775000Y-106475000D03*
X157680000Y-96625000D03*
%TO.N,Net-(J4-Pad2)*%
X156410000Y-93100000D03*
X154410000Y-86050000D03*
%TO.N,Net-(J4-Pad1)*%
X155140000Y-93110000D03*
X153320000Y-85020000D03*
%TO.N,/SWDCLK*%
X148550000Y-101500000D03*
%TO.N,/SWDIO*%
X147550000Y-104200000D03*
%TD*%
D17*
%TO.N,GND*%
X148508002Y-98450000D02*
X146975000Y-98450000D01*
X148758002Y-98200000D02*
X148508002Y-98450000D01*
X150900000Y-98100000D02*
X150800000Y-98200000D01*
X150800000Y-98200000D02*
X148758002Y-98200000D01*
D18*
%TO.N,+3V3*%
X139300000Y-100175000D02*
X139300000Y-104300000D01*
X139300000Y-104300000D02*
X139300000Y-109250000D01*
D19*
X141775000Y-83150000D02*
X143875000Y-81050000D01*
X147375000Y-81050000D02*
X148750000Y-79675000D01*
X143875000Y-81050000D02*
X147375000Y-81050000D01*
X159370000Y-93690000D02*
X158140000Y-94920000D01*
X158140000Y-94920000D02*
X153150000Y-94920000D01*
X151325000Y-93095000D02*
X151325000Y-90925000D01*
X153150000Y-94920000D02*
X151325000Y-93095000D01*
D18*
X152105000Y-101970000D02*
X152110000Y-101970000D01*
X140050000Y-110000000D02*
X139300000Y-109250000D01*
X147825000Y-110000000D02*
X140050000Y-110000000D01*
X148900000Y-110275000D02*
X148100000Y-110275000D01*
X148100000Y-110275000D02*
X147825000Y-110000000D01*
D19*
X148325000Y-96095000D02*
X151325000Y-93095000D01*
X148325000Y-97375000D02*
X148325000Y-96095000D01*
D18*
X152110000Y-101970000D02*
X152110000Y-100990000D01*
X152110000Y-100990000D02*
X152850000Y-100250000D01*
X152850000Y-100250000D02*
X156925000Y-100250000D01*
X156925000Y-100250000D02*
X158675000Y-98500000D01*
X158675000Y-98500000D02*
X158675000Y-97200000D01*
X159370000Y-96505000D02*
X159370000Y-93690000D01*
X158675000Y-97200000D02*
X159370000Y-96505000D01*
D19*
%TO.N,VCC*%
X133675000Y-83300000D02*
X138370000Y-83300000D01*
X138370000Y-83300000D02*
X142710000Y-87640000D01*
X148310000Y-87640000D02*
X149470000Y-86480000D01*
X142710000Y-87640000D02*
X148310000Y-87640000D01*
D18*
%TO.N,/I2C_SDA*%
X144750000Y-98300000D02*
X143475000Y-97025000D01*
X143475000Y-97025000D02*
X143475000Y-89075000D01*
X144575000Y-100200000D02*
X144750000Y-100025000D01*
X144750000Y-100025000D02*
X144750000Y-98300000D01*
%TO.N,/I2C_SCL*%
X144575000Y-96950000D02*
X145450000Y-97825000D01*
X145450000Y-97825000D02*
X145450000Y-99775000D01*
X144850000Y-90450000D02*
X144575000Y-90725000D01*
X144575000Y-90725000D02*
X144575000Y-96950000D01*
%TO.N,/SHDN*%
X151400000Y-99275000D02*
X154325000Y-96350000D01*
X147450000Y-107450000D02*
X145450000Y-105450000D01*
X147775000Y-107450000D02*
X147450000Y-107450000D01*
X145450000Y-105450000D02*
X145450000Y-101475000D01*
X145450000Y-101475000D02*
X147650000Y-99275000D01*
X147650000Y-99275000D02*
X151400000Y-99275000D01*
%TO.N,/MODE*%
X154630000Y-99675000D02*
X157680000Y-96625000D01*
X147925000Y-99675000D02*
X154630000Y-99675000D01*
X146100000Y-101500000D02*
X147925000Y-99675000D01*
X147775000Y-106475000D02*
X146100000Y-104800000D01*
X146100000Y-104800000D02*
X146100000Y-101500000D01*
%TO.N,Net-(J4-Pad2)*%
X156410000Y-93100000D02*
X156410000Y-88635000D01*
X156410000Y-88635000D02*
X154400000Y-86625000D01*
X154400000Y-86060000D02*
X154410000Y-86050000D01*
X154400000Y-86625000D02*
X154400000Y-86060000D01*
%TO.N,Net-(J4-Pad1)*%
X155140000Y-93110000D02*
X155140000Y-88565000D01*
X153320000Y-86745000D02*
X153320000Y-85020000D01*
X155140000Y-88565000D02*
X153320000Y-86745000D01*
%TO.N,/UART_RX*%
X155100000Y-102415000D02*
X155100000Y-102400000D01*
X154840000Y-102675000D02*
X155100000Y-102415000D01*
%TO.N,/SWDCLK*%
X148550000Y-101500000D02*
X148550000Y-103225000D01*
X148550000Y-103225000D02*
X150275000Y-104950000D01*
X150275000Y-104950000D02*
X153225000Y-104950000D01*
X153535000Y-104640000D02*
X155000000Y-104640000D01*
X153225000Y-104950000D02*
X153535000Y-104640000D01*
%TO.N,/SWDIO*%
X147550000Y-104200000D02*
X149425000Y-106075000D01*
X156105000Y-106075000D02*
X157540000Y-104640000D01*
X149425000Y-106075000D02*
X156105000Y-106075000D01*
%TD*%
D20*
%TO.N,GND*%
G36*
X142300000Y-78028740D02*
G01*
X142300000Y-78321260D01*
X142357068Y-78608158D01*
X142469010Y-78878411D01*
X142631525Y-79121632D01*
X142838368Y-79328475D01*
X143081589Y-79490990D01*
X143351842Y-79602932D01*
X143638740Y-79660000D01*
X143931260Y-79660000D01*
X144218158Y-79602932D01*
X144488411Y-79490990D01*
X144731632Y-79328475D01*
X144863487Y-79196620D01*
X144885498Y-79269180D01*
X144944463Y-79379494D01*
X145023815Y-79476185D01*
X145120506Y-79555537D01*
X145230820Y-79614502D01*
X145350518Y-79650812D01*
X145475000Y-79663072D01*
X147175000Y-79663072D01*
X147299482Y-79650812D01*
X147419180Y-79614502D01*
X147529494Y-79555537D01*
X147626185Y-79476185D01*
X147634270Y-79466333D01*
X147633747Y-79468964D01*
X146987711Y-80115000D01*
X143920924Y-80115000D01*
X143874999Y-80110477D01*
X143829074Y-80115000D01*
X143829068Y-80115000D01*
X143710110Y-80126717D01*
X143691707Y-80128529D01*
X143638243Y-80144747D01*
X143515460Y-80181993D01*
X143353028Y-80268814D01*
X143210656Y-80385656D01*
X143181376Y-80421334D01*
X141568964Y-82033747D01*
X141443933Y-82058617D01*
X141237376Y-82144176D01*
X141051480Y-82268388D01*
X140893388Y-82426480D01*
X140769176Y-82612376D01*
X140683617Y-82818933D01*
X140640000Y-83038212D01*
X140640000Y-83261788D01*
X140683617Y-83481067D01*
X140769176Y-83687624D01*
X140893388Y-83873520D01*
X141051480Y-84031612D01*
X141237376Y-84155824D01*
X141443933Y-84241383D01*
X141663212Y-84285000D01*
X141886788Y-84285000D01*
X142106067Y-84241383D01*
X142312624Y-84155824D01*
X142498520Y-84031612D01*
X142656612Y-83873520D01*
X142780824Y-83687624D01*
X142866383Y-83481067D01*
X142891253Y-83356036D01*
X143069835Y-83177454D01*
X143049188Y-83245518D01*
X143036928Y-83370000D01*
X143040000Y-84289250D01*
X143198750Y-84448000D01*
X143611445Y-84448000D01*
X143667974Y-84471328D01*
X143838998Y-84505113D01*
X144013328Y-84504884D01*
X144184264Y-84470649D01*
X144238944Y-84448000D01*
X144911445Y-84448000D01*
X144967974Y-84471328D01*
X145138998Y-84505113D01*
X145313328Y-84504884D01*
X145484264Y-84470649D01*
X145538944Y-84448000D01*
X146211445Y-84448000D01*
X146267974Y-84471328D01*
X146438998Y-84505113D01*
X146613328Y-84504884D01*
X146784264Y-84470649D01*
X146838944Y-84448000D01*
X147251250Y-84448000D01*
X147410000Y-84289250D01*
X147413072Y-83370000D01*
X147400812Y-83245518D01*
X147364502Y-83125820D01*
X147305537Y-83015506D01*
X147226185Y-82918815D01*
X147129494Y-82839463D01*
X147019180Y-82780498D01*
X146899482Y-82744188D01*
X146775000Y-82731928D01*
X145510750Y-82735000D01*
X145477894Y-82767856D01*
X145352002Y-82742986D01*
X145352002Y-82735000D01*
X145311574Y-82735000D01*
X145311002Y-82734887D01*
X145224979Y-82735000D01*
X145097998Y-82735000D01*
X145097998Y-82742862D01*
X144972289Y-82768039D01*
X144939250Y-82735000D01*
X143675000Y-82731928D01*
X143550518Y-82744188D01*
X143482455Y-82764835D01*
X144262290Y-81985000D01*
X147329068Y-81985000D01*
X147375000Y-81989524D01*
X147420932Y-81985000D01*
X147558292Y-81971471D01*
X147734540Y-81918007D01*
X147896972Y-81831186D01*
X148039344Y-81714344D01*
X148068630Y-81678659D01*
X148956036Y-80791253D01*
X149081067Y-80766383D01*
X149287624Y-80680824D01*
X149473520Y-80556612D01*
X149631612Y-80398520D01*
X149755824Y-80212624D01*
X149841383Y-80006067D01*
X149885000Y-79786788D01*
X149885000Y-79563212D01*
X149841383Y-79343933D01*
X149755824Y-79137376D01*
X149631612Y-78951480D01*
X149473520Y-78793388D01*
X149287624Y-78669176D01*
X149081067Y-78583617D01*
X148861788Y-78540000D01*
X148638212Y-78540000D01*
X148418933Y-78583617D01*
X148212376Y-78669176D01*
X148026480Y-78793388D01*
X147868388Y-78951480D01*
X147812002Y-79035868D01*
X147813072Y-79025000D01*
X147813072Y-77901980D01*
X148633148Y-78037787D01*
X150205551Y-78452533D01*
X151732207Y-79012698D01*
X153199701Y-79713361D01*
X154595135Y-80548363D01*
X155906246Y-81510366D01*
X155932875Y-81534043D01*
X155870506Y-81567381D01*
X155773815Y-81646733D01*
X154571733Y-82848815D01*
X154492381Y-82945506D01*
X154433416Y-83055820D01*
X154397106Y-83175518D01*
X154384846Y-83300000D01*
X154397106Y-83424482D01*
X154433416Y-83544180D01*
X154492381Y-83654494D01*
X154571733Y-83751185D01*
X155773815Y-84953267D01*
X155870506Y-85032619D01*
X155980820Y-85091584D01*
X156100518Y-85127894D01*
X156225000Y-85140154D01*
X156349482Y-85127894D01*
X156469180Y-85091584D01*
X156536051Y-85055840D01*
X156536051Y-85242311D01*
X156593119Y-85529209D01*
X156705061Y-85799462D01*
X156867576Y-86042683D01*
X157074419Y-86249526D01*
X157317640Y-86412041D01*
X157587893Y-86523983D01*
X157874791Y-86581051D01*
X158167311Y-86581051D01*
X158454209Y-86523983D01*
X158724462Y-86412041D01*
X158967683Y-86249526D01*
X159174526Y-86042683D01*
X159337041Y-85799462D01*
X159448983Y-85529209D01*
X159464369Y-85451858D01*
X160090216Y-86444195D01*
X160825088Y-87894859D01*
X161420888Y-89407964D01*
X161872381Y-90970212D01*
X162175599Y-92567874D01*
X162327877Y-94186910D01*
X162327877Y-95813090D01*
X162175599Y-97432126D01*
X161872381Y-99029788D01*
X161420888Y-100592036D01*
X160825088Y-102105141D01*
X160090216Y-103555805D01*
X159222731Y-104931281D01*
X158230256Y-106219481D01*
X157121513Y-107409083D01*
X155906246Y-108489634D01*
X154597085Y-109450206D01*
X154610000Y-109385279D01*
X154610000Y-108964721D01*
X154527953Y-108552244D01*
X154367012Y-108163698D01*
X154133363Y-107814017D01*
X153835983Y-107516637D01*
X153486302Y-107282988D01*
X153097756Y-107122047D01*
X152685279Y-107040000D01*
X152264721Y-107040000D01*
X151852244Y-107122047D01*
X151463698Y-107282988D01*
X151114017Y-107516637D01*
X150816637Y-107814017D01*
X150582988Y-108163698D01*
X150422047Y-108552244D01*
X150340000Y-108964721D01*
X150340000Y-109385279D01*
X150422047Y-109797756D01*
X150582988Y-110186302D01*
X150816637Y-110535983D01*
X151114017Y-110833363D01*
X151463698Y-111067012D01*
X151487781Y-111076987D01*
X150205551Y-111547467D01*
X148633148Y-111962213D01*
X147028817Y-112227894D01*
X145406657Y-112342176D01*
X143780923Y-112304054D01*
X142165902Y-112113863D01*
X140575788Y-111773276D01*
X139024553Y-111285284D01*
X137525831Y-110654176D01*
X136092792Y-109885499D01*
X134738031Y-108986008D01*
X133473451Y-107963607D01*
X132310168Y-106827281D01*
X131258403Y-105587017D01*
X130327399Y-104253714D01*
X129525340Y-102839089D01*
X128859272Y-101355574D01*
X128422520Y-100073061D01*
X138265000Y-100073061D01*
X138265000Y-100276939D01*
X138304774Y-100476898D01*
X138382795Y-100665256D01*
X138496063Y-100834774D01*
X138540000Y-100878711D01*
X138540001Y-103596288D01*
X138496063Y-103640226D01*
X138382795Y-103809744D01*
X138304774Y-103998102D01*
X138265000Y-104198061D01*
X138265000Y-104401939D01*
X138304774Y-104601898D01*
X138382795Y-104790256D01*
X138496063Y-104959774D01*
X138540000Y-105003711D01*
X138540001Y-108546288D01*
X138496063Y-108590226D01*
X138382795Y-108759744D01*
X138304774Y-108948102D01*
X138265000Y-109148061D01*
X138265000Y-109351939D01*
X138304774Y-109551898D01*
X138382795Y-109740256D01*
X138496063Y-109909774D01*
X138640226Y-110053937D01*
X138809744Y-110167205D01*
X138998102Y-110245226D01*
X139198061Y-110285000D01*
X139260198Y-110285000D01*
X139486201Y-110511002D01*
X139509999Y-110540001D01*
X139625724Y-110634974D01*
X139757753Y-110705546D01*
X139901014Y-110749003D01*
X140012667Y-110760000D01*
X140012676Y-110760000D01*
X140049999Y-110763676D01*
X140087322Y-110760000D01*
X147510199Y-110760000D01*
X147536196Y-110785997D01*
X147559999Y-110815001D01*
X147675724Y-110909974D01*
X147807753Y-110980546D01*
X147951014Y-111024003D01*
X148062667Y-111035000D01*
X148062675Y-111035000D01*
X148100000Y-111038676D01*
X148137325Y-111035000D01*
X148196289Y-111035000D01*
X148240226Y-111078937D01*
X148409744Y-111192205D01*
X148598102Y-111270226D01*
X148798061Y-111310000D01*
X149001939Y-111310000D01*
X149201898Y-111270226D01*
X149390256Y-111192205D01*
X149559774Y-111078937D01*
X149703937Y-110934774D01*
X149817205Y-110765256D01*
X149895226Y-110576898D01*
X149935000Y-110376939D01*
X149935000Y-110173061D01*
X149895226Y-109973102D01*
X149817205Y-109784744D01*
X149703937Y-109615226D01*
X149559774Y-109471063D01*
X149390256Y-109357795D01*
X149201898Y-109279774D01*
X149001939Y-109240000D01*
X148798061Y-109240000D01*
X148598102Y-109279774D01*
X148409744Y-109357795D01*
X148316435Y-109420142D01*
X148249276Y-109365026D01*
X148117247Y-109294454D01*
X147973986Y-109250997D01*
X147862333Y-109240000D01*
X147862322Y-109240000D01*
X147825000Y-109236324D01*
X147787678Y-109240000D01*
X140364802Y-109240000D01*
X140335000Y-109210198D01*
X140335000Y-109148061D01*
X140295226Y-108948102D01*
X140217205Y-108759744D01*
X140103937Y-108590226D01*
X140060000Y-108546289D01*
X140060000Y-105003711D01*
X140103937Y-104959774D01*
X140217205Y-104790256D01*
X140295226Y-104601898D01*
X140335000Y-104401939D01*
X140335000Y-104198061D01*
X140295226Y-103998102D01*
X140217205Y-103809744D01*
X140103937Y-103640226D01*
X140060000Y-103596289D01*
X140060000Y-100878711D01*
X140103937Y-100834774D01*
X140217205Y-100665256D01*
X140295226Y-100476898D01*
X140335000Y-100276939D01*
X140335000Y-100073061D01*
X140295226Y-99873102D01*
X140217205Y-99684744D01*
X140103937Y-99515226D01*
X139959774Y-99371063D01*
X139790256Y-99257795D01*
X139601898Y-99179774D01*
X139401939Y-99140000D01*
X139198061Y-99140000D01*
X138998102Y-99179774D01*
X138809744Y-99257795D01*
X138640226Y-99371063D01*
X138496063Y-99515226D01*
X138382795Y-99684744D01*
X138304774Y-99873102D01*
X138265000Y-100073061D01*
X128422520Y-100073061D01*
X128335049Y-99816205D01*
X127957278Y-98234512D01*
X127729280Y-96624394D01*
X127653057Y-95000000D01*
X127729280Y-93375606D01*
X127957278Y-91765488D01*
X128335049Y-90183795D01*
X128859272Y-88644426D01*
X129525340Y-87160911D01*
X130113440Y-86123654D01*
X131030951Y-86123654D01*
X131030951Y-86348160D01*
X131427764Y-86749318D01*
X131524455Y-86828671D01*
X131634769Y-86887635D01*
X131754468Y-86923944D01*
X131878949Y-86936204D01*
X132003430Y-86923944D01*
X132123129Y-86887635D01*
X132233443Y-86828671D01*
X132330134Y-86749318D01*
X132726947Y-86348160D01*
X132726947Y-86123654D01*
X131878949Y-85275656D01*
X131030951Y-86123654D01*
X130113440Y-86123654D01*
X130327399Y-85746286D01*
X130368053Y-85688065D01*
X130626840Y-85944049D01*
X130851346Y-85944049D01*
X131699344Y-85096051D01*
X131685202Y-85081909D01*
X131864807Y-84902304D01*
X131878949Y-84916446D01*
X131893092Y-84902304D01*
X132072697Y-85081909D01*
X132058554Y-85096051D01*
X132906552Y-85944049D01*
X133131058Y-85944049D01*
X133532216Y-85547236D01*
X133611569Y-85450545D01*
X133670533Y-85340231D01*
X133706842Y-85220532D01*
X133719102Y-85096051D01*
X133706842Y-84971570D01*
X133670533Y-84851871D01*
X133634790Y-84785000D01*
X133821260Y-84785000D01*
X134108158Y-84727932D01*
X134378411Y-84615990D01*
X134621632Y-84453475D01*
X134828475Y-84246632D01*
X134836247Y-84235000D01*
X137982711Y-84235000D01*
X142016370Y-88268659D01*
X142045656Y-88304344D01*
X142188028Y-88421186D01*
X142350460Y-88508007D01*
X142526708Y-88561471D01*
X142570466Y-88565781D01*
X142557795Y-88584744D01*
X142479774Y-88773102D01*
X142440000Y-88973061D01*
X142440000Y-89176939D01*
X142479774Y-89376898D01*
X142557795Y-89565256D01*
X142671063Y-89734774D01*
X142715001Y-89778712D01*
X142715000Y-96987678D01*
X142711324Y-97025000D01*
X142715000Y-97062322D01*
X142715000Y-97062332D01*
X142725997Y-97173985D01*
X142754721Y-97268677D01*
X142769454Y-97317246D01*
X142840026Y-97449276D01*
X142870812Y-97486788D01*
X142934999Y-97565001D01*
X142964003Y-97588804D01*
X143990001Y-98614803D01*
X143990000Y-99346100D01*
X143915226Y-99396063D01*
X143771063Y-99540226D01*
X143657795Y-99709744D01*
X143579774Y-99898102D01*
X143540000Y-100098061D01*
X143540000Y-100301939D01*
X143579774Y-100501898D01*
X143657795Y-100690256D01*
X143771063Y-100859774D01*
X143915226Y-101003937D01*
X144084744Y-101117205D01*
X144273102Y-101195226D01*
X144473061Y-101235000D01*
X144676939Y-101235000D01*
X144731924Y-101224063D01*
X144700998Y-101326015D01*
X144686324Y-101475000D01*
X144690001Y-101512332D01*
X144690000Y-105412677D01*
X144686324Y-105450000D01*
X144690000Y-105487322D01*
X144690000Y-105487332D01*
X144700997Y-105598985D01*
X144735788Y-105713676D01*
X144744454Y-105742246D01*
X144815026Y-105874276D01*
X144854871Y-105922826D01*
X144909999Y-105990001D01*
X144939003Y-106013804D01*
X146852379Y-107927181D01*
X146857795Y-107940256D01*
X146971063Y-108109774D01*
X147115226Y-108253937D01*
X147284744Y-108367205D01*
X147473102Y-108445226D01*
X147673061Y-108485000D01*
X147876939Y-108485000D01*
X148076898Y-108445226D01*
X148265256Y-108367205D01*
X148434774Y-108253937D01*
X148578937Y-108109774D01*
X148692205Y-107940256D01*
X148770226Y-107751898D01*
X148810000Y-107551939D01*
X148810000Y-107348061D01*
X148770226Y-107148102D01*
X148693347Y-106962500D01*
X148770226Y-106776898D01*
X148810000Y-106576939D01*
X148810000Y-106534803D01*
X148861205Y-106586008D01*
X148884999Y-106615001D01*
X148913992Y-106638795D01*
X148913996Y-106638799D01*
X148984685Y-106696811D01*
X149000724Y-106709974D01*
X149132753Y-106780546D01*
X149276014Y-106824003D01*
X149387667Y-106835000D01*
X149387676Y-106835000D01*
X149424999Y-106838676D01*
X149462322Y-106835000D01*
X156067678Y-106835000D01*
X156105000Y-106838676D01*
X156142322Y-106835000D01*
X156142333Y-106835000D01*
X156253986Y-106824003D01*
X156397247Y-106780546D01*
X156529276Y-106709974D01*
X156645001Y-106615001D01*
X156668803Y-106585998D01*
X157173592Y-106081210D01*
X157393740Y-106125000D01*
X157686260Y-106125000D01*
X157973158Y-106067932D01*
X158243411Y-105955990D01*
X158486632Y-105793475D01*
X158693475Y-105586632D01*
X158855990Y-105343411D01*
X158967932Y-105073158D01*
X159025000Y-104786260D01*
X159025000Y-104493740D01*
X158967932Y-104206842D01*
X158855990Y-103936589D01*
X158693475Y-103693368D01*
X158486632Y-103486525D01*
X158312240Y-103370000D01*
X158486632Y-103253475D01*
X158693475Y-103046632D01*
X158855990Y-102803411D01*
X158967932Y-102533158D01*
X159025000Y-102246260D01*
X159025000Y-101953740D01*
X158967932Y-101666842D01*
X158855990Y-101396589D01*
X158693475Y-101153368D01*
X158486632Y-100946525D01*
X158243411Y-100784010D01*
X157973158Y-100672068D01*
X157686260Y-100615000D01*
X157634801Y-100615000D01*
X159186004Y-99063798D01*
X159215001Y-99040001D01*
X159309974Y-98924276D01*
X159380546Y-98792247D01*
X159424003Y-98648986D01*
X159435000Y-98537333D01*
X159435000Y-98537325D01*
X159438676Y-98500000D01*
X159435000Y-98462675D01*
X159435000Y-97514802D01*
X159881009Y-97068794D01*
X159910001Y-97045001D01*
X159933795Y-97016008D01*
X159933799Y-97016004D01*
X160004973Y-96929277D01*
X160004974Y-96929276D01*
X160075546Y-96797247D01*
X160119003Y-96653986D01*
X160130000Y-96542333D01*
X160130000Y-96542324D01*
X160133676Y-96505001D01*
X160130000Y-96467678D01*
X160130000Y-94535132D01*
X160251612Y-94413520D01*
X160375824Y-94227624D01*
X160461383Y-94021067D01*
X160505000Y-93801788D01*
X160505000Y-93578212D01*
X160461383Y-93358933D01*
X160375824Y-93152376D01*
X160251612Y-92966480D01*
X160093520Y-92808388D01*
X159907624Y-92684176D01*
X159701067Y-92598617D01*
X159481788Y-92555000D01*
X159258212Y-92555000D01*
X159038933Y-92598617D01*
X158832376Y-92684176D01*
X158646480Y-92808388D01*
X158488388Y-92966480D01*
X158364176Y-93152376D01*
X158278617Y-93358933D01*
X158253747Y-93483964D01*
X157752711Y-93985000D01*
X156948454Y-93985000D01*
X157069774Y-93903937D01*
X157213937Y-93759774D01*
X157327205Y-93590256D01*
X157405226Y-93401898D01*
X157445000Y-93201939D01*
X157445000Y-92998061D01*
X157405226Y-92798102D01*
X157327205Y-92609744D01*
X157213937Y-92440226D01*
X157170000Y-92396289D01*
X157170000Y-88672322D01*
X157173676Y-88634999D01*
X157170000Y-88597676D01*
X157170000Y-88597667D01*
X157159003Y-88486014D01*
X157115546Y-88342753D01*
X157044974Y-88210724D01*
X156950001Y-88094999D01*
X156921003Y-88071201D01*
X155345614Y-86495813D01*
X155405226Y-86351898D01*
X155445000Y-86151939D01*
X155445000Y-85948061D01*
X155405226Y-85748102D01*
X155327205Y-85559744D01*
X155213937Y-85390226D01*
X155069774Y-85246063D01*
X154900256Y-85132795D01*
X154711898Y-85054774D01*
X154511939Y-85015000D01*
X154355000Y-85015000D01*
X154355000Y-84918061D01*
X154315226Y-84718102D01*
X154237205Y-84529744D01*
X154123937Y-84360226D01*
X153979774Y-84216063D01*
X153810256Y-84102795D01*
X153621898Y-84024774D01*
X153421939Y-83985000D01*
X153218061Y-83985000D01*
X153018102Y-84024774D01*
X152829744Y-84102795D01*
X152660226Y-84216063D01*
X152516063Y-84360226D01*
X152402795Y-84529744D01*
X152324774Y-84718102D01*
X152285000Y-84918061D01*
X152285000Y-85121939D01*
X152324774Y-85321898D01*
X152402795Y-85510256D01*
X152516063Y-85679774D01*
X152560001Y-85723712D01*
X152560000Y-86707677D01*
X152556324Y-86745000D01*
X152560000Y-86782322D01*
X152560000Y-86782332D01*
X152570997Y-86893985D01*
X152603754Y-87001972D01*
X152614454Y-87037246D01*
X152685026Y-87169276D01*
X152713130Y-87203520D01*
X152779999Y-87285001D01*
X152809003Y-87308804D01*
X154380001Y-88879803D01*
X154380000Y-92406289D01*
X154336063Y-92450226D01*
X154222795Y-92619744D01*
X154144774Y-92808102D01*
X154105000Y-93008061D01*
X154105000Y-93211939D01*
X154144774Y-93411898D01*
X154222795Y-93600256D01*
X154336063Y-93769774D01*
X154480226Y-93913937D01*
X154586580Y-93985000D01*
X153537289Y-93985000D01*
X152260000Y-92707711D01*
X152260000Y-91568619D01*
X152330824Y-91462624D01*
X152416383Y-91256067D01*
X152460000Y-91036788D01*
X152460000Y-90813212D01*
X152416383Y-90593933D01*
X152330824Y-90387376D01*
X152206612Y-90201480D01*
X152048520Y-90043388D01*
X151862624Y-89919176D01*
X151656067Y-89833617D01*
X151436788Y-89790000D01*
X151213212Y-89790000D01*
X150993933Y-89833617D01*
X150787376Y-89919176D01*
X150601480Y-90043388D01*
X150443388Y-90201480D01*
X150319176Y-90387376D01*
X150233617Y-90593933D01*
X150190000Y-90813212D01*
X150190000Y-91036788D01*
X150233617Y-91256067D01*
X150319176Y-91462624D01*
X150390001Y-91568620D01*
X150390000Y-92707711D01*
X147696336Y-95401375D01*
X147660657Y-95430656D01*
X147543815Y-95573028D01*
X147481172Y-95690226D01*
X147456994Y-95735460D01*
X147403529Y-95911709D01*
X147385476Y-96095000D01*
X147390001Y-96140941D01*
X147390001Y-96731380D01*
X147319176Y-96837376D01*
X147233617Y-97043933D01*
X147190000Y-97263212D01*
X147190000Y-97486788D01*
X147233617Y-97706067D01*
X147319176Y-97912624D01*
X147443388Y-98098520D01*
X147601480Y-98256612D01*
X147787376Y-98380824D01*
X147993933Y-98466383D01*
X148213212Y-98510000D01*
X148436788Y-98510000D01*
X148656067Y-98466383D01*
X148862624Y-98380824D01*
X149048520Y-98256612D01*
X149206612Y-98098520D01*
X149330824Y-97912624D01*
X149416383Y-97706067D01*
X149460000Y-97486788D01*
X149460000Y-97263212D01*
X149416383Y-97043933D01*
X149330824Y-96837376D01*
X149260000Y-96731381D01*
X149260000Y-96482289D01*
X151325000Y-94417289D01*
X152456370Y-95548659D01*
X152485656Y-95584344D01*
X152628028Y-95701186D01*
X152790460Y-95788007D01*
X152862828Y-95809959D01*
X152966708Y-95841472D01*
X153150000Y-95859524D01*
X153195935Y-95855000D01*
X153410965Y-95855000D01*
X153407795Y-95859744D01*
X153329774Y-96048102D01*
X153290000Y-96248061D01*
X153290000Y-96310198D01*
X151085199Y-98515000D01*
X147687323Y-98515000D01*
X147650000Y-98511324D01*
X147612677Y-98515000D01*
X147612667Y-98515000D01*
X147501014Y-98525997D01*
X147357753Y-98569454D01*
X147225724Y-98640026D01*
X147109999Y-98734999D01*
X147086201Y-98763997D01*
X146425271Y-99424927D01*
X146367205Y-99284744D01*
X146253937Y-99115226D01*
X146210000Y-99071289D01*
X146210000Y-97862323D01*
X146213676Y-97825000D01*
X146210000Y-97787677D01*
X146210000Y-97787667D01*
X146199003Y-97676014D01*
X146155546Y-97532753D01*
X146084974Y-97400724D01*
X145990001Y-97284999D01*
X145961004Y-97261202D01*
X145335000Y-96635199D01*
X145335000Y-91369382D01*
X145340256Y-91367205D01*
X145509774Y-91253937D01*
X145653937Y-91109774D01*
X145767205Y-90940256D01*
X145845226Y-90751898D01*
X145885000Y-90551939D01*
X145885000Y-90348061D01*
X145845226Y-90148102D01*
X145767205Y-89959744D01*
X145653937Y-89790226D01*
X145509774Y-89646063D01*
X145340256Y-89532795D01*
X145151898Y-89454774D01*
X144951939Y-89415000D01*
X144748061Y-89415000D01*
X144548102Y-89454774D01*
X144415159Y-89509841D01*
X144470226Y-89376898D01*
X144510000Y-89176939D01*
X144510000Y-88973061D01*
X144470226Y-88773102D01*
X144392205Y-88584744D01*
X144385694Y-88575000D01*
X148264068Y-88575000D01*
X148310000Y-88579524D01*
X148355932Y-88575000D01*
X148493292Y-88561471D01*
X148669540Y-88508007D01*
X148831972Y-88421186D01*
X148974344Y-88304344D01*
X149003630Y-88268659D01*
X149676036Y-87596253D01*
X149801067Y-87571383D01*
X150007624Y-87485824D01*
X150193520Y-87361612D01*
X150351612Y-87203520D01*
X150475824Y-87017624D01*
X150561383Y-86811067D01*
X150605000Y-86591788D01*
X150605000Y-86368212D01*
X150561383Y-86148933D01*
X150475824Y-85942376D01*
X150351612Y-85756480D01*
X150193520Y-85598388D01*
X150007624Y-85474176D01*
X149801067Y-85388617D01*
X149581788Y-85345000D01*
X149358212Y-85345000D01*
X149138933Y-85388617D01*
X148932376Y-85474176D01*
X148746480Y-85598388D01*
X148588388Y-85756480D01*
X148464176Y-85942376D01*
X148378617Y-86148933D01*
X148353747Y-86273964D01*
X147922711Y-86705000D01*
X143097289Y-86705000D01*
X142172289Y-85780000D01*
X143036928Y-85780000D01*
X143049188Y-85904482D01*
X143085498Y-86024180D01*
X143144463Y-86134494D01*
X143223815Y-86231185D01*
X143320506Y-86310537D01*
X143430820Y-86369502D01*
X143550518Y-86405812D01*
X143675000Y-86418072D01*
X144939250Y-86415000D01*
X144972106Y-86382144D01*
X145138998Y-86415113D01*
X145313328Y-86414884D01*
X145477711Y-86381961D01*
X145510750Y-86415000D01*
X146775000Y-86418072D01*
X146899482Y-86405812D01*
X147019180Y-86369502D01*
X147129494Y-86310537D01*
X147226185Y-86231185D01*
X147305537Y-86134494D01*
X147364502Y-86024180D01*
X147400812Y-85904482D01*
X147413072Y-85780000D01*
X147410000Y-84860750D01*
X147251250Y-84702000D01*
X146838555Y-84702000D01*
X146782026Y-84678672D01*
X146611002Y-84644887D01*
X146436672Y-84645116D01*
X146265736Y-84679351D01*
X146211056Y-84702000D01*
X145538555Y-84702000D01*
X145482026Y-84678672D01*
X145311002Y-84644887D01*
X145136672Y-84645116D01*
X144965736Y-84679351D01*
X144911056Y-84702000D01*
X144238555Y-84702000D01*
X144182026Y-84678672D01*
X144011002Y-84644887D01*
X143836672Y-84645116D01*
X143665736Y-84679351D01*
X143611056Y-84702000D01*
X143198750Y-84702000D01*
X143040000Y-84860750D01*
X143036928Y-85780000D01*
X142172289Y-85780000D01*
X139431056Y-83038767D01*
X139730983Y-82838363D01*
X140028363Y-82540983D01*
X140262012Y-82191302D01*
X140422953Y-81802756D01*
X140505000Y-81390279D01*
X140505000Y-80969721D01*
X140422953Y-80557244D01*
X140262012Y-80168698D01*
X140028363Y-79819017D01*
X139730983Y-79521637D01*
X139381302Y-79287988D01*
X138992756Y-79127047D01*
X138580279Y-79045000D01*
X138240212Y-79045000D01*
X139024553Y-78714716D01*
X140575788Y-78226724D01*
X142165902Y-77886137D01*
X142332263Y-77866546D01*
X142300000Y-78028740D01*
G37*
X142300000Y-78028740D02*
X142300000Y-78321260D01*
X142357068Y-78608158D01*
X142469010Y-78878411D01*
X142631525Y-79121632D01*
X142838368Y-79328475D01*
X143081589Y-79490990D01*
X143351842Y-79602932D01*
X143638740Y-79660000D01*
X143931260Y-79660000D01*
X144218158Y-79602932D01*
X144488411Y-79490990D01*
X144731632Y-79328475D01*
X144863487Y-79196620D01*
X144885498Y-79269180D01*
X144944463Y-79379494D01*
X145023815Y-79476185D01*
X145120506Y-79555537D01*
X145230820Y-79614502D01*
X145350518Y-79650812D01*
X145475000Y-79663072D01*
X147175000Y-79663072D01*
X147299482Y-79650812D01*
X147419180Y-79614502D01*
X147529494Y-79555537D01*
X147626185Y-79476185D01*
X147634270Y-79466333D01*
X147633747Y-79468964D01*
X146987711Y-80115000D01*
X143920924Y-80115000D01*
X143874999Y-80110477D01*
X143829074Y-80115000D01*
X143829068Y-80115000D01*
X143710110Y-80126717D01*
X143691707Y-80128529D01*
X143638243Y-80144747D01*
X143515460Y-80181993D01*
X143353028Y-80268814D01*
X143210656Y-80385656D01*
X143181376Y-80421334D01*
X141568964Y-82033747D01*
X141443933Y-82058617D01*
X141237376Y-82144176D01*
X141051480Y-82268388D01*
X140893388Y-82426480D01*
X140769176Y-82612376D01*
X140683617Y-82818933D01*
X140640000Y-83038212D01*
X140640000Y-83261788D01*
X140683617Y-83481067D01*
X140769176Y-83687624D01*
X140893388Y-83873520D01*
X141051480Y-84031612D01*
X141237376Y-84155824D01*
X141443933Y-84241383D01*
X141663212Y-84285000D01*
X141886788Y-84285000D01*
X142106067Y-84241383D01*
X142312624Y-84155824D01*
X142498520Y-84031612D01*
X142656612Y-83873520D01*
X142780824Y-83687624D01*
X142866383Y-83481067D01*
X142891253Y-83356036D01*
X143069835Y-83177454D01*
X143049188Y-83245518D01*
X143036928Y-83370000D01*
X143040000Y-84289250D01*
X143198750Y-84448000D01*
X143611445Y-84448000D01*
X143667974Y-84471328D01*
X143838998Y-84505113D01*
X144013328Y-84504884D01*
X144184264Y-84470649D01*
X144238944Y-84448000D01*
X144911445Y-84448000D01*
X144967974Y-84471328D01*
X145138998Y-84505113D01*
X145313328Y-84504884D01*
X145484264Y-84470649D01*
X145538944Y-84448000D01*
X146211445Y-84448000D01*
X146267974Y-84471328D01*
X146438998Y-84505113D01*
X146613328Y-84504884D01*
X146784264Y-84470649D01*
X146838944Y-84448000D01*
X147251250Y-84448000D01*
X147410000Y-84289250D01*
X147413072Y-83370000D01*
X147400812Y-83245518D01*
X147364502Y-83125820D01*
X147305537Y-83015506D01*
X147226185Y-82918815D01*
X147129494Y-82839463D01*
X147019180Y-82780498D01*
X146899482Y-82744188D01*
X146775000Y-82731928D01*
X145510750Y-82735000D01*
X145477894Y-82767856D01*
X145352002Y-82742986D01*
X145352002Y-82735000D01*
X145311574Y-82735000D01*
X145311002Y-82734887D01*
X145224979Y-82735000D01*
X145097998Y-82735000D01*
X145097998Y-82742862D01*
X144972289Y-82768039D01*
X144939250Y-82735000D01*
X143675000Y-82731928D01*
X143550518Y-82744188D01*
X143482455Y-82764835D01*
X144262290Y-81985000D01*
X147329068Y-81985000D01*
X147375000Y-81989524D01*
X147420932Y-81985000D01*
X147558292Y-81971471D01*
X147734540Y-81918007D01*
X147896972Y-81831186D01*
X148039344Y-81714344D01*
X148068630Y-81678659D01*
X148956036Y-80791253D01*
X149081067Y-80766383D01*
X149287624Y-80680824D01*
X149473520Y-80556612D01*
X149631612Y-80398520D01*
X149755824Y-80212624D01*
X149841383Y-80006067D01*
X149885000Y-79786788D01*
X149885000Y-79563212D01*
X149841383Y-79343933D01*
X149755824Y-79137376D01*
X149631612Y-78951480D01*
X149473520Y-78793388D01*
X149287624Y-78669176D01*
X149081067Y-78583617D01*
X148861788Y-78540000D01*
X148638212Y-78540000D01*
X148418933Y-78583617D01*
X148212376Y-78669176D01*
X148026480Y-78793388D01*
X147868388Y-78951480D01*
X147812002Y-79035868D01*
X147813072Y-79025000D01*
X147813072Y-77901980D01*
X148633148Y-78037787D01*
X150205551Y-78452533D01*
X151732207Y-79012698D01*
X153199701Y-79713361D01*
X154595135Y-80548363D01*
X155906246Y-81510366D01*
X155932875Y-81534043D01*
X155870506Y-81567381D01*
X155773815Y-81646733D01*
X154571733Y-82848815D01*
X154492381Y-82945506D01*
X154433416Y-83055820D01*
X154397106Y-83175518D01*
X154384846Y-83300000D01*
X154397106Y-83424482D01*
X154433416Y-83544180D01*
X154492381Y-83654494D01*
X154571733Y-83751185D01*
X155773815Y-84953267D01*
X155870506Y-85032619D01*
X155980820Y-85091584D01*
X156100518Y-85127894D01*
X156225000Y-85140154D01*
X156349482Y-85127894D01*
X156469180Y-85091584D01*
X156536051Y-85055840D01*
X156536051Y-85242311D01*
X156593119Y-85529209D01*
X156705061Y-85799462D01*
X156867576Y-86042683D01*
X157074419Y-86249526D01*
X157317640Y-86412041D01*
X157587893Y-86523983D01*
X157874791Y-86581051D01*
X158167311Y-86581051D01*
X158454209Y-86523983D01*
X158724462Y-86412041D01*
X158967683Y-86249526D01*
X159174526Y-86042683D01*
X159337041Y-85799462D01*
X159448983Y-85529209D01*
X159464369Y-85451858D01*
X160090216Y-86444195D01*
X160825088Y-87894859D01*
X161420888Y-89407964D01*
X161872381Y-90970212D01*
X162175599Y-92567874D01*
X162327877Y-94186910D01*
X162327877Y-95813090D01*
X162175599Y-97432126D01*
X161872381Y-99029788D01*
X161420888Y-100592036D01*
X160825088Y-102105141D01*
X160090216Y-103555805D01*
X159222731Y-104931281D01*
X158230256Y-106219481D01*
X157121513Y-107409083D01*
X155906246Y-108489634D01*
X154597085Y-109450206D01*
X154610000Y-109385279D01*
X154610000Y-108964721D01*
X154527953Y-108552244D01*
X154367012Y-108163698D01*
X154133363Y-107814017D01*
X153835983Y-107516637D01*
X153486302Y-107282988D01*
X153097756Y-107122047D01*
X152685279Y-107040000D01*
X152264721Y-107040000D01*
X151852244Y-107122047D01*
X151463698Y-107282988D01*
X151114017Y-107516637D01*
X150816637Y-107814017D01*
X150582988Y-108163698D01*
X150422047Y-108552244D01*
X150340000Y-108964721D01*
X150340000Y-109385279D01*
X150422047Y-109797756D01*
X150582988Y-110186302D01*
X150816637Y-110535983D01*
X151114017Y-110833363D01*
X151463698Y-111067012D01*
X151487781Y-111076987D01*
X150205551Y-111547467D01*
X148633148Y-111962213D01*
X147028817Y-112227894D01*
X145406657Y-112342176D01*
X143780923Y-112304054D01*
X142165902Y-112113863D01*
X140575788Y-111773276D01*
X139024553Y-111285284D01*
X137525831Y-110654176D01*
X136092792Y-109885499D01*
X134738031Y-108986008D01*
X133473451Y-107963607D01*
X132310168Y-106827281D01*
X131258403Y-105587017D01*
X130327399Y-104253714D01*
X129525340Y-102839089D01*
X128859272Y-101355574D01*
X128422520Y-100073061D01*
X138265000Y-100073061D01*
X138265000Y-100276939D01*
X138304774Y-100476898D01*
X138382795Y-100665256D01*
X138496063Y-100834774D01*
X138540000Y-100878711D01*
X138540001Y-103596288D01*
X138496063Y-103640226D01*
X138382795Y-103809744D01*
X138304774Y-103998102D01*
X138265000Y-104198061D01*
X138265000Y-104401939D01*
X138304774Y-104601898D01*
X138382795Y-104790256D01*
X138496063Y-104959774D01*
X138540000Y-105003711D01*
X138540001Y-108546288D01*
X138496063Y-108590226D01*
X138382795Y-108759744D01*
X138304774Y-108948102D01*
X138265000Y-109148061D01*
X138265000Y-109351939D01*
X138304774Y-109551898D01*
X138382795Y-109740256D01*
X138496063Y-109909774D01*
X138640226Y-110053937D01*
X138809744Y-110167205D01*
X138998102Y-110245226D01*
X139198061Y-110285000D01*
X139260198Y-110285000D01*
X139486201Y-110511002D01*
X139509999Y-110540001D01*
X139625724Y-110634974D01*
X139757753Y-110705546D01*
X139901014Y-110749003D01*
X140012667Y-110760000D01*
X140012676Y-110760000D01*
X140049999Y-110763676D01*
X140087322Y-110760000D01*
X147510199Y-110760000D01*
X147536196Y-110785997D01*
X147559999Y-110815001D01*
X147675724Y-110909974D01*
X147807753Y-110980546D01*
X147951014Y-111024003D01*
X148062667Y-111035000D01*
X148062675Y-111035000D01*
X148100000Y-111038676D01*
X148137325Y-111035000D01*
X148196289Y-111035000D01*
X148240226Y-111078937D01*
X148409744Y-111192205D01*
X148598102Y-111270226D01*
X148798061Y-111310000D01*
X149001939Y-111310000D01*
X149201898Y-111270226D01*
X149390256Y-111192205D01*
X149559774Y-111078937D01*
X149703937Y-110934774D01*
X149817205Y-110765256D01*
X149895226Y-110576898D01*
X149935000Y-110376939D01*
X149935000Y-110173061D01*
X149895226Y-109973102D01*
X149817205Y-109784744D01*
X149703937Y-109615226D01*
X149559774Y-109471063D01*
X149390256Y-109357795D01*
X149201898Y-109279774D01*
X149001939Y-109240000D01*
X148798061Y-109240000D01*
X148598102Y-109279774D01*
X148409744Y-109357795D01*
X148316435Y-109420142D01*
X148249276Y-109365026D01*
X148117247Y-109294454D01*
X147973986Y-109250997D01*
X147862333Y-109240000D01*
X147862322Y-109240000D01*
X147825000Y-109236324D01*
X147787678Y-109240000D01*
X140364802Y-109240000D01*
X140335000Y-109210198D01*
X140335000Y-109148061D01*
X140295226Y-108948102D01*
X140217205Y-108759744D01*
X140103937Y-108590226D01*
X140060000Y-108546289D01*
X140060000Y-105003711D01*
X140103937Y-104959774D01*
X140217205Y-104790256D01*
X140295226Y-104601898D01*
X140335000Y-104401939D01*
X140335000Y-104198061D01*
X140295226Y-103998102D01*
X140217205Y-103809744D01*
X140103937Y-103640226D01*
X140060000Y-103596289D01*
X140060000Y-100878711D01*
X140103937Y-100834774D01*
X140217205Y-100665256D01*
X140295226Y-100476898D01*
X140335000Y-100276939D01*
X140335000Y-100073061D01*
X140295226Y-99873102D01*
X140217205Y-99684744D01*
X140103937Y-99515226D01*
X139959774Y-99371063D01*
X139790256Y-99257795D01*
X139601898Y-99179774D01*
X139401939Y-99140000D01*
X139198061Y-99140000D01*
X138998102Y-99179774D01*
X138809744Y-99257795D01*
X138640226Y-99371063D01*
X138496063Y-99515226D01*
X138382795Y-99684744D01*
X138304774Y-99873102D01*
X138265000Y-100073061D01*
X128422520Y-100073061D01*
X128335049Y-99816205D01*
X127957278Y-98234512D01*
X127729280Y-96624394D01*
X127653057Y-95000000D01*
X127729280Y-93375606D01*
X127957278Y-91765488D01*
X128335049Y-90183795D01*
X128859272Y-88644426D01*
X129525340Y-87160911D01*
X130113440Y-86123654D01*
X131030951Y-86123654D01*
X131030951Y-86348160D01*
X131427764Y-86749318D01*
X131524455Y-86828671D01*
X131634769Y-86887635D01*
X131754468Y-86923944D01*
X131878949Y-86936204D01*
X132003430Y-86923944D01*
X132123129Y-86887635D01*
X132233443Y-86828671D01*
X132330134Y-86749318D01*
X132726947Y-86348160D01*
X132726947Y-86123654D01*
X131878949Y-85275656D01*
X131030951Y-86123654D01*
X130113440Y-86123654D01*
X130327399Y-85746286D01*
X130368053Y-85688065D01*
X130626840Y-85944049D01*
X130851346Y-85944049D01*
X131699344Y-85096051D01*
X131685202Y-85081909D01*
X131864807Y-84902304D01*
X131878949Y-84916446D01*
X131893092Y-84902304D01*
X132072697Y-85081909D01*
X132058554Y-85096051D01*
X132906552Y-85944049D01*
X133131058Y-85944049D01*
X133532216Y-85547236D01*
X133611569Y-85450545D01*
X133670533Y-85340231D01*
X133706842Y-85220532D01*
X133719102Y-85096051D01*
X133706842Y-84971570D01*
X133670533Y-84851871D01*
X133634790Y-84785000D01*
X133821260Y-84785000D01*
X134108158Y-84727932D01*
X134378411Y-84615990D01*
X134621632Y-84453475D01*
X134828475Y-84246632D01*
X134836247Y-84235000D01*
X137982711Y-84235000D01*
X142016370Y-88268659D01*
X142045656Y-88304344D01*
X142188028Y-88421186D01*
X142350460Y-88508007D01*
X142526708Y-88561471D01*
X142570466Y-88565781D01*
X142557795Y-88584744D01*
X142479774Y-88773102D01*
X142440000Y-88973061D01*
X142440000Y-89176939D01*
X142479774Y-89376898D01*
X142557795Y-89565256D01*
X142671063Y-89734774D01*
X142715001Y-89778712D01*
X142715000Y-96987678D01*
X142711324Y-97025000D01*
X142715000Y-97062322D01*
X142715000Y-97062332D01*
X142725997Y-97173985D01*
X142754721Y-97268677D01*
X142769454Y-97317246D01*
X142840026Y-97449276D01*
X142870812Y-97486788D01*
X142934999Y-97565001D01*
X142964003Y-97588804D01*
X143990001Y-98614803D01*
X143990000Y-99346100D01*
X143915226Y-99396063D01*
X143771063Y-99540226D01*
X143657795Y-99709744D01*
X143579774Y-99898102D01*
X143540000Y-100098061D01*
X143540000Y-100301939D01*
X143579774Y-100501898D01*
X143657795Y-100690256D01*
X143771063Y-100859774D01*
X143915226Y-101003937D01*
X144084744Y-101117205D01*
X144273102Y-101195226D01*
X144473061Y-101235000D01*
X144676939Y-101235000D01*
X144731924Y-101224063D01*
X144700998Y-101326015D01*
X144686324Y-101475000D01*
X144690001Y-101512332D01*
X144690000Y-105412677D01*
X144686324Y-105450000D01*
X144690000Y-105487322D01*
X144690000Y-105487332D01*
X144700997Y-105598985D01*
X144735788Y-105713676D01*
X144744454Y-105742246D01*
X144815026Y-105874276D01*
X144854871Y-105922826D01*
X144909999Y-105990001D01*
X144939003Y-106013804D01*
X146852379Y-107927181D01*
X146857795Y-107940256D01*
X146971063Y-108109774D01*
X147115226Y-108253937D01*
X147284744Y-108367205D01*
X147473102Y-108445226D01*
X147673061Y-108485000D01*
X147876939Y-108485000D01*
X148076898Y-108445226D01*
X148265256Y-108367205D01*
X148434774Y-108253937D01*
X148578937Y-108109774D01*
X148692205Y-107940256D01*
X148770226Y-107751898D01*
X148810000Y-107551939D01*
X148810000Y-107348061D01*
X148770226Y-107148102D01*
X148693347Y-106962500D01*
X148770226Y-106776898D01*
X148810000Y-106576939D01*
X148810000Y-106534803D01*
X148861205Y-106586008D01*
X148884999Y-106615001D01*
X148913992Y-106638795D01*
X148913996Y-106638799D01*
X148984685Y-106696811D01*
X149000724Y-106709974D01*
X149132753Y-106780546D01*
X149276014Y-106824003D01*
X149387667Y-106835000D01*
X149387676Y-106835000D01*
X149424999Y-106838676D01*
X149462322Y-106835000D01*
X156067678Y-106835000D01*
X156105000Y-106838676D01*
X156142322Y-106835000D01*
X156142333Y-106835000D01*
X156253986Y-106824003D01*
X156397247Y-106780546D01*
X156529276Y-106709974D01*
X156645001Y-106615001D01*
X156668803Y-106585998D01*
X157173592Y-106081210D01*
X157393740Y-106125000D01*
X157686260Y-106125000D01*
X157973158Y-106067932D01*
X158243411Y-105955990D01*
X158486632Y-105793475D01*
X158693475Y-105586632D01*
X158855990Y-105343411D01*
X158967932Y-105073158D01*
X159025000Y-104786260D01*
X159025000Y-104493740D01*
X158967932Y-104206842D01*
X158855990Y-103936589D01*
X158693475Y-103693368D01*
X158486632Y-103486525D01*
X158312240Y-103370000D01*
X158486632Y-103253475D01*
X158693475Y-103046632D01*
X158855990Y-102803411D01*
X158967932Y-102533158D01*
X159025000Y-102246260D01*
X159025000Y-101953740D01*
X158967932Y-101666842D01*
X158855990Y-101396589D01*
X158693475Y-101153368D01*
X158486632Y-100946525D01*
X158243411Y-100784010D01*
X157973158Y-100672068D01*
X157686260Y-100615000D01*
X157634801Y-100615000D01*
X159186004Y-99063798D01*
X159215001Y-99040001D01*
X159309974Y-98924276D01*
X159380546Y-98792247D01*
X159424003Y-98648986D01*
X159435000Y-98537333D01*
X159435000Y-98537325D01*
X159438676Y-98500000D01*
X159435000Y-98462675D01*
X159435000Y-97514802D01*
X159881009Y-97068794D01*
X159910001Y-97045001D01*
X159933795Y-97016008D01*
X159933799Y-97016004D01*
X160004973Y-96929277D01*
X160004974Y-96929276D01*
X160075546Y-96797247D01*
X160119003Y-96653986D01*
X160130000Y-96542333D01*
X160130000Y-96542324D01*
X160133676Y-96505001D01*
X160130000Y-96467678D01*
X160130000Y-94535132D01*
X160251612Y-94413520D01*
X160375824Y-94227624D01*
X160461383Y-94021067D01*
X160505000Y-93801788D01*
X160505000Y-93578212D01*
X160461383Y-93358933D01*
X160375824Y-93152376D01*
X160251612Y-92966480D01*
X160093520Y-92808388D01*
X159907624Y-92684176D01*
X159701067Y-92598617D01*
X159481788Y-92555000D01*
X159258212Y-92555000D01*
X159038933Y-92598617D01*
X158832376Y-92684176D01*
X158646480Y-92808388D01*
X158488388Y-92966480D01*
X158364176Y-93152376D01*
X158278617Y-93358933D01*
X158253747Y-93483964D01*
X157752711Y-93985000D01*
X156948454Y-93985000D01*
X157069774Y-93903937D01*
X157213937Y-93759774D01*
X157327205Y-93590256D01*
X157405226Y-93401898D01*
X157445000Y-93201939D01*
X157445000Y-92998061D01*
X157405226Y-92798102D01*
X157327205Y-92609744D01*
X157213937Y-92440226D01*
X157170000Y-92396289D01*
X157170000Y-88672322D01*
X157173676Y-88634999D01*
X157170000Y-88597676D01*
X157170000Y-88597667D01*
X157159003Y-88486014D01*
X157115546Y-88342753D01*
X157044974Y-88210724D01*
X156950001Y-88094999D01*
X156921003Y-88071201D01*
X155345614Y-86495813D01*
X155405226Y-86351898D01*
X155445000Y-86151939D01*
X155445000Y-85948061D01*
X155405226Y-85748102D01*
X155327205Y-85559744D01*
X155213937Y-85390226D01*
X155069774Y-85246063D01*
X154900256Y-85132795D01*
X154711898Y-85054774D01*
X154511939Y-85015000D01*
X154355000Y-85015000D01*
X154355000Y-84918061D01*
X154315226Y-84718102D01*
X154237205Y-84529744D01*
X154123937Y-84360226D01*
X153979774Y-84216063D01*
X153810256Y-84102795D01*
X153621898Y-84024774D01*
X153421939Y-83985000D01*
X153218061Y-83985000D01*
X153018102Y-84024774D01*
X152829744Y-84102795D01*
X152660226Y-84216063D01*
X152516063Y-84360226D01*
X152402795Y-84529744D01*
X152324774Y-84718102D01*
X152285000Y-84918061D01*
X152285000Y-85121939D01*
X152324774Y-85321898D01*
X152402795Y-85510256D01*
X152516063Y-85679774D01*
X152560001Y-85723712D01*
X152560000Y-86707677D01*
X152556324Y-86745000D01*
X152560000Y-86782322D01*
X152560000Y-86782332D01*
X152570997Y-86893985D01*
X152603754Y-87001972D01*
X152614454Y-87037246D01*
X152685026Y-87169276D01*
X152713130Y-87203520D01*
X152779999Y-87285001D01*
X152809003Y-87308804D01*
X154380001Y-88879803D01*
X154380000Y-92406289D01*
X154336063Y-92450226D01*
X154222795Y-92619744D01*
X154144774Y-92808102D01*
X154105000Y-93008061D01*
X154105000Y-93211939D01*
X154144774Y-93411898D01*
X154222795Y-93600256D01*
X154336063Y-93769774D01*
X154480226Y-93913937D01*
X154586580Y-93985000D01*
X153537289Y-93985000D01*
X152260000Y-92707711D01*
X152260000Y-91568619D01*
X152330824Y-91462624D01*
X152416383Y-91256067D01*
X152460000Y-91036788D01*
X152460000Y-90813212D01*
X152416383Y-90593933D01*
X152330824Y-90387376D01*
X152206612Y-90201480D01*
X152048520Y-90043388D01*
X151862624Y-89919176D01*
X151656067Y-89833617D01*
X151436788Y-89790000D01*
X151213212Y-89790000D01*
X150993933Y-89833617D01*
X150787376Y-89919176D01*
X150601480Y-90043388D01*
X150443388Y-90201480D01*
X150319176Y-90387376D01*
X150233617Y-90593933D01*
X150190000Y-90813212D01*
X150190000Y-91036788D01*
X150233617Y-91256067D01*
X150319176Y-91462624D01*
X150390001Y-91568620D01*
X150390000Y-92707711D01*
X147696336Y-95401375D01*
X147660657Y-95430656D01*
X147543815Y-95573028D01*
X147481172Y-95690226D01*
X147456994Y-95735460D01*
X147403529Y-95911709D01*
X147385476Y-96095000D01*
X147390001Y-96140941D01*
X147390001Y-96731380D01*
X147319176Y-96837376D01*
X147233617Y-97043933D01*
X147190000Y-97263212D01*
X147190000Y-97486788D01*
X147233617Y-97706067D01*
X147319176Y-97912624D01*
X147443388Y-98098520D01*
X147601480Y-98256612D01*
X147787376Y-98380824D01*
X147993933Y-98466383D01*
X148213212Y-98510000D01*
X148436788Y-98510000D01*
X148656067Y-98466383D01*
X148862624Y-98380824D01*
X149048520Y-98256612D01*
X149206612Y-98098520D01*
X149330824Y-97912624D01*
X149416383Y-97706067D01*
X149460000Y-97486788D01*
X149460000Y-97263212D01*
X149416383Y-97043933D01*
X149330824Y-96837376D01*
X149260000Y-96731381D01*
X149260000Y-96482289D01*
X151325000Y-94417289D01*
X152456370Y-95548659D01*
X152485656Y-95584344D01*
X152628028Y-95701186D01*
X152790460Y-95788007D01*
X152862828Y-95809959D01*
X152966708Y-95841472D01*
X153150000Y-95859524D01*
X153195935Y-95855000D01*
X153410965Y-95855000D01*
X153407795Y-95859744D01*
X153329774Y-96048102D01*
X153290000Y-96248061D01*
X153290000Y-96310198D01*
X151085199Y-98515000D01*
X147687323Y-98515000D01*
X147650000Y-98511324D01*
X147612677Y-98515000D01*
X147612667Y-98515000D01*
X147501014Y-98525997D01*
X147357753Y-98569454D01*
X147225724Y-98640026D01*
X147109999Y-98734999D01*
X147086201Y-98763997D01*
X146425271Y-99424927D01*
X146367205Y-99284744D01*
X146253937Y-99115226D01*
X146210000Y-99071289D01*
X146210000Y-97862323D01*
X146213676Y-97825000D01*
X146210000Y-97787677D01*
X146210000Y-97787667D01*
X146199003Y-97676014D01*
X146155546Y-97532753D01*
X146084974Y-97400724D01*
X145990001Y-97284999D01*
X145961004Y-97261202D01*
X145335000Y-96635199D01*
X145335000Y-91369382D01*
X145340256Y-91367205D01*
X145509774Y-91253937D01*
X145653937Y-91109774D01*
X145767205Y-90940256D01*
X145845226Y-90751898D01*
X145885000Y-90551939D01*
X145885000Y-90348061D01*
X145845226Y-90148102D01*
X145767205Y-89959744D01*
X145653937Y-89790226D01*
X145509774Y-89646063D01*
X145340256Y-89532795D01*
X145151898Y-89454774D01*
X144951939Y-89415000D01*
X144748061Y-89415000D01*
X144548102Y-89454774D01*
X144415159Y-89509841D01*
X144470226Y-89376898D01*
X144510000Y-89176939D01*
X144510000Y-88973061D01*
X144470226Y-88773102D01*
X144392205Y-88584744D01*
X144385694Y-88575000D01*
X148264068Y-88575000D01*
X148310000Y-88579524D01*
X148355932Y-88575000D01*
X148493292Y-88561471D01*
X148669540Y-88508007D01*
X148831972Y-88421186D01*
X148974344Y-88304344D01*
X149003630Y-88268659D01*
X149676036Y-87596253D01*
X149801067Y-87571383D01*
X150007624Y-87485824D01*
X150193520Y-87361612D01*
X150351612Y-87203520D01*
X150475824Y-87017624D01*
X150561383Y-86811067D01*
X150605000Y-86591788D01*
X150605000Y-86368212D01*
X150561383Y-86148933D01*
X150475824Y-85942376D01*
X150351612Y-85756480D01*
X150193520Y-85598388D01*
X150007624Y-85474176D01*
X149801067Y-85388617D01*
X149581788Y-85345000D01*
X149358212Y-85345000D01*
X149138933Y-85388617D01*
X148932376Y-85474176D01*
X148746480Y-85598388D01*
X148588388Y-85756480D01*
X148464176Y-85942376D01*
X148378617Y-86148933D01*
X148353747Y-86273964D01*
X147922711Y-86705000D01*
X143097289Y-86705000D01*
X142172289Y-85780000D01*
X143036928Y-85780000D01*
X143049188Y-85904482D01*
X143085498Y-86024180D01*
X143144463Y-86134494D01*
X143223815Y-86231185D01*
X143320506Y-86310537D01*
X143430820Y-86369502D01*
X143550518Y-86405812D01*
X143675000Y-86418072D01*
X144939250Y-86415000D01*
X144972106Y-86382144D01*
X145138998Y-86415113D01*
X145313328Y-86414884D01*
X145477711Y-86381961D01*
X145510750Y-86415000D01*
X146775000Y-86418072D01*
X146899482Y-86405812D01*
X147019180Y-86369502D01*
X147129494Y-86310537D01*
X147226185Y-86231185D01*
X147305537Y-86134494D01*
X147364502Y-86024180D01*
X147400812Y-85904482D01*
X147413072Y-85780000D01*
X147410000Y-84860750D01*
X147251250Y-84702000D01*
X146838555Y-84702000D01*
X146782026Y-84678672D01*
X146611002Y-84644887D01*
X146436672Y-84645116D01*
X146265736Y-84679351D01*
X146211056Y-84702000D01*
X145538555Y-84702000D01*
X145482026Y-84678672D01*
X145311002Y-84644887D01*
X145136672Y-84645116D01*
X144965736Y-84679351D01*
X144911056Y-84702000D01*
X144238555Y-84702000D01*
X144182026Y-84678672D01*
X144011002Y-84644887D01*
X143836672Y-84645116D01*
X143665736Y-84679351D01*
X143611056Y-84702000D01*
X143198750Y-84702000D01*
X143040000Y-84860750D01*
X143036928Y-85780000D01*
X142172289Y-85780000D01*
X139431056Y-83038767D01*
X139730983Y-82838363D01*
X140028363Y-82540983D01*
X140262012Y-82191302D01*
X140422953Y-81802756D01*
X140505000Y-81390279D01*
X140505000Y-80969721D01*
X140422953Y-80557244D01*
X140262012Y-80168698D01*
X140028363Y-79819017D01*
X139730983Y-79521637D01*
X139381302Y-79287988D01*
X138992756Y-79127047D01*
X138580279Y-79045000D01*
X138240212Y-79045000D01*
X139024553Y-78714716D01*
X140575788Y-78226724D01*
X142165902Y-77886137D01*
X142332263Y-77866546D01*
X142300000Y-78028740D01*
G36*
X145352000Y-85449110D02*
G01*
X145352000Y-85610890D01*
X145241971Y-85720919D01*
X145225000Y-85703948D01*
X145208029Y-85720919D01*
X145098000Y-85610890D01*
X145098000Y-85449110D01*
X145208029Y-85339081D01*
X145225000Y-85356052D01*
X145241971Y-85339081D01*
X145352000Y-85449110D01*
G37*
X145352000Y-85449110D02*
X145352000Y-85610890D01*
X145241971Y-85720919D01*
X145225000Y-85703948D01*
X145208029Y-85720919D01*
X145098000Y-85610890D01*
X145098000Y-85449110D01*
X145208029Y-85339081D01*
X145225000Y-85356052D01*
X145241971Y-85339081D01*
X145352000Y-85449110D01*
G36*
X151570000Y-100449999D02*
G01*
X151546202Y-100478997D01*
X151546201Y-100478998D01*
X151475026Y-100565724D01*
X151404454Y-100697754D01*
X151382705Y-100769454D01*
X151369254Y-100813799D01*
X151360998Y-100841015D01*
X151346324Y-100990000D01*
X151350001Y-101027332D01*
X151350001Y-101266288D01*
X151306063Y-101310226D01*
X151192795Y-101479744D01*
X151114774Y-101668102D01*
X151075000Y-101868061D01*
X151075000Y-102071939D01*
X151114774Y-102271898D01*
X151192795Y-102460256D01*
X151306063Y-102629774D01*
X151450226Y-102773937D01*
X151619744Y-102887205D01*
X151808102Y-102965226D01*
X152008061Y-103005000D01*
X152211939Y-103005000D01*
X152411898Y-102965226D01*
X152600256Y-102887205D01*
X152769774Y-102773937D01*
X152913937Y-102629774D01*
X153027205Y-102460256D01*
X153105226Y-102271898D01*
X153145000Y-102071939D01*
X153145000Y-101868061D01*
X153105226Y-101668102D01*
X153027205Y-101479744D01*
X152913937Y-101310226D01*
X152889256Y-101285545D01*
X153164802Y-101010000D01*
X153559230Y-101010000D01*
X153524188Y-101125518D01*
X153511928Y-101250000D01*
X153511928Y-102950000D01*
X153524188Y-103074482D01*
X153560498Y-103194180D01*
X153619463Y-103304494D01*
X153698815Y-103401185D01*
X153795506Y-103480537D01*
X153905820Y-103539502D01*
X153978380Y-103561513D01*
X153846525Y-103693368D01*
X153721822Y-103880000D01*
X153572322Y-103880000D01*
X153534999Y-103876324D01*
X153497676Y-103880000D01*
X153497667Y-103880000D01*
X153386014Y-103890997D01*
X153242753Y-103934454D01*
X153110724Y-104005026D01*
X152994999Y-104099999D01*
X152971196Y-104129003D01*
X152910199Y-104190000D01*
X150589803Y-104190000D01*
X149310000Y-102910199D01*
X149310000Y-102203711D01*
X149353937Y-102159774D01*
X149467205Y-101990256D01*
X149545226Y-101801898D01*
X149585000Y-101601939D01*
X149585000Y-101398061D01*
X149545226Y-101198102D01*
X149467205Y-101009744D01*
X149353937Y-100840226D01*
X149209774Y-100696063D01*
X149040256Y-100582795D01*
X148851898Y-100504774D01*
X148651939Y-100465000D01*
X148448061Y-100465000D01*
X148248102Y-100504774D01*
X148114820Y-100559981D01*
X148239802Y-100435000D01*
X151588276Y-100435000D01*
X151570000Y-100449999D01*
G37*
X151570000Y-100449999D02*
X151546202Y-100478997D01*
X151546201Y-100478998D01*
X151475026Y-100565724D01*
X151404454Y-100697754D01*
X151382705Y-100769454D01*
X151369254Y-100813799D01*
X151360998Y-100841015D01*
X151346324Y-100990000D01*
X151350001Y-101027332D01*
X151350001Y-101266288D01*
X151306063Y-101310226D01*
X151192795Y-101479744D01*
X151114774Y-101668102D01*
X151075000Y-101868061D01*
X151075000Y-102071939D01*
X151114774Y-102271898D01*
X151192795Y-102460256D01*
X151306063Y-102629774D01*
X151450226Y-102773937D01*
X151619744Y-102887205D01*
X151808102Y-102965226D01*
X152008061Y-103005000D01*
X152211939Y-103005000D01*
X152411898Y-102965226D01*
X152600256Y-102887205D01*
X152769774Y-102773937D01*
X152913937Y-102629774D01*
X153027205Y-102460256D01*
X153105226Y-102271898D01*
X153145000Y-102071939D01*
X153145000Y-101868061D01*
X153105226Y-101668102D01*
X153027205Y-101479744D01*
X152913937Y-101310226D01*
X152889256Y-101285545D01*
X153164802Y-101010000D01*
X153559230Y-101010000D01*
X153524188Y-101125518D01*
X153511928Y-101250000D01*
X153511928Y-102950000D01*
X153524188Y-103074482D01*
X153560498Y-103194180D01*
X153619463Y-103304494D01*
X153698815Y-103401185D01*
X153795506Y-103480537D01*
X153905820Y-103539502D01*
X153978380Y-103561513D01*
X153846525Y-103693368D01*
X153721822Y-103880000D01*
X153572322Y-103880000D01*
X153534999Y-103876324D01*
X153497676Y-103880000D01*
X153497667Y-103880000D01*
X153386014Y-103890997D01*
X153242753Y-103934454D01*
X153110724Y-104005026D01*
X152994999Y-104099999D01*
X152971196Y-104129003D01*
X152910199Y-104190000D01*
X150589803Y-104190000D01*
X149310000Y-102910199D01*
X149310000Y-102203711D01*
X149353937Y-102159774D01*
X149467205Y-101990256D01*
X149545226Y-101801898D01*
X149585000Y-101601939D01*
X149585000Y-101398061D01*
X149545226Y-101198102D01*
X149467205Y-101009744D01*
X149353937Y-100840226D01*
X149209774Y-100696063D01*
X149040256Y-100582795D01*
X148851898Y-100504774D01*
X148651939Y-100465000D01*
X148448061Y-100465000D01*
X148248102Y-100504774D01*
X148114820Y-100559981D01*
X148239802Y-100435000D01*
X151588276Y-100435000D01*
X151570000Y-100449999D01*
%TD*%
M02*
